<?xml version="1.0"?>
<svg width="3150" height="1395.9999999999998" xmlns="http://www.w3.org/2000/svg" xmlns:svg="http://www.w3.org/2000/svg" version="1.1">
 <g class="layer">
  <title>Layer 1</title>
  <path d="m756.23,0.35c0.64,0.05 1.28,0.1 1.95,0.16c2.15,0.17 4.3,0.36 6.45,0.55c1.12,0.1 1.12,0.1 2.27,0.21c56.87,5.15 112.29,18.19 166.12,37.04c1.86,0.65 3.73,1.3 5.6,1.94c40.36,14.02 80.07,32.83 116.58,55.04c2.96,1.81 5.94,3.59 8.92,5.37c5.66,3.4 11.28,6.85 16.88,10.34c0.75,0.46 1.49,0.92 2.26,1.39c1.91,1.18 3.8,2.39 5.68,3.61c1.5,0.96 1.5,0.96 3.03,1.94c2.03,2.06 2.03,2.06 2.69,5.03c-0.9,4.18 -2.57,5.13 -6.03,7.59c-0.87,0.63 -0.87,0.63 -1.75,1.28c-1.27,0.91 -2.55,1.82 -3.83,2.72c-2.1,1.48 -4.18,2.98 -6.25,4.49c-3.01,2.18 -6.03,4.36 -9.06,6.53c-7.16,5.16 -14.25,10.41 -21.35,15.66c-3.96,2.92 -7.92,5.84 -11.89,8.76c-1.58,1.17 -3.16,2.34 -4.75,3.5c-9.5,7 -19,14 -28.5,21c-0.78,0.58 -1.56,1.16 -2.37,1.75c-1.58,1.17 -3.17,2.33 -4.75,3.5c-3.97,2.93 -7.94,5.86 -11.91,8.79c-7.77,5.74 -15.56,11.45 -23.4,17.09c-6.32,4.54 -12.57,9.17 -18.78,13.85c-5.71,4.31 -11.51,8.49 -17.33,12.67c-4.94,3.56 -9.84,7.18 -14.71,10.85c-7.92,5.98 -15.91,11.88 -24.05,17.56c-1.94,1.38 -1.94,1.38 -3.5,2.93c-3.88,3.52 -6.99,3.77 -12.18,3.68c-0.66,0 -1.32,-0.01 -2,-0.02c-7.48,-0.12 -14.95,-0.44 -22.42,-0.79c-1.57,-0.07 -3.14,-0.14 -4.71,-0.2c-4.28,-0.19 -8.56,-0.39 -12.83,-0.58c-4.63,-0.21 -9.26,-0.41 -13.88,-0.62c-9.05,-0.4 -18.1,-0.81 -27.14,-1.22c-7.35,-0.33 -14.7,-0.66 -22.05,-0.99c-1.05,-0.04 -2.1,-0.09 -3.18,-0.14c-2.13,-0.09 -4.26,-0.19 -6.39,-0.28c-19.93,-0.9 -39.87,-1.79 -59.8,-2.69c-17.1,-0.77 -34.21,-1.54 -51.31,-2.3c-19.88,-0.89 -39.76,-1.78 -59.64,-2.67c-2.12,-0.1 -4.24,-0.19 -6.35,-0.29c-1.05,-0.04 -2.09,-0.09 -3.16,-0.14c-7.35,-0.33 -14.7,-0.66 -22.04,-0.98c-8.95,-0.4 -17.89,-0.8 -26.84,-1.21c-4.56,-0.21 -9.12,-0.41 -13.69,-0.61c-4.17,-0.19 -8.35,-0.38 -12.53,-0.57c-1.51,-0.07 -3.02,-0.13 -4.53,-0.2c-2.05,-0.09 -4.11,-0.18 -6.16,-0.28c-1.14,-0.05 -2.28,-0.1 -3.46,-0.15c-3.1,-0.23 -6.1,-0.68 -9.16,-1.24c-0.2,0.85 -0.2,0.85 -0.42,1.71c-2.57,9.94 -5.99,19.59 -9.33,29.29c-0.67,1.96 -1.34,3.92 -2.01,5.88c-4.81,14.05 -9.7,28.07 -14.6,42.09c-5.3,15.14 -10.49,30.32 -15.65,45.51c-5.06,14.92 -10.21,29.8 -15.41,44.67c-5.29,15.08 -10.45,30.2 -15.59,45.33c-4.74,13.97 -9.55,27.91 -14.42,41.83c-5.45,15.54 -10.79,31.1 -16.07,46.69c-5.57,16.46 -11.22,32.89 -16.97,49.29c-5.79,16.53 -11.45,33.11 -17.07,49.7c-0.32,0.93 -0.64,1.86 -0.96,2.82c-0.62,1.82 -1.23,3.64 -1.84,5.46c-1.45,4.27 -2.93,8.51 -4.52,12.73c-0.29,0.78 -0.58,1.56 -0.88,2.37c-0.55,1.46 -1.11,2.91 -1.68,4.35c-1.41,3.73 -1.41,3.73 -0.87,7.58c1.96,2.58 4.13,4.93 6.36,7.26c3.6,3.86 7.07,7.76 10.37,11.88c3.93,4.89 8.11,9.49 12.4,14.06c2.88,3.06 5.59,6.19 8.16,9.5c8.6,-3.84 15.67,-11.54 22.52,-17.91c4.11,-3.8 8.41,-7.33 12.77,-10.84c2.82,-2.34 5.52,-4.77 8.21,-7.25c3.56,-3.27 7.18,-6.4 10.94,-9.44c4.54,-3.65 8.82,-7.51 13.08,-11.47c4.09,-3.78 8.36,-7.28 12.7,-10.78c3.02,-2.51 5.91,-5.13 8.78,-7.81c4.61,-4.29 9.38,-8.3 14.29,-12.25c2.82,-2.34 5.52,-4.77 8.21,-7.25c3.56,-3.27 7.18,-6.4 10.94,-9.44c4.54,-3.65 8.82,-7.51 13.08,-11.47c4.09,-3.78 8.36,-7.28 12.7,-10.78c3.02,-2.51 5.91,-5.13 8.78,-7.81c4.61,-4.29 9.38,-8.3 14.29,-12.25c2.82,-2.34 5.52,-4.77 8.21,-7.25c3.56,-3.27 7.18,-6.4 10.94,-9.44c4.54,-3.65 8.82,-7.51 13.08,-11.47c4.09,-3.78 8.36,-7.28 12.7,-10.78c3.02,-2.51 5.91,-5.13 8.78,-7.81c4.6,-4.28 9.36,-8.29 14.27,-12.22c1.96,-1.64 3.83,-3.27 5.69,-5.02c0.49,-0.46 0.98,-0.92 1.48,-1.39c1.36,-1.29 2.71,-2.6 4.06,-3.9c2.71,-2.13 4.06,-3.01 7.5,-2.97c3.82,2.43 6.42,5.53 9.19,9.06c3.15,3.94 6.39,7.73 9.81,11.44c3.28,3.56 6.41,7.17 9.44,10.94c3.22,3.99 6.57,7.81 10.06,11.56c4.29,4.61 8.31,9.38 12.26,14.29c2.33,2.82 4.76,5.52 7.24,8.21c3.28,3.56 6.41,7.17 9.44,10.94c3.66,4.54 7.51,8.82 11.48,13.08c3.78,4.09 7.28,8.36 10.77,12.7c2.51,3.02 5.14,5.91 7.81,8.78c4.29,4.61 8.31,9.38 12.26,14.29c2.33,2.82 4.76,5.52 7.24,8.21c3.28,3.56 6.41,7.17 9.44,10.94c3.66,4.54 7.51,8.82 11.48,13.08c3.78,4.09 7.28,8.36 10.77,12.7c2.51,3.02 5.14,5.91 7.81,8.78c4.29,4.61 8.31,9.38 12.26,14.29c2.33,2.82 4.76,5.52 7.24,8.21c3.28,3.56 6.41,7.17 9.44,10.94c3.22,3.99 6.57,7.81 10.06,11.56c4.28,4.6 8.3,9.35 12.22,14.27c1.65,1.97 3.29,3.81 5.06,5.65c0.47,0.49 0.93,0.97 1.41,1.47c1.3,1.35 2.62,2.68 3.94,4.01c1.87,2.6 1.87,2.6 2.51,5.56c-0.88,4.22 -3.28,6.18 -6.45,8.85c-0.88,0.79 -0.88,0.79 -1.79,1.58c-4.47,3.92 -9.08,7.68 -13.72,11.4c-2.81,2.32 -5.49,4.74 -8.18,7.21c-3.55,3.28 -7.17,6.41 -10.93,9.44c-4.54,3.66 -8.82,7.51 -13.09,11.48c-4.08,3.78 -8.36,7.28 -12.7,10.77c-3.02,2.51 -5.9,5.14 -8.78,7.81c-4.61,4.29 -9.37,8.31 -14.28,12.26c-2.82,2.33 -5.52,4.76 -8.22,7.24c-3.55,3.28 -7.17,6.41 -10.93,9.44c-4.54,3.66 -8.82,7.51 -13.09,11.48c-4.08,3.78 -8.36,7.28 -12.7,10.77c-3.02,2.51 -5.9,5.14 -8.78,7.81c-4.61,4.29 -9.37,8.31 -14.28,12.26c-2.82,2.33 -5.52,4.76 -8.22,7.24c-3.55,3.28 -7.17,6.41 -10.93,9.44c-4,3.22 -7.81,6.57 -11.57,10.06c-4.61,4.29 -9.37,8.31 -14.28,12.26c-2.82,2.33 -5.52,4.76 -8.22,7.24c-3.55,3.28 -7.17,6.41 -10.93,9.44c-4.53,3.65 -8.82,7.49 -13.06,11.46c-4.27,3.95 -8.73,7.57 -13.33,11.13c-2.11,1.92 -3.13,3.35 -4.18,5.97c4.66,5.85 9.41,11.53 14.5,17c4.22,4.53 8.2,9.19 12.04,14.04c1.22,1.47 1.22,1.47 2.46,2.96c0.59,0.84 1.19,1.67 1.79,2.53c3.99,5.41 3.99,5.41 9.92,7.93c3.18,-0.38 6.11,-1.07 9.19,-1.91c2.43,-0.56 4.85,-1.12 7.28,-1.67c1.92,-0.47 1.92,-0.47 3.87,-0.95c5.99,-1.44 12.04,-2.53 18.1,-3.66c3.67,-0.69 7.33,-1.41 11,-2.12c1.54,-0.31 3.09,-0.61 4.64,-0.91c1.18,-0.23 1.18,-0.23 2.38,-0.46c4.2,-0.82 8.4,-1.63 12.6,-2.45c7.26,-1.41 14.52,-2.82 21.78,-4.24c10.58,-2.05 21.15,-4.11 31.72,-6.16c17.25,-3.36 34.51,-6.71 51.76,-10.07c16.58,-3.22 33.15,-6.45 49.73,-9.67c1.02,-0.2 2.03,-0.4 3.08,-0.6c7.13,-1.39 14.27,-2.77 21.4,-4.16c8.04,-1.56 16.08,-3.13 24.12,-4.69c0.98,-0.19 1.96,-0.38 2.97,-0.58c10.56,-2.05 21.11,-4.1 31.67,-6.16c0.91,-0.18 1.83,-0.35 2.77,-0.54c4.54,-0.88 9.08,-1.76 13.62,-2.64c8.68,-1.69 17.37,-3.38 26.05,-5.07c3.33,-0.65 6.66,-1.29 10,-1.94c1.21,-0.24 1.21,-0.24 2.46,-0.48c10.71,-2.08 21.41,-4.17 32.12,-6.26c5.56,-1.09 11.13,-2.18 16.69,-3.26c4.43,-0.87 8.85,-1.73 13.27,-2.6c3.3,-0.65 6.6,-1.29 9.9,-1.93c1.77,-0.35 1.77,-0.35 3.58,-0.71c1.08,-0.21 2.15,-0.42 3.26,-0.63c0.93,-0.18 1.86,-0.37 2.82,-0.55c2.46,-0.39 2.46,-0.39 6.46,-0.39c-0.01,-0.73 -0.02,-1.46 -0.04,-2.22c-0.09,-9.53 0.5,-18.94 1.19,-28.44c0.13,-1.76 0.25,-3.52 0.38,-5.28c0.34,-4.81 0.69,-9.62 1.04,-14.42c0.37,-5.2 0.74,-10.4 1.11,-15.59c0.9,-12.52 1.8,-25.04 2.71,-37.56c0.42,-5.9 0.85,-11.8 1.28,-17.7c1.41,-19.61 2.83,-39.23 4.25,-58.84c0.37,-5.07 0.74,-10.15 1.11,-15.23c0.09,-1.27 0.18,-2.53 0.28,-3.83c1.48,-20.49 2.96,-40.98 4.42,-61.47c1.51,-21.05 3.02,-42.09 4.56,-63.14c0.86,-11.81 1.71,-23.62 2.55,-35.44c0.71,-10.05 1.44,-20.1 2.18,-30.15c0.38,-5.12 0.75,-10.25 1.11,-15.38c0.32,-4.69 0.67,-9.39 1.02,-14.08c0.13,-1.7 0.25,-3.4 0.36,-5.1c0.16,-2.3 0.33,-4.61 0.52,-6.91c0.09,-1.28 0.18,-2.57 0.28,-3.89c1.22,-5.86 5.08,-8.84 9.63,-12.39c4.36,-3.49 8.49,-7.12 12.56,-10.94c4.76,-4.46 9.67,-8.64 14.76,-12.72c3.01,-2.5 5.88,-5.12 8.74,-7.78c3.71,-3.45 7.49,-6.76 11.44,-9.94c4.19,-3.36 8.15,-6.89 12.06,-10.56c4.76,-4.46 9.67,-8.64 14.76,-12.72c3.01,-2.5 5.88,-5.12 8.74,-7.78c3.71,-3.45 7.49,-6.76 11.44,-9.94c4.19,-3.36 8.15,-6.89 12.06,-10.56c4.76,-4.46 9.67,-8.64 14.76,-12.72c3.01,-2.5 5.88,-5.12 8.74,-7.78c3.71,-3.45 7.49,-6.76 11.44,-9.94c4.19,-3.36 8.15,-6.89 12.06,-10.56c4.78,-4.47 9.68,-8.68 14.8,-12.75c1.96,-1.63 3.79,-3.26 5.62,-5.02c0.49,-0.47 0.97,-0.93 1.47,-1.41c1.35,-1.3 2.68,-2.62 4.01,-3.95c3.12,-2.24 4.84,-2.26 8.6,-1.87c30.11,51.5 51.28,108.31 66,166c0.19,0.71 0.37,1.43 0.55,2.16c18.59,73.21 18.59,73.21 16.45,97.84c-1.52,1.98 -2.52,2.87 -4.95,3.54c-0.74,0.08 -1.49,0.15 -2.25,0.23c-0.86,0.1 -1.72,0.19 -2.6,0.29c-0.94,0.09 -1.87,0.18 -2.84,0.28c-0.99,0.1 -1.97,0.21 -2.99,0.32c-3.28,0.35 -6.55,0.68 -9.83,1.01c-2.27,0.24 -4.55,0.48 -6.82,0.72c-5.99,0.63 -11.98,1.25 -17.97,1.86c-8.45,0.87 -16.89,1.75 -25.33,2.64c-4.49,0.47 -8.99,0.94 -13.49,1.4c-2.05,0.21 -4.1,0.42 -6.16,0.64c-0.93,0.09 -1.87,0.19 -2.83,0.28c-0.86,0.09 -1.72,0.18 -2.6,0.27c-0.75,0.08 -1.49,0.16 -2.26,0.24c-2.08,0.28 -4.05,0.73 -6.08,1.28c0.09,0.86 0.09,0.86 0.19,1.74c1.9,19.2 2.01,38.36 2,57.64c0,1.3 0,2.61 0,3.95c0,3.78 -0.01,7.55 -0.02,11.32c0,1.14 0,2.28 0,3.46c-0.03,5.4 -0.21,10.57 -1.17,15.89c0.75,-0.01 1.49,-0.03 2.26,-0.05c11.58,-0.13 23.08,0.66 34.63,1.44c1.61,0.11 1.61,0.11 3.25,0.22c5.67,0.38 11.33,0.77 17,1.16c5.84,0.41 11.69,0.79 17.54,1.17c4.51,0.29 9.01,0.6 13.52,0.92c2.16,0.15 4.32,0.29 6.47,0.42c3.01,0.19 6.01,0.41 9.01,0.63c0.89,0.05 1.78,0.1 2.7,0.15c3.85,0.3 6.02,0.5 9.19,2.83c2.04,3.01 1.72,4.94 1.38,8.53c-0.12,1.32 -0.24,2.63 -0.36,3.99c-0.15,1.45 -0.3,2.89 -0.46,4.34c-0.15,1.52 -0.3,3.04 -0.45,4.56c-8.29,80.89 -30.71,159.13 -98.68,291.69c-0.64,1.06 -1.28,2.11 -1.94,3.2c-8.52,13.96 -17.47,27.55 -27.06,40.8c-0.59,0.82 -1.18,1.64 -1.79,2.48c-7.51,10.35 -15.18,20.57 -23.21,30.52c-0.39,0.57 -0.79,1.14 -1.2,1.72c-2.03,2.76 -3.29,4.15 -6.65,5.01c-4.48,-1.04 -7.06,-3.42 -10.46,-6.42c-1.42,-1.2 -2.85,-2.4 -4.27,-3.6c-0.73,-0.62 -1.46,-1.24 -2.21,-1.88c-3.46,-2.87 -7.05,-5.56 -10.64,-8.27c-6.64,-5.01 -13.08,-10.22 -19.47,-15.54c-5.16,-4.28 -10.42,-8.38 -15.76,-12.44c-4.69,-3.59 -9.23,-7.35 -13.78,-11.11c-3.73,-3.07 -7.49,-5.87 -11.56,-8.47c-6.84,7.48 -6.84,7.48 -13.56,15.06c-1.14,1.32 -2.29,2.63 -3.44,3.94c-0.85,0.99 -0.85,0.99 -1.73,2c-7.47,8.47 -15.51,16.36 -23.52,24.31c-1.46,1.46 -2.91,2.91 -4.37,4.37c-2.67,2.66 -5.34,5.32 -8.01,7.98c-2.8,2.77 -5.58,5.56 -8.37,8.34c8.24,9.69 8.24,9.69 16.69,19.19c3.01,3.31 5.88,6.7 8.69,10.19c3.68,4.55 7.55,8.86 11.54,13.14c3.78,4.09 7.28,8.36 10.77,12.7c2.53,3.04 5.18,5.95 7.88,8.84c3.44,3.74 6.85,7.49 10.12,11.38c0.64,0.76 1.29,1.52 1.95,2.31c1.69,2.79 2.03,4.05 1.36,7.25c-2.13,2.51 -2.13,2.51 -5.12,5.13c-0.54,0.47 -1.08,0.95 -1.63,1.44c-5.06,4.39 -10.32,8.53 -15.62,12.62c-3.07,2.37 -6.08,4.79 -9.08,7.24c-8.57,6.96 -17.43,13.36 -26.55,19.57c-1.62,1.11 -1.62,1.11 -3.28,2.24c-22.59,15.36 -45.63,29.84 -69.72,42.76c-1.33,0.72 -1.33,0.72 -2.69,1.46c-74.65,40.2 -157.27,65.06 -243.54,75.71c-0.69,0.08 -1.39,0.17 -2.1,0.26c-3.91,0.45 -7.74,0.84 -11.67,0.57c-2.4,-2.4 -2.35,-3.28 -2.7,-6.59c-0.1,-0.96 -0.2,-1.93 -0.31,-2.92c-0.11,-1.06 -0.21,-2.12 -0.32,-3.21c-0.12,-1.11 -0.23,-2.22 -0.35,-3.36c-0.39,-3.66 -0.76,-7.32 -1.13,-10.98c-0.26,-2.52 -0.52,-5.04 -0.79,-7.57c-1.32,-12.63 -2.59,-25.28 -3.87,-37.92c-0.11,-1.13 -0.23,-2.27 -0.34,-3.44c-0.55,-5.42 -1.09,-10.83 -1.63,-16.25c-0.19,-1.93 -0.38,-3.87 -0.58,-5.81c-0.08,-0.89 -0.17,-1.77 -0.25,-2.68c-0.34,-4.27 -0.34,-4.27 -1.73,-8.27c-0.59,0.06 -1.19,0.12 -1.8,0.19c-18.5,1.78 -36.93,2.01 -55.51,2c-1.81,0 -1.81,0 -3.65,0c-3.49,0 -6.98,-0.01 -10.46,-0.02c-1.05,0 -2.1,0 -3.18,0c-5.55,-0.04 -10.9,-0.35 -16.4,-1.17c-0.04,0.86 -0.09,1.73 -0.14,2.61c-1.18,21.08 -2.41,42.16 -3.82,63.22c-0.27,4.01 -0.53,8.02 -0.78,12.03c-0.25,3.99 -0.52,7.98 -0.79,11.97c-0.1,1.49 -0.19,2.99 -0.28,4.49c-0.13,2.06 -0.27,4.11 -0.42,6.17c-0.07,1.17 -0.15,2.33 -0.23,3.53c-0.57,3.18 -1.28,4.69 -3.54,6.98c-2.21,0.35 -2.21,0.35 -4.86,0.13c-1.01,-0.08 -2.02,-0.15 -3.07,-0.23c-1.11,-0.11 -2.23,-0.22 -3.38,-0.34c-1.18,-0.1 -2.36,-0.2 -3.58,-0.31c-74.33,-6.92 -147.3,-24.63 -304.11,-100.25c-0.98,-0.61 -1.96,-1.22 -2.98,-1.86c-12.92,-8.08 -25.58,-16.41 -37.81,-25.5c-2.34,-1.74 -4.69,-3.45 -7.04,-5.17c-4,-2.91 -7.97,-5.85 -11.93,-8.81c-1.47,-1.09 -2.94,-2.17 -4.42,-3.25c-1.99,-1.45 -3.97,-2.93 -5.94,-4.41c-0.59,-0.42 -1.17,-0.84 -1.78,-1.27c-2.56,-1.96 -4.03,-3.58 -5.37,-6.52c0.43,-5.05 3.42,-7.78 6.71,-11.46c1.31,-1.52 2.62,-3.05 3.93,-4.57c0.63,-0.73 1.27,-1.45 1.92,-2.2c1.99,-2.3 3.9,-4.65 5.78,-7.04c3.34,-4.21 6.73,-8.39 10.12,-12.56c0.56,-0.68 1.11,-1.37 1.68,-2.07c2.82,-3.47 5.65,-6.94 8.47,-10.4c6.12,-7.51 12.17,-15.06 18.14,-22.69c3.47,-4.43 6.99,-8.83 10.52,-13.22c-7.92,-7.33 -7.92,-7.33 -16,-14.5c-9.9,-8.61 -19.33,-17.67 -28.59,-26.96c-1.86,-1.87 -3.73,-3.73 -5.6,-5.59c-1.21,-1.21 -2.41,-2.42 -3.62,-3.62c-0.54,-0.55 -1.09,-1.1 -1.66,-1.66c-3.38,-3.41 -6.5,-6.94 -9.53,-10.67c-5.48,3.9 -10.44,8.18 -15.36,12.76c-3.28,3.05 -6.64,5.94 -10.14,8.74c-3.97,3.2 -7.76,6.53 -11.5,10c-4.58,4.27 -9.33,8.26 -14.22,12.19c-3.54,2.95 -6.9,6.07 -10.28,9.21c-4.25,3.94 -8.69,7.61 -13.22,11.23c-2.26,1.73 -2.26,1.73 -3.71,3.62c-1.57,1.25 -1.57,1.25 -4.42,1.78c-4.18,-0.7 -5.93,-2.78 -8.52,-5.9c-0.72,-0.83 -0.72,-0.83 -1.45,-1.67c-1.41,-1.64 -2.8,-3.29 -4.18,-4.96c-0.66,-0.79 -1.31,-1.58 -1.99,-2.39c-2.04,-2.51 -4.02,-5.05 -6.01,-7.61c-1.05,-1.33 -2.1,-2.66 -3.15,-3.99c-21.68,-27.56 -41.3,-56.64 -58.85,-87.01c-0.68,-1.18 -0.68,-1.18 -1.37,-2.38c-2.97,-5.16 -5.82,-10.37 -8.63,-15.62c-0.52,-0.96 -1.03,-1.93 -1.57,-2.92c-14.03,-26.23 -25.96,-53.23 -36.43,-81.08c-0.42,-1.12 -0.84,-2.24 -1.28,-3.4c-17.04,-45.41 -28.37,-92.67 -35.53,-140.6c-0.1,-0.69 -0.21,-1.39 -0.32,-2.11c-1.1,-7.38 -2.05,-14.77 -2.69,-22.2c-0.11,-1.21 -0.22,-2.43 -0.33,-3.68c0.15,-3.01 0.15,-3.01 1.39,-4.65c2.14,-1.65 3.47,-1.87 6.15,-2.14c0.89,-0.09 1.79,-0.19 2.71,-0.29c0.98,-0.09 1.96,-0.18 2.97,-0.28c1.04,-0.11 2.07,-0.21 3.14,-0.32c3.42,-0.36 6.85,-0.69 10.27,-1.03c2.38,-0.24 4.75,-0.48 7.12,-0.72c6.25,-0.64 12.5,-1.26 18.75,-1.88c6.37,-0.64 12.75,-1.29 19.12,-1.93c12.51,-1.27 25.02,-2.53 37.53,-3.77c-0.06,-0.8 -0.12,-1.6 -0.18,-2.43c-1.25,-17.22 -2.13,-34.33 -2.02,-51.61c0.02,-3.21 0.02,-6.43 0.02,-9.64c0.02,-9.83 0.1,-19.55 1.18,-29.32c-0.78,0.02 -1.56,0.03 -2.36,0.05c-10.56,0.11 -21.01,-0.57 -31.54,-1.32c-1.88,-0.14 -3.77,-0.27 -5.66,-0.4c-3.93,-0.28 -7.87,-0.56 -11.8,-0.84c-5.02,-0.36 -10.04,-0.71 -15.07,-1.06c-3.89,-0.27 -7.78,-0.54 -11.67,-0.82c-1.85,-0.13 -3.7,-0.26 -5.55,-0.39c-2.59,-0.18 -5.18,-0.37 -7.77,-0.55c-0.75,-0.06 -1.5,-0.11 -2.28,-0.16c-2.1,-0.15 -4.2,-0.32 -6.3,-0.51c-0.74,-0.06 -1.47,-0.13 -2.24,-0.19c-5.52,-0.57 -5.52,-0.57 -7.76,-2.81c-0.04,-2.84 0.05,-5.56 0.25,-8.39c0.05,-0.85 0.1,-1.7 0.16,-2.57c0.61,-9.29 1.6,-18.54 2.72,-27.79c0.16,-1.34 0.16,-1.34 0.32,-2.72c9.8,-80.76 33.63,-158.83 134.55,-332.53c0.95,-1.25 1.89,-2.49 2.83,-3.74c2.35,-3.12 4.76,-6.19 7.17,-9.26c0.97,-1.27 0.97,-1.27 1.96,-2.57c0.89,-1.11 0.89,-1.11 1.79,-2.24c0.49,-0.63 0.98,-1.25 1.49,-1.89c1.76,-1.3 1.76,-1.3 4.59,-1.8c4.1,0.65 6.25,2.58 9.17,5.31c1.15,1.03 2.3,2.05 3.46,3.07c0.58,0.52 1.17,1.04 1.78,1.58c2.75,2.4 5.62,4.63 8.51,6.85c6.02,4.68 11.91,9.49 17.78,14.35c9.95,8.23 19.98,16.37 30.08,24.42c4.49,3.61 8.94,7.27 13.39,10.92c3.56,-3.51 7.01,-7.11 10.38,-10.81c0.44,-0.48 0.89,-0.97 1.34,-1.46c2.59,-2.83 5.13,-5.69 7.64,-8.59c3.74,-4.28 7.61,-8.44 11.52,-12.58c0.7,-0.74 1.4,-1.48 2.13,-2.25c7.37,-7.79 14.81,-15.35 22.99,-22.31c1.34,-1.14 2.67,-2.29 4,-3.44c0.99,-0.84 1.98,-1.69 3,-2.56c-1.42,-4.46 -3.86,-7.33 -7.06,-10.62c-3.63,-3.85 -7.12,-7.74 -10.44,-11.88c-3.63,-4.52 -7.46,-8.78 -11.41,-13.02c-2.97,-3.21 -5.79,-6.5 -8.52,-9.92c-3.37,-4.18 -6.9,-8.14 -10.57,-12.06c-4.55,-4.86 -8.86,-9.85 -13.01,-15.06c-1.79,-2.2 -3.67,-4.25 -5.61,-6.31c-2.38,-3.13 -2.38,-3.13 -2.69,-5.63c4.08,-7.77 12.59,-13.16 19.31,-18.5c1.02,-0.81 2.04,-1.62 3.09,-2.45c2.93,-2.33 5.87,-4.63 8.83,-6.93c1.46,-1.13 2.92,-2.27 4.37,-3.41c12.93,-10.12 26.23,-19.47 39.99,-28.43c2.42,-1.58 4.84,-3.17 7.25,-4.77c77.97,-51.42 167.32,-85.21 285.97,-105.38c1.23,-0.17 2.46,-0.34 3.72,-0.51c16.7,-2.16 16.7,-2.16 20.78,-0.12c2.73,10.94 3.17,22.84 4.39,34.04c0.22,2.01 0.44,4.02 0.66,6.03c0.46,4.19 0.92,8.38 1.38,12.57c0.58,5.37 1.17,10.74 1.77,16.11c0.45,4.15 0.91,8.29 1.36,12.43c0.22,1.98 0.43,3.96 0.65,5.94c0.31,2.76 0.61,5.52 0.91,8.28c0.13,1.23 0.13,1.23 0.27,2.47c0.37,3.41 0.61,6.7 0.61,10.13c0.62,-0.06 1.23,-0.12 1.87,-0.18c18.38,-1.73 36.62,-2.1 55.06,-2.01c2.88,0.01 5.77,0.01 8.65,0.01c2.81,0 5.63,0 8.44,0.01c1.96,0 3.92,0.01 5.87,0.01c6.46,0.03 12.72,0.3 19.11,1.16c-0.01,-0.78 -0.03,-1.56 -0.04,-2.36c-0.11,-10.54 0.55,-20.96 1.29,-31.47c0.13,-1.88 0.26,-3.76 0.38,-5.65c0.28,-3.92 0.55,-7.84 0.83,-11.77c0.35,-5 0.69,-10.01 1.03,-15.01c0.27,-3.88 0.54,-7.77 0.81,-11.65c0.13,-1.84 0.26,-3.69 0.38,-5.53c1.29,-18.93 1.29,-18.93 3.32,-26.56c2.87,-1.43 5.04,-0.91 8.23,-0.65z" fill="#012133" id="svg_1" transform="matrix(1 0 0 1 0 0)"/>
  <path d="m2365,539c48.02,-0.07 96.04,-0.12 144.06,-0.15c5.66,-0.01 11.33,-0.01 17,-0.01c1.69,-0.01 1.69,-0.01 3.42,-0.01c18.27,-0.01 36.55,-0.03 54.83,-0.06c18.74,-0.03 37.49,-0.05 56.24,-0.05c11.57,-0.01 23.15,-0.02 34.72,-0.04c7.93,-0.02 15.86,-0.02 23.79,-0.02c4.58,0 9.16,0 13.74,-0.02c4.19,-0.01 8.38,-0.01 12.58,0c1.51,0 3.03,-0.01 4.54,-0.01c17.09,-0.1 17.09,-0.1 22.59,4.68c7.65,8.4 6.7,20.43 6.73,31.07c0.01,2.09 0.04,4.18 0.07,6.27c0.2,25.2 -8.88,48.09 -26.31,66.35c-5.05,5.04 -10.47,9.37 -16.19,13.63c-10.23,7.64 -19.32,17.08 -27.51,26.85c-2.76,3.22 -2.76,3.22 -4.3,4.52c-5.43,-0.43 -5.43,-0.43 -7,-2c-0.11,-1.51 -0.16,-3.02 -0.17,-4.53c-0.02,-0.96 -0.03,-1.93 -0.04,-2.92c-0.02,-1.59 -0.02,-1.59 -0.04,-3.2c-0.03,-2.22 -0.06,-4.45 -0.1,-6.67c-0.04,-3.52 -0.09,-7.03 -0.13,-10.54c-0.04,-3.39 -0.09,-6.78 -0.14,-10.16c-0.01,-1.55 -0.01,-1.55 -0.03,-3.14c-0.16,-9.98 -0.47,-19.15 -7.35,-26.84c-3.85,-2.79 -8.35,-2.29 -12.91,-2.28c-0.91,0 -1.82,-0.01 -2.76,-0.02c-3.05,-0.01 -6.11,-0.02 -9.16,-0.02c-2.19,-0.01 -4.38,-0.02 -6.57,-0.03c-5.94,-0.03 -11.89,-0.04 -17.83,-0.05c-6.22,-0.02 -12.43,-0.05 -18.64,-0.07c-10.43,-0.04 -20.85,-0.08 -31.28,-0.11c-10.74,-0.03 -21.48,-0.06 -32.22,-0.1c-0.67,-0.01 -1.34,-0.01 -2.03,-0.01c-5.82,-0.02 -11.63,-0.04 -17.45,-0.07c-25.05,-0.09 -50.1,-0.16 -75.15,-0.24c0,52.8 0,105.6 0,160c32.22,-0.05 32.22,-0.05 65.09,-0.11c13.59,-0.01 27.17,-0.03 40.76,-0.04c7.13,0 14.27,-0.01 21.4,-0.01c0.9,-0.01 1.79,-0.01 2.71,-0.01c14.44,-0.01 28.87,-0.03 43.31,-0.06c14.81,-0.03 29.63,-0.05 44.44,-0.05c9.14,-0.01 18.28,-0.02 27.42,-0.04c6.27,-0.02 12.54,-0.02 18.81,-0.02c3.62,0 7.24,0 10.85,-0.02c3.93,-0.01 7.85,-0.01 11.78,0c1.7,-0.01 1.7,-0.01 3.44,-0.03c7.43,0.04 14.81,0.37 20.43,5.7c3.25,5.6 3.86,10.75 3.83,17.13c0,0.81 0,1.61 0,2.44c0,1.7 0,3.4 -0.01,5.09c-0.01,2.56 0,5.12 0.01,7.67c0.03,27.8 0.03,27.8 -7.83,36.05c-10.31,7.86 -25.98,6.46 -38.24,6.46c-1.67,0 -1.67,0 -3.37,0.01c-3.69,0.01 -7.38,0.01 -11.07,0.02c-2.66,0 -5.32,0.01 -7.98,0.02c-7.95,0.02 -15.89,0.03 -23.84,0.04c-3,0 -6,0 -9,0.01c-13.24,0.02 -26.48,0.03 -39.73,0.04c-3.23,0 -6.46,0 -9.69,0.01c-0.8,0 -1.6,0 -2.43,0c-13.01,0 -26.03,0.03 -39.04,0.06c-13.39,0.04 -26.79,0.05 -40.18,0.06c-7.51,0 -15.01,0.01 -22.52,0.03c-6.39,0.03 -12.78,0.03 -19.17,0.02c-3.25,0 -6.5,0 -9.76,0.02c-32.12,0.16 -32.12,0.16 -44.42,-10.49c-2.38,-2.44 -4.65,-4.94 -6.86,-7.54c-4.48,-5.16 -9.42,-9.37 -14.76,-13.58c-27.5,-22.14 -41.87,-49.94 -46.78,-84.7c-1.53,-14.19 -1.03,-28.83 0.12,-43.02c1.32,-16.31 1.52,-32.54 1.42,-48.9c-0.02,-3.65 -0.03,-7.3 -0.04,-10.95c-0.02,-9.21 -0.06,-18.42 -0.1,-27.62c-0.04,-10.02 -0.09,-20.04 -0.11,-30.07c-0.01,-4.32 -0.03,-8.63 -0.05,-12.95c-0.02,-2.03 -0.02,-4.07 -0.03,-6.1c0,-2.46 -0.02,-4.93 -0.04,-7.39c0,-1.1 0,-2.2 0,-3.33c0,-0.94 -0.01,-1.88 -0.01,-2.85c0.31,-3.84 1.23,-7.29 2.24,-11z" fill="#012133" id="svg_2"/>
  <path d="m0,0c0.64,0.05 1.28,0.1 1.95,0.16c2.15,0.17 4.3,0.36 6.45,0.55c1.12,0.1 1.12,0.1 2.27,0.21c56.87,5.15 112.29,18.19 166.12,37.04c1.86,0.65 3.73,1.3 5.6,1.94c40.36,14.02 80.07,32.83 116.58,55.04c2.96,1.81 5.94,3.59 8.92,5.37c5.66,3.4 11.28,6.85 16.88,10.34c0.75,0.46 1.49,0.92 2.26,1.39c1.91,1.18 3.8,2.39 5.68,3.61c1.5,0.96 1.5,0.96 3.03,1.94c2.03,2.06 2.03,2.06 2.69,5.03c-0.9,4.18 -2.57,5.13 -6.03,7.59c-0.87,0.63 -0.87,0.63 -1.75,1.28c-1.27,0.91 -2.55,1.82 -3.83,2.72c-2.1,1.48 -4.18,2.98 -6.25,4.49c-3.01,2.18 -6.03,4.36 -9.06,6.53c-7.16,5.16 -14.25,10.41 -21.35,15.66c-3.96,2.92 -7.92,5.84 -11.89,8.76c-1.58,1.17 -3.16,2.34 -4.75,3.5c-9.5,7 -19,14 -28.5,21c-0.78,0.58 -1.56,1.16 -2.37,1.75c-1.58,1.17 -3.17,2.33 -4.75,3.5c-3.97,2.93 -7.94,5.86 -11.91,8.79c-7.77,5.74 -15.56,11.45 -23.4,17.09c-6.32,4.54 -12.57,9.17 -18.78,13.85c-5.71,4.31 -11.51,8.49 -17.33,12.67c-4.94,3.56 -9.84,7.18 -14.71,10.85c-7.92,5.98 -15.91,11.88 -24.05,17.56c-1.94,1.38 -1.94,1.38 -3.5,2.93c-3.88,3.52 -6.99,3.77 -12.18,3.68c-0.66,0 -1.32,-0.01 -2,-0.02c-7.48,-0.12 -14.95,-0.44 -22.42,-0.79c-1.57,-0.07 -3.14,-0.14 -4.71,-0.2c-4.28,-0.19 -8.56,-0.39 -12.83,-0.58c-4.63,-0.21 -9.26,-0.41 -13.88,-0.62c-9.05,-0.4 -18.1,-0.81 -27.14,-1.22c-7.35,-0.33 -14.7,-0.66 -22.05,-0.99c-1.05,-0.04 -2.1,-0.09 -3.18,-0.14c-2.13,-0.09 -4.26,-0.19 -6.39,-0.28c-19.93,-0.9 -39.87,-1.79 -59.8,-2.69c-17.1,-0.77 -34.21,-1.54 -51.31,-2.3c-19.88,-0.89 -39.76,-1.78 -59.64,-2.67c-2.12,-0.1 -4.24,-0.19 -6.35,-0.29c-1.05,-0.04 -2.09,-0.09 -3.16,-0.14c-7.35,-0.33 -14.7,-0.66 -22.04,-0.98c-8.95,-0.4 -17.89,-0.8 -26.84,-1.21c-4.56,-0.21 -9.12,-0.41 -13.69,-0.61c-4.17,-0.19 -8.35,-0.38 -12.53,-0.57c-1.51,-0.07 -3.02,-0.13 -4.53,-0.2c-2.05,-0.09 -4.11,-0.18 -6.16,-0.28c-1.14,-0.05 -2.28,-0.1 -3.46,-0.15c-3.1,-0.23 -6.1,-0.68 -9.16,-1.24c-0.2,0.85 -0.2,0.85 -0.42,1.71c-2.57,9.94 -5.99,19.59 -9.33,29.29c-0.67,1.96 -1.34,3.92 -2.01,5.88c-4.81,14.05 -9.7,28.07 -14.6,42.09c-5.3,15.14 -10.49,30.32 -15.65,45.51c-5.06,14.92 -10.21,29.8 -15.41,44.67c-5.29,15.08 -10.45,30.2 -15.59,45.33c-4.74,13.97 -9.55,27.91 -14.42,41.83c-5.45,15.54 -10.79,31.1 -16.07,46.69c-5.57,16.46 -11.22,32.89 -16.97,49.29c-5.79,16.53 -11.45,33.11 -17.07,49.7c-0.32,0.93 -0.64,1.86 -0.96,2.82c-0.62,1.82 -1.23,3.64 -1.84,5.46c-1.45,4.27 -2.93,8.51 -4.52,12.73c-0.29,0.78 -0.58,1.56 -0.88,2.37c-0.55,1.46 -1.11,2.91 -1.68,4.35c-1.41,3.73 -1.41,3.73 -0.87,7.58c1.96,2.58 4.13,4.93 6.36,7.26c3.6,3.86 7.07,7.76 10.37,11.88c3.93,4.89 8.11,9.49 12.4,14.06c2.88,3.06 5.59,6.19 8.16,9.5c8.6,-3.84 15.67,-11.54 22.52,-17.91c4.11,-3.8 8.41,-7.33 12.77,-10.84c2.82,-2.34 5.52,-4.77 8.21,-7.25c3.56,-3.27 7.18,-6.4 10.94,-9.44c4.54,-3.65 8.82,-7.51 13.08,-11.47c4.09,-3.78 8.36,-7.28 12.7,-10.78c3.02,-2.51 5.91,-5.13 8.78,-7.81c4.61,-4.29 9.38,-8.3 14.29,-12.25c2.82,-2.34 5.52,-4.77 8.21,-7.25c3.56,-3.27 7.18,-6.4 10.94,-9.44c4.54,-3.65 8.82,-7.51 13.08,-11.47c4.09,-3.78 8.36,-7.28 12.7,-10.78c3.02,-2.51 5.91,-5.13 8.78,-7.81c4.61,-4.29 9.38,-8.3 14.29,-12.25c2.82,-2.34 5.52,-4.77 8.21,-7.25c3.56,-3.27 7.18,-6.4 10.94,-9.44c4.54,-3.65 8.82,-7.51 13.08,-11.47c4.09,-3.78 8.36,-7.28 12.7,-10.78c3.02,-2.51 5.91,-5.13 8.78,-7.81c4.6,-4.28 9.36,-8.29 14.27,-12.22c1.96,-1.64 3.83,-3.27 5.69,-5.02c0.49,-0.46 0.98,-0.92 1.48,-1.39c1.36,-1.29 2.71,-2.6 4.06,-3.9c2.71,-2.13 4.06,-3.01 7.5,-2.97c3.82,2.43 6.42,5.53 9.19,9.06c3.15,3.94 6.39,7.73 9.81,11.44c3.28,3.56 6.41,7.17 9.44,10.94c3.22,3.99 6.57,7.81 10.06,11.56c4.29,4.61 8.31,9.38 12.26,14.29c2.33,2.82 4.76,5.52 7.24,8.21c3.28,3.56 6.41,7.17 9.44,10.94c3.66,4.54 7.51,8.82 11.48,13.08c3.78,4.09 7.28,8.36 10.77,12.7c2.51,3.02 5.14,5.91 7.81,8.78c4.29,4.61 8.31,9.38 12.26,14.29c2.33,2.82 4.76,5.52 7.24,8.21c3.28,3.56 6.41,7.17 9.44,10.94c3.66,4.54 7.51,8.82 11.48,13.08c3.78,4.09 7.28,8.36 10.77,12.7c2.51,3.02 5.14,5.91 7.81,8.78c4.29,4.61 8.31,9.38 12.26,14.29c2.33,2.82 4.76,5.52 7.24,8.21c3.28,3.56 6.41,7.17 9.44,10.94c3.22,3.99 6.57,7.81 10.06,11.56c4.28,4.6 8.3,9.35 12.22,14.27c1.65,1.97 3.29,3.81 5.06,5.65c0.47,0.49 0.93,0.97 1.41,1.47c1.3,1.35 2.62,2.68 3.94,4.01c1.87,2.6 1.87,2.6 2.51,5.56c-0.88,4.22 -3.28,6.18 -6.45,8.85c-0.88,0.79 -0.88,0.79 -1.79,1.58c-4.47,3.92 -9.08,7.68 -13.72,11.4c-2.81,2.32 -5.49,4.74 -8.18,7.21c-3.55,3.28 -7.17,6.41 -10.93,9.44c-4.54,3.66 -8.82,7.51 -13.09,11.48c-4.08,3.78 -8.36,7.28 -12.7,10.77c-3.02,2.51 -5.9,5.14 -8.78,7.81c-4.61,4.29 -9.37,8.31 -14.28,12.26c-2.82,2.33 -5.52,4.76 -8.22,7.24c-3.55,3.28 -7.17,6.41 -10.93,9.44c-4.54,3.66 -8.82,7.51 -13.09,11.48c-4.08,3.78 -8.36,7.28 -12.7,10.77c-3.02,2.51 -5.9,5.14 -8.78,7.81c-4.61,4.29 -9.37,8.31 -14.28,12.26c-2.82,2.33 -5.52,4.76 -8.22,7.24c-3.55,3.28 -7.17,6.41 -10.93,9.44c-4,3.22 -7.81,6.57 -11.57,10.06c-4.61,4.29 -9.37,8.31 -14.28,12.26c-2.82,2.33 -5.52,4.76 -8.22,7.24c-3.55,3.28 -7.17,6.41 -10.93,9.44c-4.53,3.65 -8.82,7.49 -13.06,11.46c-4.27,3.95 -8.73,7.57 -13.33,11.13c-2.11,1.92 -3.13,3.35 -4.18,5.97c4.66,5.85 9.41,11.53 14.5,17c4.22,4.53 8.2,9.19 12.04,14.04c1.22,1.47 1.22,1.47 2.46,2.96c0.59,0.84 1.19,1.67 1.79,2.53c3.99,5.41 3.99,5.41 9.92,7.93c3.18,-0.38 6.11,-1.07 9.19,-1.91c2.43,-0.56 4.85,-1.12 7.28,-1.67c1.92,-0.47 1.92,-0.47 3.87,-0.95c5.99,-1.44 12.04,-2.53 18.1,-3.66c3.67,-0.69 7.33,-1.41 11,-2.12c1.54,-0.31 3.09,-0.61 4.64,-0.91c1.18,-0.23 1.18,-0.23 2.38,-0.46c4.2,-0.82 8.4,-1.63 12.6,-2.45c7.26,-1.41 14.52,-2.82 21.78,-4.24c10.58,-2.05 21.15,-4.11 31.72,-6.16c17.25,-3.36 34.51,-6.71 51.76,-10.07c16.58,-3.22 33.15,-6.45 49.73,-9.67c1.02,-0.2 2.03,-0.4 3.08,-0.6c7.13,-1.39 14.27,-2.77 21.4,-4.16c8.04,-1.56 16.08,-3.13 24.12,-4.69c0.98,-0.19 1.96,-0.38 2.97,-0.58c10.56,-2.05 21.11,-4.1 31.67,-6.16c0.91,-0.18 1.83,-0.35 2.77,-0.54c4.54,-0.88 9.08,-1.76 13.62,-2.64c8.68,-1.69 17.37,-3.38 26.05,-5.07c3.33,-0.65 6.66,-1.29 10,-1.94c1.21,-0.24 1.21,-0.24 2.46,-0.48c10.71,-2.08 21.41,-4.17 32.12,-6.26c5.56,-1.09 11.13,-2.18 16.69,-3.26c4.43,-0.87 8.85,-1.73 13.27,-2.6c3.3,-0.65 6.6,-1.29 9.9,-1.93c1.77,-0.35 1.77,-0.35 3.58,-0.71c1.08,-0.21 2.15,-0.42 3.26,-0.63c0.93,-0.18 1.86,-0.37 2.82,-0.55c2.46,-0.39 2.46,-0.39 6.46,-0.39c-0.01,-0.73 -0.02,-1.46 -0.04,-2.22c-0.09,-9.53 0.5,-18.94 1.19,-28.44c0.13,-1.76 0.25,-3.52 0.38,-5.28c0.34,-4.81 0.69,-9.62 1.04,-14.42c0.37,-5.2 0.74,-10.4 1.11,-15.59c0.9,-12.52 1.8,-25.04 2.71,-37.56c0.42,-5.9 0.85,-11.8 1.28,-17.7c1.41,-19.61 2.83,-39.23 4.25,-58.84c0.37,-5.07 0.74,-10.15 1.11,-15.23c0.09,-1.27 0.18,-2.53 0.28,-3.83c1.48,-20.49 2.96,-40.98 4.42,-61.47c1.51,-21.05 3.02,-42.09 4.56,-63.14c0.86,-11.81 1.71,-23.62 2.55,-35.44c0.71,-10.05 1.44,-20.1 2.18,-30.15c0.38,-5.12 0.75,-10.25 1.11,-15.38c0.32,-4.69 0.67,-9.39 1.02,-14.08c0.13,-1.7 0.25,-3.4 0.36,-5.1c0.16,-2.3 0.33,-4.61 0.52,-6.91c0.09,-1.28 0.18,-2.57 0.28,-3.89c1.22,-5.86 5.08,-8.84 9.63,-12.39c4.36,-3.49 8.49,-7.12 12.56,-10.94c4.76,-4.46 9.67,-8.64 14.76,-12.72c3.01,-2.5 5.88,-5.12 8.74,-7.78c3.71,-3.45 7.49,-6.76 11.44,-9.94c4.19,-3.36 8.15,-6.89 12.06,-10.56c4.76,-4.46 9.67,-8.64 14.76,-12.72c3.01,-2.5 5.88,-5.12 8.74,-7.78c3.71,-3.45 7.49,-6.76 11.44,-9.94c4.19,-3.36 8.15,-6.89 12.06,-10.56c4.76,-4.46 9.67,-8.64 14.76,-12.72c3.01,-2.5 5.88,-5.12 8.74,-7.78c3.71,-3.45 7.49,-6.76 11.44,-9.94c4.19,-3.36 8.15,-6.89 12.06,-10.56c4.78,-4.47 9.68,-8.68 14.8,-12.75c1.96,-1.63 3.79,-3.26 5.62,-5.02c0.49,-0.47 0.97,-0.93 1.47,-1.41c1.35,-1.3 2.68,-2.62 4.01,-3.95c3.12,-2.24 4.84,-2.26 8.6,-1.87c30.11,51.5 51.28,108.31 66,166c0.19,0.71 0.37,1.43 0.55,2.16c18.59,73.21 18.59,73.21 16.45,97.84c-1.52,1.98 -2.52,2.87 -4.95,3.54c-0.74,0.08 -1.49,0.15 -2.25,0.23c-0.86,0.1 -1.72,0.19 -2.6,0.29c-0.94,0.09 -1.87,0.18 -2.84,0.28c-0.99,0.1 -1.97,0.21 -2.99,0.32c-3.28,0.35 -6.55,0.68 -9.83,1.01c-2.27,0.24 -4.55,0.48 -6.82,0.72c-5.99,0.63 -11.98,1.25 -17.97,1.86c-8.45,0.87 -16.89,1.75 -25.33,2.64c-4.49,0.47 -8.99,0.94 -13.49,1.4c-2.05,0.21 -4.1,0.42 -6.16,0.64c-0.93,0.09 -1.87,0.19 -2.83,0.28c-0.86,0.09 -1.72,0.18 -2.6,0.27c-0.75,0.08 -1.49,0.16 -2.26,0.24c-2.08,0.28 -4.05,0.73 -6.08,1.28c0.09,0.86 0.09,0.86 0.19,1.74c1.9,19.2 2.01,38.36 2,57.64c0,1.3 0,2.61 0,3.95c0,3.78 -0.01,7.55 -0.02,11.32c0,1.14 0,2.28 0,3.46c-0.03,5.4 -0.21,10.57 -1.17,15.89c0.75,-0.01 1.49,-0.03 2.26,-0.05c11.58,-0.13 23.08,0.66 34.63,1.44c1.61,0.11 1.61,0.11 3.25,0.22c5.67,0.38 11.33,0.77 17,1.16c5.84,0.41 11.69,0.79 17.54,1.17c4.51,0.29 9.01,0.6 13.52,0.92c2.16,0.15 4.32,0.29 6.47,0.42c3.01,0.19 6.01,0.41 9.01,0.63c0.89,0.05 1.78,0.1 2.7,0.15c3.85,0.3 6.02,0.5 9.19,2.83c2.04,3.01 1.72,4.94 1.38,8.53c-0.12,1.32 -0.24,2.63 -0.36,3.99c-0.15,1.45 -0.3,2.89 -0.46,4.34c-0.15,1.52 -0.3,3.04 -0.45,4.56c-8.29,80.89 -30.71,159.13 -98.68,291.69c-0.64,1.06 -1.28,2.11 -1.94,3.2c-8.52,13.96 -17.47,27.55 -27.06,40.8c-0.59,0.82 -1.18,1.64 -1.79,2.48c-7.51,10.35 -15.18,20.57 -23.21,30.52c-0.39,0.57 -0.79,1.14 -1.2,1.72c-2.03,2.76 -3.29,4.15 -6.65,5.01c-4.48,-1.04 -7.06,-3.42 -10.46,-6.42c-1.42,-1.2 -2.85,-2.4 -4.27,-3.6c-0.73,-0.62 -1.46,-1.24 -2.21,-1.88c-3.46,-2.87 -7.05,-5.56 -10.64,-8.27c-6.64,-5.01 -13.08,-10.22 -19.47,-15.54c-5.16,-4.28 -10.42,-8.38 -15.76,-12.44c-4.69,-3.59 -9.23,-7.35 -13.78,-11.11c-3.73,-3.07 -7.49,-5.87 -11.56,-8.47c-6.84,7.48 -6.84,7.48 -13.56,15.06c-1.14,1.32 -2.29,2.63 -3.44,3.94c-0.85,0.99 -0.85,0.99 -1.73,2c-7.47,8.47 -15.51,16.36 -23.52,24.31c-1.46,1.46 -2.91,2.91 -4.37,4.37c-2.67,2.66 -5.34,5.32 -8.01,7.98c-2.8,2.77 -5.58,5.56 -8.37,8.34c8.24,9.69 8.24,9.69 16.69,19.19c3.01,3.31 5.88,6.7 8.69,10.19c3.68,4.55 7.55,8.86 11.54,13.14c3.78,4.09 7.28,8.36 10.77,12.7c2.53,3.04 5.18,5.95 7.88,8.84c3.44,3.74 6.85,7.49 10.12,11.38c0.64,0.76 1.29,1.52 1.95,2.31c1.69,2.79 2.03,4.05 1.36,7.25c-2.13,2.51 -2.13,2.51 -5.12,5.13c-0.54,0.47 -1.08,0.95 -1.63,1.44c-5.06,4.39 -10.32,8.53 -15.62,12.62c-3.07,2.37 -6.08,4.79 -9.08,7.24c-8.57,6.96 -17.43,13.36 -26.55,19.57c-1.62,1.11 -1.62,1.11 -3.28,2.24c-22.59,15.36 -45.63,29.84 -69.72,42.76c-1.33,0.72 -1.33,0.72 -2.69,1.46c-74.65,40.2 -157.27,65.06 -243.54,75.71c-0.69,0.08 -1.39,0.17 -2.1,0.26c-3.91,0.45 -7.74,0.84 -11.67,0.57c-2.4,-2.4 -2.35,-3.28 -2.7,-6.59c-0.1,-0.96 -0.2,-1.93 -0.31,-2.92c-0.11,-1.06 -0.21,-2.12 -0.32,-3.21c-0.12,-1.11 -0.23,-2.22 -0.35,-3.36c-0.39,-3.66 -0.76,-7.32 -1.13,-10.98c-0.26,-2.52 -0.52,-5.04 -0.79,-7.57c-1.32,-12.63 -2.59,-25.28 -3.87,-37.92c-0.11,-1.13 -0.23,-2.27 -0.34,-3.44c-0.55,-5.42 -1.09,-10.83 -1.63,-16.25c-0.19,-1.93 -0.38,-3.87 -0.58,-5.81c-0.08,-0.89 -0.17,-1.77 -0.25,-2.68c-0.34,-4.27 -0.34,-4.27 -1.73,-8.27c-0.59,0.06 -1.19,0.12 -1.8,0.19c-18.5,1.78 -36.93,2.01 -55.51,2c-1.81,0 -1.81,0 -3.65,0c-3.49,0 -6.98,-0.01 -10.46,-0.02c-1.05,0 -2.1,0 -3.18,0c-5.55,-0.04 -10.9,-0.35 -16.4,-1.17c-0.04,0.86 -0.09,1.73 -0.14,2.61c-1.18,21.08 -2.41,42.16 -3.82,63.22c-0.27,4.01 -0.53,8.02 -0.78,12.03c-0.25,3.99 -0.52,7.98 -0.79,11.97c-0.1,1.49 -0.19,2.99 -0.28,4.49c-0.13,2.06 -0.27,4.11 -0.42,6.17c-0.07,1.17 -0.15,2.33 -0.23,3.53c-0.57,3.18 -1.28,4.69 -3.54,6.98c-2.21,0.35 -2.21,0.35 -4.86,0.13c-1.01,-0.08 -2.02,-0.15 -3.07,-0.23c-1.11,-0.11 -2.23,-0.22 -3.38,-0.34c-1.18,-0.1 -2.36,-0.2 -3.58,-0.31c-74.33,-6.92 -147.3,-24.63 -304.11,-100.25c-0.98,-0.61 -1.96,-1.22 -2.98,-1.86c-12.92,-8.08 -25.58,-16.41 -37.81,-25.5c-2.34,-1.74 -4.69,-3.45 -7.04,-5.17c-4,-2.91 -7.97,-5.85 -11.93,-8.81c-1.47,-1.09 -2.94,-2.17 -4.42,-3.25c-1.99,-1.45 -3.97,-2.93 -5.94,-4.41c-0.59,-0.42 -1.17,-0.84 -1.78,-1.27c-2.56,-1.96 -4.03,-3.58 -5.37,-6.52c0.43,-5.05 3.42,-7.78 6.71,-11.46c1.31,-1.52 2.62,-3.05 3.93,-4.57c0.63,-0.73 1.27,-1.45 1.92,-2.2c1.99,-2.3 3.9,-4.65 5.78,-7.04c3.34,-4.21 6.73,-8.39 10.12,-12.56c0.56,-0.68 1.11,-1.37 1.68,-2.07c2.82,-3.47 5.65,-6.94 8.47,-10.4c6.12,-7.51 12.17,-15.06 18.14,-22.69c3.47,-4.43 6.99,-8.83 10.52,-13.22c-7.92,-7.33 -7.92,-7.33 -16,-14.5c-9.9,-8.61 -19.33,-17.67 -28.59,-26.96c-1.86,-1.87 -3.73,-3.73 -5.6,-5.59c-1.21,-1.21 -2.41,-2.42 -3.62,-3.62c-0.54,-0.55 -1.09,-1.1 -1.66,-1.66c-3.38,-3.41 -6.5,-6.94 -9.53,-10.67c-5.48,3.9 -10.44,8.18 -15.36,12.76c-3.28,3.05 -6.64,5.94 -10.14,8.74c-3.97,3.2 -7.76,6.53 -11.5,10c-4.58,4.27 -9.33,8.26 -14.22,12.19c-3.54,2.95 -6.9,6.07 -10.28,9.21c-4.25,3.94 -8.69,7.61 -13.22,11.23c-2.26,1.73 -2.26,1.73 -3.71,3.62c-1.57,1.25 -1.57,1.25 -4.42,1.78c-4.18,-0.7 -5.93,-2.78 -8.52,-5.9c-0.72,-0.83 -0.72,-0.83 -1.45,-1.67c-1.41,-1.64 -2.8,-3.29 -4.18,-4.96c-0.66,-0.79 -1.31,-1.58 -1.99,-2.39c-2.04,-2.51 -4.02,-5.05 -6.01,-7.61c-1.05,-1.33 -2.1,-2.66 -3.15,-3.99c-21.68,-27.56 -41.3,-56.64 -58.85,-87.01c-0.68,-1.18 -0.68,-1.18 -1.37,-2.38c-2.97,-5.16 -5.82,-10.37 -8.63,-15.62c-0.52,-0.96 -1.03,-1.93 -1.57,-2.92c-14.03,-26.23 -25.96,-53.23 -36.43,-81.08c-0.42,-1.12 -0.84,-2.24 -1.28,-3.4c-17.04,-45.41 -28.37,-92.67 -35.53,-140.6c-0.1,-0.69 -0.21,-1.39 -0.32,-2.11c-1.1,-7.38 -2.05,-14.77 -2.69,-22.2c-0.11,-1.21 -0.22,-2.43 -0.33,-3.68c0.15,-3.01 0.15,-3.01 1.39,-4.65c2.14,-1.65 3.47,-1.87 6.15,-2.14c0.89,-0.09 1.79,-0.19 2.71,-0.29c0.98,-0.09 1.96,-0.18 2.97,-0.28c1.04,-0.11 2.07,-0.21 3.14,-0.32c3.42,-0.36 6.85,-0.69 10.27,-1.03c2.38,-0.24 4.75,-0.48 7.12,-0.72c6.25,-0.64 12.5,-1.26 18.75,-1.88c6.37,-0.64 12.75,-1.29 19.12,-1.93c12.51,-1.27 25.02,-2.53 37.53,-3.77c-0.06,-0.8 -0.12,-1.6 -0.18,-2.43c-1.25,-17.22 -2.13,-34.33 -2.02,-51.61c0.02,-3.21 0.02,-6.43 0.02,-9.64c0.02,-9.83 0.1,-19.55 1.18,-29.32c-0.78,0.02 -1.56,0.03 -2.36,0.05c-10.56,0.11 -21.01,-0.57 -31.54,-1.32c-1.88,-0.14 -3.77,-0.27 -5.66,-0.4c-3.93,-0.28 -7.87,-0.56 -11.8,-0.84c-5.02,-0.36 -10.04,-0.71 -15.07,-1.06c-3.89,-0.27 -7.78,-0.54 -11.67,-0.82c-1.85,-0.13 -3.7,-0.26 -5.55,-0.39c-2.59,-0.18 -5.18,-0.37 -7.77,-0.55c-0.75,-0.06 -1.5,-0.11 -2.28,-0.16c-2.1,-0.15 -4.2,-0.32 -6.3,-0.51c-0.74,-0.06 -1.47,-0.13 -2.24,-0.19c-5.52,-0.57 -5.52,-0.57 -7.76,-2.81c-0.04,-2.84 0.05,-5.56 0.25,-8.39c0.05,-0.85 0.1,-1.7 0.16,-2.57c0.61,-9.29 1.6,-18.54 2.72,-27.79c0.16,-1.34 0.16,-1.34 0.32,-2.72c9.8,-80.76 33.63,-158.83 134.55,-332.53c0.95,-1.25 1.89,-2.49 2.83,-3.74c2.35,-3.12 4.76,-6.19 7.17,-9.26c0.97,-1.27 0.97,-1.27 1.96,-2.57c0.89,-1.11 0.89,-1.11 1.79,-2.24c0.49,-0.63 0.98,-1.25 1.49,-1.89c1.76,-1.3 1.76,-1.3 4.59,-1.8c4.1,0.65 6.25,2.58 9.17,5.31c1.15,1.03 2.3,2.05 3.46,3.07c0.58,0.52 1.17,1.04 1.78,1.58c2.75,2.4 5.62,4.63 8.51,6.85c6.02,4.68 11.91,9.49 17.78,14.35c9.95,8.23 19.98,16.37 30.08,24.42c4.49,3.61 8.94,7.27 13.39,10.92c3.56,-3.51 7.01,-7.11 10.38,-10.81c0.44,-0.48 0.89,-0.97 1.34,-1.46c2.59,-2.83 5.13,-5.69 7.64,-8.59c3.74,-4.28 7.61,-8.44 11.52,-12.58c0.7,-0.74 1.4,-1.48 2.13,-2.25c7.37,-7.79 14.81,-15.35 22.99,-22.31c1.34,-1.14 2.67,-2.29 4,-3.44c0.99,-0.84 1.98,-1.69 3,-2.56c-1.42,-4.46 -3.86,-7.33 -7.06,-10.62c-3.63,-3.85 -7.12,-7.74 -10.44,-11.88c-3.63,-4.52 -7.46,-8.78 -11.41,-13.02c-2.97,-3.21 -5.79,-6.5 -8.52,-9.92c-3.37,-4.18 -6.9,-8.14 -10.57,-12.06c-4.55,-4.86 -8.86,-9.85 -13.01,-15.06c-1.79,-2.2 -3.67,-4.25 -5.61,-6.31c-2.38,-3.13 -2.38,-3.13 -2.69,-5.63c4.08,-7.77 12.59,-13.16 19.31,-18.5c1.02,-0.81 2.04,-1.62 3.09,-2.45c2.93,-2.33 5.87,-4.63 8.83,-6.93c1.46,-1.13 2.92,-2.27 4.37,-3.41c12.93,-10.12 26.23,-19.47 39.99,-28.43c2.42,-1.58 4.84,-3.17 7.25,-4.77c77.97,-51.42 167.32,-85.21 285.97,-105.38c1.23,-0.17 2.46,-0.34 3.72,-0.51c16.7,-2.16 16.7,-2.16 20.78,-0.12c2.73,10.94 3.17,22.84 4.39,34.04c0.22,2.01 0.44,4.02 0.66,6.03c0.46,4.19 0.92,8.38 1.38,12.57c0.58,5.37 1.17,10.74 1.77,16.11c0.45,4.15 0.91,8.29 1.36,12.43c0.22,1.98 0.43,3.96 0.65,5.94c0.31,2.76 0.61,5.52 0.91,8.28c0.13,1.23 0.13,1.23 0.27,2.47c0.37,3.41 0.61,6.7 0.61,10.13c0.62,-0.06 1.23,-0.12 1.87,-0.18c18.38,-1.73 36.62,-2.1 55.06,-2.01c2.88,0.01 5.77,0.01 8.65,0.01c2.81,0 5.63,0 8.44,0.01c1.96,0 3.92,0.01 5.87,0.01c6.46,0.03 12.72,0.3 19.11,1.16c-0.01,-0.78 -0.03,-1.56 -0.04,-2.36c-0.11,-10.54 0.55,-20.96 1.29,-31.47c0.13,-1.88 0.26,-3.76 0.38,-5.65c0.28,-3.92 0.55,-7.84 0.83,-11.77c0.35,-5 0.69,-10.01 1.03,-15.01c0.27,-3.88 0.54,-7.77 0.81,-11.65c0.13,-1.84 0.26,-3.69 0.38,-5.53c1.29,-18.93 1.29,-18.93 3.32,-26.56c2.87,-1.43 5.04,-0.91 8.23,-0.65zm-1.23,8.65c-1.3,13.01 -2.41,26.01 -3.26,39.06c-0.18,2.79 -0.37,5.58 -0.55,8.37c-0.54,7.92 -1.07,15.84 -1.58,23.76c-0.32,4.88 -0.65,9.77 -0.98,14.66c-0.13,1.85 -0.25,3.7 -0.37,5.55c-0.16,2.57 -0.33,5.13 -0.51,7.7c-0.05,0.76 -0.09,1.52 -0.14,2.3c-0.26,3.65 -0.53,5.49 -2.61,8.6c-2.92,0.07 -5.63,-0.05 -8.53,-0.3c-1.83,-0.12 -3.67,-0.24 -5.5,-0.36c-0.97,-0.06 -1.94,-0.12 -2.95,-0.18c-9.47,-0.49 -18.97,-0.35 -28.45,-0.35c-1.14,0 -2.28,0 -3.45,0c-15.64,0 -31.14,0.36 -46.72,1.75c-4.83,0.43 -9.55,0.6 -14.4,0.44c-1.52,-1.52 -1.34,-3.06 -1.57,-5.18c-0.1,-0.9 -0.21,-1.8 -0.31,-2.73c-0.11,-1 -0.22,-2 -0.33,-3.02c-0.12,-1.05 -0.24,-2.09 -0.36,-3.17c-0.39,-3.46 -0.77,-6.93 -1.15,-10.4c-0.27,-2.4 -0.53,-4.8 -0.8,-7.19c-0.71,-6.33 -1.41,-12.65 -2.11,-18.98c-0.71,-6.45 -1.43,-12.89 -2.15,-19.34c-1.41,-12.66 -2.82,-25.33 -4.22,-37.99c-1.41,-0.01 -2.82,-0.02 -4.24,-0.03c-0.78,0 -1.57,-0.01 -2.38,-0.01c-3.66,0.07 -7.23,0.56 -10.85,1.11c-1.17,0.17 -1.17,0.17 -2.37,0.34c-2.56,0.38 -5.11,0.77 -7.66,1.15c-1.32,0.21 -1.32,0.21 -2.67,0.41c-17.44,2.66 -34.66,5.99 -51.83,10.03c-0.68,0.16 -1.35,0.32 -2.05,0.48c-35.46,8.28 -70.4,19.35 -103.95,33.52c-1.05,0.45 -2.1,0.89 -3.18,1.35c-67.79,28.83 -128.4,67.49 -184.82,114.65c4.07,5.77 8.59,10.87 13.4,16.01c3.98,4.26 7.68,8.7 11.33,13.25c2.49,3.01 5.11,5.88 7.77,8.74c4.27,4.59 8.26,9.34 12.19,14.22c2.95,3.55 6.07,6.91 9.21,10.28c3.94,4.26 7.61,8.69 11.23,13.23c1.74,2.26 1.74,2.26 3.69,3.77c1.18,1.5 1.18,1.5 1.32,3.75c-1.77,4.27 -4.97,6.78 -8.39,9.81c-1.08,1 -1.08,1 -2.19,2.02c-2.18,1.98 -4.36,3.95 -6.56,5.92c-9.54,8.58 -18.45,17.57 -27.15,27.01c-1.66,1.79 -3.32,3.58 -4.99,5.36c-6.64,7.13 -13.26,14.41 -18.8,22.45c-2.06,2.18 -2.06,2.18 -4.44,2.8c-3.65,-0.86 -5.86,-2.95 -8.55,-5.43c-1.15,-1.02 -2.31,-2.03 -3.46,-3.04c-0.59,-0.53 -1.19,-1.05 -1.8,-1.59c-2.89,-2.5 -5.91,-4.84 -8.93,-7.18c-5.02,-3.91 -9.98,-7.89 -14.9,-11.93c-3.67,-3.01 -7.35,-6.01 -11.04,-9.01c-0.69,-0.56 -1.39,-1.13 -2.1,-1.71c-4.36,-3.54 -8.73,-7.06 -13.13,-10.54c-2.26,-1.83 -4.5,-3.67 -6.73,-5.53c-0.72,-0.59 -1.43,-1.18 -2.17,-1.79c-1.43,-1.18 -2.86,-2.37 -4.28,-3.56c-0.65,-0.55 -1.31,-1.09 -1.99,-1.65c-0.88,-0.73 -0.88,-0.73 -1.77,-1.48c-1.92,-1.28 -3.52,-1.76 -5.77,-2.18c-3.36,4.32 -6.68,8.65 -10,13c-0.49,0.65 -0.98,1.29 -1.49,1.95c-22.69,29.74 -42.63,61.65 -60.21,94.64c-1.15,2.14 -2.32,4.27 -3.51,6.4c-36.02,65.18 -57.22,140.14 -71.16,237.14c-0.09,0.73 -0.17,1.47 -0.26,2.22c-0.24,2.1 -0.47,4.19 -0.7,6.29c-0.2,1.77 -0.2,1.77 -0.39,3.59c-0.22,3.03 -0.3,5.97 -0.29,9.01c0,0.89 0,1.79 0,2.71c0.01,0.68 0.01,1.35 0.01,2.05c13.72,1.46 27.44,2.6 41.21,3.51c1.94,0.13 3.89,0.26 5.83,0.4c5.04,0.34 10.09,0.67 15.13,1.01c5.18,0.35 10.35,0.7 15.53,1.05c10.1,0.68 20.2,1.36 30.3,2.03c1.05,4.66 0.89,8.9 0.57,13.63c-1.3,23.34 -0.9,46.69 0.72,70.01c0.54,7.81 0.82,15.54 0.71,23.36c-11.35,1.75 -22.73,2.97 -34.15,4.13c-1.91,0.2 -3.83,0.39 -5.74,0.59c-5,0.51 -9.99,1.02 -14.99,1.53c-8.02,0.82 -16.04,1.64 -24.06,2.47c-2.78,0.28 -5.57,0.56 -8.36,0.85c-1.71,0.17 -3.42,0.35 -5.14,0.52c-0.76,0.08 -1.53,0.16 -2.32,0.24c-4.43,0.45 -8.83,1.01 -13.24,1.67c0.52,11.8 2.08,23.3 4,34.94c0.16,0.93 0.31,1.86 0.47,2.82c13.41,81.02 40.77,160.81 133.53,307.24c0.7,0.91 0.7,0.91 1.41,1.84c5.52,7.15 11.18,14.14 17.07,20.99c2,2.33 3.82,4.61 5.52,7.17c4.7,-1.44 7.68,-4.21 11.13,-7.56c4.01,-3.81 8.05,-7.48 12.37,-10.94c4.17,-3.34 8.11,-6.85 12,-10.5c4.76,-4.46 9.67,-8.64 14.76,-12.72c3.53,-2.93 6.89,-6.05 10.25,-9.18c4.18,-3.87 8.55,-7.48 13.02,-11.03c2.58,-2.09 2.58,-2.09 5.11,-4.77c2.36,-2.3 2.36,-2.3 5.24,-3.11c4.14,1.08 5.54,3.05 8.14,6.34c6.97,8.69 14.88,16.53 22.76,24.38c1.79,1.78 3.58,3.58 5.36,5.37c5.79,5.79 11.6,11.45 17.86,16.72c1.29,1.12 2.57,2.24 3.85,3.35c1.26,1.1 2.52,2.19 3.78,3.28c0.63,0.54 1.26,1.09 1.9,1.65c0.94,0.81 0.94,0.81 1.89,1.64c0.59,0.52 1.19,1.05 1.81,1.59c1.74,1.51 1.74,1.51 3.6,2.79c1.7,1.23 1.7,1.23 4.17,3.7c0.28,4.55 -1.48,7.09 -4.44,10.44c-0.47,0.52 -0.94,1.03 -1.43,1.56c-1.01,1.15 -2.02,2.29 -3.03,3.44c-0.51,0.59 -1.03,1.17 -1.56,1.78c-2.45,2.84 -4.74,5.81 -7.04,8.78c-3.56,4.59 -7.21,9.09 -11,13.5c-4.18,4.9 -8.2,9.9 -12.15,14.98c-4.35,5.57 -8.83,11.01 -13.33,16.45c-4.4,5.31 -8.74,10.66 -13.02,16.07c3.67,3.8 7.51,7.21 11.63,10.5c0.64,0.52 1.28,1.03 1.94,1.56c6.78,5.35 13.91,10.16 21.07,14.99c3.36,2.25 6.63,4.59 9.86,7.01c7.85,5.78 16.21,10.82 24.5,15.94c0.65,0.4 1.29,0.8 1.96,1.21c37.12,22.84 76.03,42.24 116.82,57.58c2.07,0.78 4.14,1.56 6.2,2.36c48.08,18.5 98.93,29.82 149.9,36.66c0.77,0.11 1.54,0.22 2.34,0.32c0.75,0.11 1.5,0.21 2.28,0.31c0.65,0.09 1.3,0.18 1.97,0.27c7.2,0.89 14.35,1.51 21.6,1.85c0.86,0.05 1.73,0.09 2.62,0.13c2.1,0.11 4.21,0.21 6.31,0.31c0.13,-1.87 0.13,-1.87 0.26,-3.78c0.81,-11.77 1.62,-23.54 2.43,-35.31c0.42,-6.05 0.83,-12.1 1.25,-18.15c0.4,-5.84 0.8,-11.69 1.2,-17.53c0.16,-2.22 0.31,-4.45 0.46,-6.68c0.21,-3.12 0.43,-6.24 0.65,-9.37c0.06,-0.91 0.12,-1.83 0.18,-2.77c0.37,-5.17 0.88,-10.28 1.57,-15.41c1.06,0.01 1.06,0.01 2.14,0.02c8.96,0.05 17.91,0.09 26.86,0.11c1.07,0 1.07,0 2.16,0c19.89,0.04 39.7,-0.06 59.53,-1.94c5.1,-0.29 10.2,-0.22 15.31,-0.19c0.76,7.07 1.52,14.13 2.28,21.2c0.27,2.53 0.55,5.06 0.82,7.59c1.48,13.82 2.96,27.65 4.38,41.48c0.11,1.11 0.23,2.22 0.35,3.36c0.54,5.26 1.08,10.53 1.61,15.79c0.2,1.89 0.39,3.77 0.58,5.66c0.09,0.85 0.17,1.7 0.26,2.58c0.08,0.78 0.16,1.57 0.25,2.37c0.1,1.01 0.1,1.01 0.2,2.05c0.29,2.02 0.74,3.95 1.27,5.92c10.74,-0.55 21.21,-1.92 31.82,-3.62c0.82,-0.13 1.64,-0.26 2.49,-0.4c63.31,-10.14 124.62,-28.78 182.69,-55.98c1.03,-0.47 2.06,-0.95 3.12,-1.44c32,-14.81 62.88,-32.5 91.88,-52.56c0.85,-0.58 1.69,-1.15 2.56,-1.75c16.82,-11.54 32.9,-23.87 48.67,-36.8c3.9,-3.18 7.84,-6.32 11.77,-9.45c-1.5,-3.45 -3.5,-5.82 -6.06,-8.56c-3.23,-3.52 -6.32,-7.09 -9.31,-10.81c-3.68,-4.56 -7.55,-8.86 -11.54,-13.15c-3.78,-4.08 -7.28,-8.36 -10.77,-12.7c-2.52,-3.02 -5.14,-5.9 -7.82,-8.78c-4.3,-4.62 -8.34,-9.39 -12.29,-14.33c-2.97,-3.59 -6.19,-6.94 -9.46,-10.28c-2.06,-2.82 -2.43,-4.95 -2.75,-8.39c0.53,-0.21 1.06,-0.42 1.6,-0.63c3.41,-1.94 6.08,-4.56 8.9,-7.24c1,-0.95 1,-0.95 2.02,-1.91c7.46,-7.1 14.75,-14.38 22.05,-21.66c0.61,-0.6 1.22,-1.21 1.85,-1.84c6.41,-6.39 12.75,-12.78 18.58,-19.72c1.06,-1.22 2.11,-2.44 3.17,-3.67c1.01,-1.17 2.01,-2.34 3.02,-3.52c0.76,-0.88 0.76,-0.88 1.54,-1.78c0.49,-0.58 0.99,-1.16 1.5,-1.76c0.48,-0.55 0.96,-1.1 1.45,-1.67c1.2,-1.45 2.29,-2.98 3.37,-4.52c1.95,-2.08 1.95,-2.08 4.36,-2.66c3.56,0.8 5.31,2.47 8.03,4.89c1.06,0.93 2.13,1.86 3.2,2.78c0.55,0.48 1.1,0.97 1.67,1.46c2.76,2.37 5.63,4.6 8.51,6.83c4.92,3.84 9.81,7.71 14.68,11.62c4.82,3.86 9.65,7.7 14.5,11.5c5.49,4.3 10.93,8.64 16.37,13c6.5,5.21 13.07,10.36 19.63,15.5c3.17,-1.36 4.91,-2.77 7,-5.5c0.55,-0.71 1.1,-1.42 1.67,-2.16c0.58,-0.77 1.17,-1.54 1.77,-2.34c0.62,-0.81 1.24,-1.62 1.88,-2.45c1.9,-2.51 3.8,-5.03 5.68,-7.55c0.54,-0.72 1.08,-1.43 1.63,-2.17c39.84,-53.42 72,-112.46 95.37,-174.83c0.43,-1.12 0.85,-2.24 1.28,-3.39c20.84,-55.53 39.01,-119.87 38.72,-179.61c-0.58,-0.04 -1.16,-0.08 -1.76,-0.12c-14.11,-0.98 -28.22,-1.96 -42.33,-2.96c-6.83,-0.47 -13.65,-0.95 -20.48,-1.42c-6.58,-0.46 -13.16,-0.92 -19.74,-1.39c-2.52,-0.17 -5.03,-0.35 -7.55,-0.52c-3.51,-0.24 -7.02,-0.49 -10.54,-0.74c-1.05,-0.07 -2.1,-0.14 -3.18,-0.22c-0.95,-0.06 -1.9,-0.13 -2.89,-0.2c-0.83,-0.06 -1.66,-0.12 -2.52,-0.18c-2.01,-0.25 -2.01,-0.25 -4.01,-1.25c0.01,-1.05 0.01,-1.05 0.02,-2.13c0.09,-9.04 0.14,-18.08 0.17,-27.12c0,-0.72 0.01,-1.44 0.01,-2.19c0.08,-25.64 -1.03,-51 -3.2,-76.56c1.02,-0.1 2.03,-0.21 3.07,-0.32c9.65,-1.01 19.29,-2.03 28.94,-3.04c4.95,-0.52 9.91,-1.05 14.87,-1.57c31.09,-3.25 31.09,-3.25 62.12,-7.07c-0.56,-10.66 -1.88,-21.08 -3.56,-31.62c-0.19,-1.23 -0.19,-1.23 -0.39,-2.48c-2.9,-18.15 -6.71,-36.04 -11.05,-53.9c-0.3,-1.26 -0.61,-2.53 -0.92,-3.84c-12.5,-50.84 -31.73,-99.21 -54.83,-146.1c-0.73,-1.5 -0.73,-1.5 -1.48,-3.03c-0.68,-1.36 -0.68,-1.36 -1.38,-2.74c-0.58,-1.18 -0.58,-1.18 -1.18,-2.38c-1.21,-2.21 -1.21,-2.21 -4.21,-3.91c-6.04,4.8 -11.87,9.73 -17.5,15c-4.76,4.46 -9.66,8.64 -14.75,12.73c-3.01,2.49 -5.89,5.11 -8.75,7.77c-3.71,3.45 -7.48,6.77 -11.43,9.94c-4.19,3.37 -8.15,6.89 -12.07,10.56c-4.76,4.46 -9.66,8.64 -14.75,12.73c-3.01,2.49 -5.89,5.11 -8.75,7.77c-3.71,3.45 -7.48,6.77 -11.43,9.94c-4.78,3.84 -9.26,7.93 -13.73,12.12c-4.19,3.9 -8.56,7.52 -13.02,11.1c-3.22,2.67 -6.27,5.49 -9.32,8.34c-4.76,4.46 -9.66,8.64 -14.75,12.73c-3.01,2.49 -5.89,5.11 -8.75,7.77c-5.47,5.09 -11.18,9.81 -17,14.5c-5.92,4.44 -5.92,4.44 -8.32,11.06c-0.1,1.35 -0.2,2.69 -0.29,4.04c-0.06,0.74 -0.11,1.48 -0.17,2.25c-0.18,2.51 -0.35,5.03 -0.53,7.55c-0.13,1.81 -0.26,3.62 -0.39,5.43c-0.36,5 -0.72,9.99 -1.07,14.99c-0.39,5.38 -0.77,10.76 -1.16,16.14c-0.67,9.33 -1.34,18.66 -2.01,27.99c-1.05,14.74 -2.11,29.48 -3.18,44.21c-0.36,5.04 -0.72,10.08 -1.09,15.11c-0.09,1.26 -0.18,2.52 -0.27,3.82c-1.03,14.34 -2.07,28.68 -3.1,43.01c-0.09,1.32 -0.19,2.63 -0.28,3.98c-1.53,21.26 -3.06,42.52 -4.58,63.79c-1.56,21.81 -3.13,43.61 -4.71,65.42c-0.97,13.46 -1.94,26.93 -2.89,40.39c-0.66,9.22 -1.32,18.44 -1.99,27.66c-0.39,5.33 -0.78,10.66 -1.15,15.98c-0.34,4.87 -0.69,9.74 -1.05,14.61c-0.13,1.77 -0.26,3.54 -0.38,5.31c-0.16,2.39 -0.34,4.78 -0.52,7.17c-0.07,1.04 -0.07,1.04 -0.13,2.11c-0.16,1.92 -0.16,1.92 -0.74,4.98c-3.02,2.01 -4.67,2.5 -8.16,3.18c-1.08,0.21 -2.15,0.42 -3.26,0.64c-1.78,0.34 -1.78,0.34 -3.59,0.69c-1.26,0.24 -2.52,0.49 -3.81,0.74c-3.5,0.68 -6.99,1.36 -10.49,2.03c-3.76,0.72 -7.52,1.45 -11.28,2.19c-6.52,1.26 -13.05,2.53 -19.58,3.79c-9.55,1.84 -19.11,3.69 -28.66,5.55c-17.31,3.36 -34.62,6.71 -51.94,10.05c-1.82,0.36 -3.65,0.71 -5.48,1.06c-1.35,0.26 -1.35,0.26 -2.72,0.53c-9.37,1.81 -18.75,3.63 -28.12,5.44c-0.81,0.16 -1.62,0.31 -2.45,0.48c-4.04,0.78 -8.09,1.56 -12.13,2.34c-8.02,1.56 -16.04,3.11 -24.06,4.66c-0.79,0.15 -1.58,0.31 -2.39,0.46c-11.12,2.16 -22.24,4.31 -33.37,6.46c-32.63,6.31 -65.26,12.63 -97.88,19c-5.3,1.03 -10.6,2.07 -15.89,3.1c-3.47,0.68 -6.93,1.35 -10.39,2.03c-0.85,0.16 -1.7,0.33 -2.57,0.5c-10.04,1.96 -20.08,3.92 -30.12,5.89c-6.21,1.21 -12.42,2.42 -18.62,3.63c-4.27,0.84 -8.54,1.67 -12.8,2.51c-3.19,0.63 -6.38,1.25 -9.56,1.87c-1.14,0.22 -2.28,0.44 -3.45,0.68c-1.03,0.2 -2.07,0.4 -3.13,0.6c-0.9,0.18 -1.79,0.35 -2.71,0.53c-2.39,0.37 -2.39,0.37 -6.39,0.37c-0.23,-0.55 -0.47,-1.11 -0.71,-1.68c-1.6,-2.88 -3.59,-4.98 -5.85,-7.38c-3.43,-3.69 -6.72,-7.44 -9.87,-11.38c-3.66,-4.52 -7.5,-8.8 -11.46,-13.06c-3.94,-4.26 -7.61,-8.69 -11.23,-13.22c-1.75,-2.25 -1.75,-2.25 -3.63,-3.77c-1.25,-1.51 -1.25,-1.51 -1.84,-3.82c0.92,-4.18 3.96,-6.12 7.16,-8.69c1.38,-1.15 2.77,-2.31 4.16,-3.47c1.07,-0.88 1.07,-0.88 2.16,-1.77c3.25,-2.7 6.43,-5.48 9.61,-8.26c1.25,-1.08 2.5,-2.16 3.75,-3.25c0.62,-0.53 1.24,-1.07 1.88,-1.62c5.62,-4.88 5.62,-4.88 7.5,-6.5c1.25,-1.08 2.49,-2.16 3.74,-3.24c3.18,-2.76 6.37,-5.52 9.56,-8.28c5.48,-4.74 10.96,-9.48 16.32,-14.36c3.32,-3.01 6.71,-5.87 10.19,-8.69c4.78,-3.86 9.3,-7.93 13.82,-12.09c2.66,-2.39 5.39,-4.66 8.18,-6.91c4,-3.22 7.81,-6.56 11.56,-10.06c4.61,-4.29 9.38,-8.3 14.29,-12.25c2.82,-2.34 5.52,-4.77 8.21,-7.25c3.56,-3.27 7.18,-6.4 10.94,-9.44c4.54,-3.65 8.82,-7.51 13.08,-11.47c4.09,-3.78 8.36,-7.28 12.7,-10.78c3.02,-2.51 5.91,-5.13 8.78,-7.81c4.61,-4.29 9.38,-8.3 14.29,-12.25c2.82,-2.34 5.52,-4.77 8.21,-7.25c3.56,-3.27 7.18,-6.4 10.94,-9.44c4.54,-3.65 8.82,-7.51 13.08,-11.47c4.08,-3.77 8.34,-7.27 12.67,-10.74c3.77,-3.14 7.36,-6.45 10.93,-9.81c3.69,-3.44 3.69,-3.44 5.88,-4.54c-3.96,-8.9 -12.01,-16.17 -18.53,-23.25c-2.39,-2.67 -4.66,-5.4 -6.9,-8.19c-3.66,-4.53 -7.51,-8.81 -11.48,-13.08c-3.78,-4.08 -7.28,-8.36 -10.77,-12.7c-2.52,-3.02 -5.14,-5.9 -7.82,-8.78c-4.29,-4.61 -8.3,-9.38 -12.25,-14.28c-2.33,-2.82 -4.77,-5.52 -7.25,-8.22c-3.27,-3.55 -6.4,-7.17 -9.43,-10.94c-3.66,-4.53 -7.51,-8.81 -11.48,-13.08c-3.78,-4.08 -7.28,-8.36 -10.77,-12.7c-2.52,-3.02 -5.14,-5.9 -7.82,-8.78c-4.29,-4.61 -8.3,-9.38 -12.25,-14.28c-2.33,-2.82 -4.77,-5.52 -7.25,-8.22c-3.27,-3.55 -6.4,-7.17 -9.43,-10.94c-3.23,-3.99 -6.57,-7.8 -10.07,-11.56c-4.29,-4.61 -8.3,-9.38 -12.25,-14.28c-2.33,-2.82 -4.77,-5.52 -7.25,-8.22c-3.27,-3.55 -6.4,-7.17 -9.43,-10.94c-3.66,-4.52 -7.5,-8.8 -11.47,-13.06c-3.9,-4.22 -7.54,-8.62 -11.12,-13.12c-1.89,-2.27 -3.86,-4.33 -5.98,-6.38c-8.6,3.84 -15.67,11.54 -22.51,17.91c-4.11,3.81 -8.41,7.33 -12.77,10.85c-2.82,2.33 -5.52,4.76 -8.22,7.24c-3.55,3.28 -7.17,6.41 -10.93,9.44c-4.54,3.66 -8.82,7.51 -13.09,11.48c-4.08,3.78 -8.36,7.28 -12.7,10.77c-3.02,2.51 -5.9,5.14 -8.78,7.81c-4.61,4.29 -9.37,8.31 -14.28,12.26c-2.82,2.33 -5.52,4.76 -8.22,7.24c-3.55,3.28 -7.17,6.41 -10.93,9.44c-4.54,3.66 -8.82,7.51 -13.09,11.48c-4.08,3.78 -8.36,7.28 -12.7,10.77c-3.02,2.51 -5.9,5.14 -8.78,7.81c-4.61,4.29 -9.37,8.31 -14.28,12.26c-2.82,2.33 -5.52,4.76 -8.22,7.24c-3.55,3.28 -7.17,6.41 -10.93,9.44c-4.54,3.66 -8.82,7.51 -13.09,11.48c-4.08,3.78 -8.36,7.28 -12.7,10.77c-3.02,2.51 -5.9,5.14 -8.78,7.81c-4.6,4.28 -9.35,8.3 -14.26,12.23c-1.96,1.63 -3.82,3.26 -5.66,5.02c-1.43,1.36 -1.43,1.36 -2.89,2.75c-0.85,0.84 -1.7,1.67 -2.58,2.53c-3.01,2.27 -4.85,2.94 -8.61,2.97c-1.69,-1.16 -1.69,-1.16 -3.12,-3.06c-0.59,-0.74 -1.17,-1.47 -1.77,-2.23c-0.7,-0.9 -1.39,-1.79 -2.11,-2.71c-1.91,-2.29 -3.86,-4.55 -5.81,-6.81c-0.52,-0.61 -1.03,-1.21 -1.57,-1.83c-3.2,-3.75 -6.47,-7.42 -9.8,-11.05c-4.08,-4.44 -7.93,-9.03 -11.7,-13.74c-2.49,-3.02 -5.19,-5.8 -8,-8.52c-1.69,-3.09 -0.87,-5.75 -0.12,-9.05c1.27,-4.22 2.72,-8.38 4.18,-12.54c0.42,-1.24 0.85,-2.48 1.3,-3.77c0.93,-2.69 1.86,-5.38 2.8,-8.08c1.5,-4.3 2.99,-8.6 4.47,-12.9c1.81,-5.23 3.62,-10.45 5.43,-15.67c3.08,-8.89 6.16,-17.79 9.22,-26.7c0.32,-0.94 0.32,-0.94 0.65,-1.89c1.08,-3.13 2.15,-6.26 3.23,-9.39c1.95,-5.67 3.9,-11.35 5.86,-17.02c1.08,-3.15 2.17,-6.31 3.25,-9.46c0.33,-0.94 0.33,-0.94 0.66,-1.89c3.49,-10.16 6.99,-20.31 10.48,-30.47c1.53,-4.44 3.06,-8.89 4.59,-13.33c4.18,-12.14 8.36,-24.28 12.54,-36.41c1.99,-5.79 3.98,-11.57 5.97,-17.35c0.33,-0.96 0.33,-0.96 0.66,-1.93c6.73,-19.56 13.49,-39.12 20.25,-58.67c6.43,-18.62 12.84,-37.25 19.23,-55.89c7.6,-22.15 15.21,-44.31 22.86,-66.45c0.39,-1.14 0.79,-2.28 1.19,-3.46c2.39,-6.91 4.78,-13.82 7.18,-20.73c0.28,-0.78 0.55,-1.56 0.83,-2.37c0.71,-2.02 1.42,-4.05 2.13,-6.08c0.38,-1.07 0.76,-2.14 1.15,-3.24c0.89,-2.31 0.89,-2.31 1.89,-3.31c2.53,-0.09 5.02,-0.12 7.54,-0.1c0.77,0 1.53,0.01 2.32,0.01c7.86,0.06 15.69,0.37 23.54,0.74c1.57,0.07 3.14,0.14 4.72,0.21c4.27,0.19 8.54,0.38 12.81,0.58c4.63,0.21 9.25,0.42 13.88,0.63c8,0.35 16,0.72 24,1.08c11.57,0.53 23.14,1.05 34.71,1.57c18.79,0.85 37.58,1.69 56.36,2.55c18.23,0.82 36.45,1.65 54.68,2.47c1.12,0.05 2.25,0.1 3.41,0.15c12.27,0.56 24.54,1.11 36.81,1.66c1.08,0.05 2.16,0.1 3.27,0.15c4.31,0.2 8.61,0.39 12.92,0.58c12.61,0.57 25.23,1.14 37.84,1.71c7.9,0.36 15.8,0.72 23.7,1.08c4.56,0.2 9.12,0.41 13.68,0.62c4.17,0.19 8.35,0.38 12.52,0.56c1.51,0.07 3.02,0.14 4.53,0.21c2.05,0.09 4.1,0.19 6.15,0.28c1.14,0.05 2.28,0.1 3.46,0.15c6.97,0.56 6.97,0.56 12.97,-2.38c0.67,-0.53 1.35,-1.07 2.04,-1.62c0.71,-0.58 1.42,-1.16 2.14,-1.76c1.53,-1.21 3.05,-2.42 4.57,-3.62c1.13,-0.9 1.13,-0.9 2.28,-1.82c2.94,-2.31 5.97,-4.48 9.03,-6.63c7.97,-5.63 15.82,-11.44 23.67,-17.24c3.98,-2.95 7.97,-5.88 11.95,-8.82c1.59,-1.16 3.17,-2.33 4.75,-3.5c3.17,-2.33 6.34,-4.66 9.5,-7c0.79,-0.58 1.57,-1.15 2.38,-1.75c1.58,-1.16 3.16,-2.33 4.75,-3.5c3.97,-2.92 7.94,-5.85 11.91,-8.78c8.45,-6.24 16.92,-12.44 25.45,-18.58c7.83,-5.64 15.6,-11.38 23.37,-17.12c3.96,-2.93 7.93,-5.85 11.89,-8.77c1.59,-1.16 3.17,-2.33 4.75,-3.5c9.5,-7 9.5,-7 11.88,-8.75c1.58,-1.16 3.15,-2.32 4.73,-3.48c4.08,-3.01 8.16,-6.01 12.25,-9.01c1.26,-0.93 1.26,-0.93 2.54,-1.88c1.59,-1.16 3.18,-2.33 4.77,-3.5c2.2,-1.61 4.4,-3.24 6.58,-4.88c0.85,-0.62 1.69,-1.25 2.56,-1.89c0.82,-0.63 1.65,-1.25 2.5,-1.89c0.75,-0.57 1.51,-1.14 2.29,-1.72c0.82,-0.74 0.82,-0.74 1.65,-1.5c0,-0.66 0,-1.32 0,-2c-1.44,-1.21 -1.44,-1.21 -3.38,-2.36c-0.74,-0.47 -1.49,-0.94 -2.25,-1.42c-0.82,-0.5 -1.65,-1.01 -2.49,-1.53c-0.85,-0.53 -1.71,-1.06 -2.59,-1.61c-2.75,-1.7 -5.52,-3.39 -8.29,-5.08c-0.88,-0.53 -1.76,-1.07 -2.67,-1.62c-72.83,-44.1 -153.07,-75.92 -260.2,-94.69c-0.82,-0.12 -1.63,-0.25 -2.47,-0.37c-9.14,-1.38 -18.28,-2.55 -27.48,-3.49c-0.83,-0.08 -1.66,-0.17 -2.51,-0.25c-0.79,-0.08 -1.57,-0.16 -2.38,-0.23c-0.68,-0.07 -1.37,-0.14 -2.07,-0.21c-2.74,-0.17 -5.47,-0.16 -8.22,-0.14z" fill="#000000" id="svg_3" transform="translate(756.2265625,0.34765625)"/>
  <path d="m2109,538.29c23,1.74 45.88,2.12 68.93,1.98c3.95,-0.02 7.91,-0.03 11.86,-0.04c25,-0.07 49.99,-0.33 74.99,-0.87c19.42,-0.42 38.81,-0.43 58.22,-0.36c0,26.07 0,52.14 0,79c-103.29,0 -206.58,0 -313,0c0,52.8 0,105.6 0,160c103.29,0 206.58,0 313,0c-1.72,3.46 -2.79,5.03 -5.44,7.61c-1.03,1.01 -1.03,1.01 -2.08,2.04c-0.71,0.69 -1.43,1.39 -2.16,2.1c-1.41,1.37 -2.8,2.74 -4.2,4.11c-0.93,0.91 -0.93,0.91 -1.88,1.83c-1.84,1.9 -3.56,3.84 -5.28,5.84c-4.88,5.61 -10.13,10.85 -15.37,16.12c-0.8,0.81 -0.8,0.81 -1.62,1.64c-2.84,2.86 -5.68,5.72 -8.53,8.57c-2.92,2.94 -5.84,5.88 -8.75,8.84c-2.25,2.28 -4.51,4.55 -6.78,6.82c-1.08,1.08 -2.15,2.17 -3.23,3.26c-1.49,1.52 -3,3.03 -4.52,4.53c-1.28,1.29 -1.28,1.29 -2.58,2.61c-4.87,3.94 -9.62,4.34 -15.73,4.49c-0.72,0.02 -1.44,0.04 -2.18,0.06c-2.46,0.06 -4.93,0.11 -7.39,0.15c-0.89,0.02 -1.78,0.04 -2.69,0.06c-30.6,0.63 -61.21,0.48 -91.81,0.45c-5.19,0 -10.38,0 -15.57,-0.01c-44.1,-0.02 -88.19,-0.11 -132.29,-0.47c-3.47,-0.02 -6.95,-0.05 -10.42,-0.07c-5.36,-0.03 -10.71,-0.08 -16.07,-0.14c-1.93,-0.01 -3.85,-0.03 -5.78,-0.04c-2.59,-0.02 -5.18,-0.05 -7.77,-0.08c-0.75,0 -1.5,0 -2.27,0c-6.79,-0.12 -6.79,-0.12 -9.61,-2.32c-1.32,-4.12 -1.14,-8.28 -1.14,-12.56c0,-0.87 0,-1.75 0,-2.64c-0.01,-2.94 -0.01,-5.87 -0.02,-8.8c0,-2.1 -0.01,-4.2 -0.01,-6.3c-0.01,-5.7 -0.02,-11.41 -0.03,-17.12c0,-3.57 0,-7.14 -0.01,-10.71c-0.01,-11.17 -0.02,-22.34 -0.02,-33.51c-0.01,-12.89 -0.03,-25.77 -0.06,-38.66c-0.02,-9.96 -0.03,-19.92 -0.03,-29.89c0,-5.95 -0.01,-11.9 -0.02,-17.84c-0.02,-5.6 -0.02,-11.21 -0.01,-16.81c0,-2.05 -0.01,-4.1 -0.02,-6.14c-0.06,-13.56 0.56,-25.71 7,-37.95c0.35,-0.68 0.69,-1.35 1.05,-2.04c3.56,-6.75 7.74,-12.93 12.32,-19.03c0.68,-0.9 1.35,-1.79 2.05,-2.72c25.09,-31.96 59.33,-50.7 99.56,-55.59c19.07,-1.94 38.33,-0.87 57.39,0.6z" fill="#012133" id="svg_4"/>
  <path d="m3150,545c0,102.96 0,205.92 0,312c-25.41,0 -50.82,0 -77,0c0,-38.94 0,-77.88 0,-118c-51.48,0 -102.96,0 -156,0c0,-25.74 0,-51.48 0,-78c49.83,-0.33 99.66,-0.66 151,-1c2.87,-5.14 2.87,-5.14 3.19,-10.1c-0.03,-0.73 -0.05,-1.46 -0.08,-2.22c-0.04,-0.76 -0.07,-1.52 -0.11,-2.3c-0.37,-18.25 6.95,-32.66 19.4,-45.86c5.27,-5.49 10.72,-10.76 16.51,-15.72c8.48,-7.31 16.47,-15.07 24.31,-23.05c3.86,-3.92 7.83,-7.63 12.01,-11.2c1.79,-1.52 1.79,-1.52 3.38,-3.25c1.39,-1.3 1.39,-1.3 3.39,-1.3z" fill="#012133" id="svg_5"/>
  <path d="m1757.95,538.96c18.52,-0.08 37.04,-0.15 55.55,-0.19c1.48,0 2.96,0 4.44,-0.01c1.09,0 1.09,0 2.2,0c5.09,-0.01 10.18,-0.03 15.27,-0.05c6.8,-0.03 13.6,-0.04 20.41,-0.04c2.47,0 4.94,-0.01 7.41,-0.02c3.35,-0.02 6.7,-0.02 10.05,-0.01c0.97,-0.01 1.93,-0.02 2.92,-0.03c7.1,0.04 14.1,0.68 19.3,5.89c12.44,20.73 2.5,48.31 2.5,72.5c-130.35,0 -260.7,0 -395,0c6.75,-7.88 6.75,-7.88 9.49,-10.63c0.62,-0.61 1.23,-1.23 1.87,-1.87c0.64,-0.64 1.28,-1.28 1.95,-1.94c0.68,-0.69 1.36,-1.37 2.07,-2.07c1.43,-1.44 2.87,-2.88 4.31,-4.31c2.18,-2.18 4.35,-4.36 6.53,-6.54c1.4,-1.4 2.81,-2.8 4.21,-4.21c0.64,-0.64 1.28,-1.28 1.94,-1.94c3.81,-3.79 7.75,-7.38 11.81,-10.9c2.33,-2.04 4.52,-4.2 6.7,-6.41c0.84,-0.85 1.68,-1.69 2.54,-2.57c0.86,-0.86 1.71,-1.72 2.58,-2.61c20.35,-20.66 20.35,-20.66 29.68,-21.14c1.03,-0.01 2.07,-0.02 3.13,-0.02c1.19,-0.01 2.38,-0.02 3.61,-0.03c1.96,-0.01 1.96,-0.01 3.96,-0.02c1.41,-0.01 2.81,-0.02 4.21,-0.03c3.84,-0.03 7.69,-0.05 11.53,-0.07c4.12,-0.02 8.24,-0.05 12.36,-0.07c9.87,-0.07 19.74,-0.12 29.61,-0.17c3.7,-0.02 7.4,-0.04 11.1,-0.06c24.52,-0.14 49.05,-0.26 73.57,-0.36c5.4,-0.02 10.79,-0.05 16.19,-0.07z" fill="#012133" id="svg_6"/>
  <path d="m2797,541c25.41,0 50.82,0 77,0c0,104.61 0,209.22 0,317c-25.41,0 -50.82,0 -77,0c0,-104.61 0,-209.22 0,-317z" fill="#012133" id="svg_7"/>
  <path d="m1660,661c25.08,0 50.16,0 76,0c0,64.68 0,129.36 0,196c-25.08,0 -50.16,0 -76,0c0,-64.68 0,-129.36 0,-196z" fill="#012133" id="svg_8"/>
  <path d="m2051,661c51.15,0 102.3,0 155,0c0,25.08 0,50.16 0,76c-51.15,0 -102.3,0 -155,0c0,-25.08 0,-50.16 0,-76z" fill="#012133" id="svg_9"/>
 </g>
</svg>