<?xml version="1.0" encoding="UTF-8" standalone="no"?>
<svg
   width="3150"
   height="1395.9999999999998"
   version="1.1"
   id="svg22"
   sodipodi:docname="E-TECH bkue.svg"
   inkscape:version="1.2.2 (b0a84865, 2022-12-01)"
   xmlns:inkscape="http://www.inkscape.org/namespaces/inkscape"
   xmlns:sodipodi="http://sodipodi.sourceforge.net/DTD/sodipodi-0.dtd"
   xmlns="http://www.w3.org/2000/svg"
   xmlns:svg="http://www.w3.org/2000/svg">
  <defs
     id="defs26" />
  <sodipodi:namedview
     id="namedview24"
     pagecolor="#505050"
     bordercolor="#eeeeee"
     borderopacity="1"
     inkscape:showpageshadow="0"
     inkscape:pageopacity="0"
     inkscape:pagecheckerboard="0"
     inkscape:deskcolor="#505050"
     showgrid="false"
     inkscape:zoom="0.16905444"
     inkscape:cx="1576.4153"
     inkscape:cy="698"
     inkscape:window-width="1309"
     inkscape:window-height="456"
     inkscape:window-x="0"
     inkscape:window-y="38"
     inkscape:window-maximized="0"
     inkscape:current-layer="svg22" />
  <path
     d="m 756.23,0.35 c 0.64,0.05 1.28,0.1 1.95,0.16 2.15,0.17 4.3,0.36 6.45,0.55 1.12,0.1 1.12,0.1 2.27,0.21 56.87,5.15 112.29,18.19 166.12,37.04 1.86,0.65 3.73,1.3 5.6,1.94 40.36,14.02 80.07,32.83 116.58,55.04 2.96,1.81 5.94,3.59 8.92,5.37 5.66,3.4 11.28,6.85 16.88,10.34 0.75,0.46 1.49,0.92 2.26,1.39 1.91,1.18 3.8,2.39 5.68,3.61 1.5,0.96 1.5,0.96 3.03,1.94 2.03,2.06 2.03,2.06 2.69,5.03 -0.9,4.18 -2.57,5.13 -6.03,7.59 -0.87,0.63 -0.87,0.63 -1.75,1.28 -1.27,0.91 -2.55,1.82 -3.83,2.72 -2.1,1.48 -4.18,2.98 -6.25,4.49 -3.01,2.18 -6.03,4.36 -9.06,6.53 -7.16,5.16 -14.25,10.41 -21.35,15.66 -3.96,2.92 -7.92,5.84 -11.89,8.76 -1.58,1.17 -3.16,2.34 -4.75,3.5 -9.5,7 -19,14 -28.5,21 -0.78,0.58 -1.56,1.16 -2.37,1.75 -1.58,1.17 -3.17,2.33 -4.75,3.5 -3.97,2.93 -7.94,5.86 -11.91,8.79 -7.77,5.74 -15.56,11.45 -23.4,17.09 -6.32,4.54 -12.57,9.17 -18.78,13.85 -5.71,4.31 -11.51,8.49 -17.33,12.67 -4.94,3.56 -9.84,7.18 -14.71,10.85 -7.92,5.98 -15.91,11.88 -24.05,17.56 -1.94,1.38 -1.94,1.38 -3.5,2.93 -3.88,3.52 -6.99,3.77 -12.18,3.68 -0.66,0 -1.32,-0.01 -2,-0.02 -7.48,-0.12 -14.95,-0.44 -22.42,-0.79 -1.57,-0.07 -3.14,-0.14 -4.71,-0.2 -4.28,-0.19 -8.56,-0.39 -12.83,-0.58 -4.63,-0.21 -9.26,-0.41 -13.88,-0.62 -9.05,-0.4 -18.1,-0.81 -27.14,-1.22 -7.35,-0.33 -14.7,-0.66 -22.05,-0.99 -1.05,-0.04 -2.1,-0.09 -3.18,-0.14 -2.13,-0.09 -4.26,-0.19 -6.39,-0.28 -19.93,-0.9 -39.87,-1.79 -59.8,-2.69 -17.1,-0.77 -34.21,-1.54 -51.31,-2.3 -19.88,-0.89 -39.76,-1.78 -59.64,-2.67 -2.12,-0.1 -4.24,-0.19 -6.35,-0.29 -1.05,-0.04 -2.09,-0.09 -3.16,-0.14 -7.35,-0.33 -14.7,-0.66 -22.04,-0.98 -8.95,-0.4 -17.89,-0.8 -26.84,-1.21 -4.56,-0.21 -9.12,-0.41 -13.69,-0.61 -4.17,-0.19 -8.35,-0.38 -12.53,-0.57 -1.51,-0.07 -3.02,-0.13 -4.53,-0.2 -2.05,-0.09 -4.11,-0.18 -6.16,-0.28 -1.14,-0.05 -2.28,-0.1 -3.46,-0.15 -3.1,-0.23 -6.1,-0.68 -9.16,-1.24 -0.2,0.85 -0.2,0.85 -0.42,1.71 -2.57,9.94 -5.99,19.59 -9.33,29.29 -0.67,1.96 -1.34,3.92 -2.01,5.88 -4.81,14.05 -9.7,28.07 -14.6,42.09 -5.3,15.14 -10.49,30.32 -15.65,45.51 -5.06,14.92 -10.21,29.8 -15.41,44.67 -5.29,15.08 -10.45,30.2 -15.59,45.33 -4.74,13.97 -9.55,27.91 -14.42,41.83 -5.45,15.54 -10.79,31.1 -16.07,46.69 -5.57,16.46 -11.22,32.89 -16.97,49.29 -5.79,16.53 -11.45,33.11 -17.07,49.7 -0.32,0.93 -0.64,1.86 -0.96,2.82 -0.62,1.82 -1.23,3.64 -1.84,5.46 -1.45,4.27 -2.93,8.51 -4.52,12.73 -0.29,0.78 -0.58,1.56 -0.88,2.37 -0.55,1.46 -1.11,2.91 -1.68,4.35 -1.41,3.73 -1.41,3.73 -0.87,7.58 1.96,2.58 4.13,4.93 6.36,7.26 3.6,3.86 7.07,7.76 10.37,11.88 3.93,4.89 8.11,9.49 12.4,14.06 2.88,3.06 5.59,6.19 8.16,9.5 8.6,-3.84 15.67,-11.54 22.52,-17.91 4.11,-3.8 8.41,-7.33 12.77,-10.84 2.82,-2.34 5.52,-4.77 8.21,-7.25 3.56,-3.27 7.18,-6.4 10.94,-9.44 4.54,-3.65 8.82,-7.51 13.08,-11.47 4.09,-3.78 8.36,-7.28 12.7,-10.78 3.02,-2.51 5.91,-5.13 8.78,-7.81 4.61,-4.29 9.38,-8.3 14.29,-12.25 2.82,-2.34 5.52,-4.77 8.21,-7.25 3.56,-3.27 7.18,-6.4 10.94,-9.44 4.54,-3.65 8.82,-7.51 13.08,-11.47 4.09,-3.78 8.36,-7.28 12.7,-10.78 3.02,-2.51 5.91,-5.13 8.78,-7.81 4.61,-4.29 9.38,-8.3 14.29,-12.25 2.82,-2.34 5.52,-4.77 8.21,-7.25 3.56,-3.27 7.18,-6.4 10.94,-9.44 4.54,-3.65 8.82,-7.51 13.08,-11.47 4.09,-3.78 8.36,-7.28 12.7,-10.78 3.02,-2.51 5.91,-5.13 8.78,-7.81 4.6,-4.28 9.36,-8.29 14.27,-12.22 1.96,-1.64 3.83,-3.27 5.69,-5.02 0.49,-0.46 0.98,-0.92 1.48,-1.39 1.36,-1.29 2.71,-2.6 4.06,-3.9 2.71,-2.13 4.06,-3.01 7.5,-2.97 3.82,2.43 6.42,5.53 9.19,9.06 3.15,3.94 6.39,7.73 9.81,11.44 3.28,3.56 6.41,7.17 9.44,10.94 3.22,3.99 6.57,7.81 10.06,11.56 4.29,4.61 8.31,9.38 12.26,14.29 2.33,2.82 4.76,5.52 7.24,8.21 3.28,3.56 6.41,7.17 9.44,10.94 3.66,4.54 7.51,8.82 11.48,13.08 3.78,4.09 7.28,8.36 10.77,12.7 2.51,3.02 5.14,5.91 7.81,8.78 4.29,4.61 8.31,9.38 12.26,14.29 2.33,2.82 4.76,5.52 7.24,8.21 3.28,3.56 6.41,7.17 9.44,10.94 3.66,4.54 7.51,8.82 11.48,13.08 3.78,4.09 7.28,8.36 10.77,12.7 2.51,3.02 5.14,5.91 7.81,8.78 4.29,4.61 8.31,9.38 12.26,14.29 2.33,2.82 4.76,5.52 7.24,8.21 3.28,3.56 6.41,7.17 9.44,10.94 3.22,3.99 6.57,7.81 10.06,11.56 4.28,4.6 8.3,9.35 12.22,14.27 1.65,1.97 3.29,3.81 5.06,5.65 0.47,0.49 0.93,0.97 1.41,1.47 1.3,1.35 2.62,2.68 3.94,4.01 1.87,2.6 1.87,2.6 2.51,5.56 -0.88,4.22 -3.28,6.18 -6.45,8.85 -0.88,0.79 -0.88,0.79 -1.79,1.58 -4.47,3.92 -9.08,7.68 -13.72,11.4 -2.81,2.32 -5.49,4.74 -8.18,7.21 -3.55,3.28 -7.17,6.41 -10.93,9.44 -4.54,3.66 -8.82,7.51 -13.09,11.48 -4.08,3.78 -8.36,7.28 -12.7,10.77 -3.02,2.51 -5.9,5.14 -8.78,7.81 -4.61,4.29 -9.37,8.31 -14.28,12.26 -2.82,2.33 -5.52,4.76 -8.22,7.24 -3.55,3.28 -7.17,6.41 -10.93,9.44 -4.54,3.66 -8.82,7.51 -13.09,11.48 -4.08,3.78 -8.36,7.28 -12.7,10.77 -3.02,2.51 -5.9,5.14 -8.78,7.81 -4.61,4.29 -9.37,8.31 -14.28,12.26 -2.82,2.33 -5.52,4.76 -8.22,7.24 -3.55,3.28 -7.17,6.41 -10.93,9.44 -4,3.22 -7.81,6.57 -11.57,10.06 -4.61,4.29 -9.37,8.31 -14.28,12.26 -2.82,2.33 -5.52,4.76 -8.22,7.24 -3.55,3.28 -7.17,6.41 -10.93,9.44 -4.53,3.65 -8.82,7.49 -13.06,11.46 -4.27,3.95 -8.73,7.57 -13.33,11.13 -2.11,1.92 -3.13,3.35 -4.18,5.97 4.66,5.85 9.41,11.53 14.5,17 4.22,4.53 8.2,9.19 12.04,14.04 1.22,1.47 1.22,1.47 2.46,2.96 0.59,0.84 1.19,1.67 1.79,2.53 3.99,5.41 3.99,5.41 9.92,7.93 3.18,-0.38 6.11,-1.07 9.19,-1.91 2.43,-0.56 4.85,-1.12 7.28,-1.67 1.92,-0.47 1.92,-0.47 3.87,-0.95 5.99,-1.44 12.04,-2.53 18.1,-3.66 3.67,-0.69 7.33,-1.41 11,-2.12 1.54,-0.31 3.09,-0.61 4.64,-0.91 1.18,-0.23 1.18,-0.23 2.38,-0.46 4.2,-0.82 8.4,-1.63 12.6,-2.45 7.26,-1.41 14.52,-2.82 21.78,-4.24 10.58,-2.05 21.15,-4.11 31.72,-6.16 17.25,-3.36 34.51,-6.71 51.76,-10.07 16.58,-3.22 33.15,-6.45 49.73,-9.67 1.02,-0.2 2.03,-0.4 3.08,-0.6 7.13,-1.39 14.27,-2.77 21.4,-4.16 8.04,-1.56 16.08,-3.13 24.12,-4.69 0.98,-0.19 1.96,-0.38 2.97,-0.58 10.56,-2.05 21.11,-4.1 31.67,-6.16 0.91,-0.18 1.83,-0.35 2.77,-0.54 4.54,-0.88 9.08,-1.76 13.62,-2.64 8.68,-1.69 17.37,-3.38 26.05,-5.07 3.33,-0.65 6.66,-1.29 10,-1.94 1.21,-0.24 1.21,-0.24 2.46,-0.48 10.71,-2.08 21.41,-4.17 32.12,-6.26 5.56,-1.09 11.13,-2.18 16.69,-3.26 4.43,-0.87 8.85,-1.73 13.27,-2.6 3.3,-0.65 6.6,-1.29 9.9,-1.93 1.77,-0.35 1.77,-0.35 3.58,-0.71 1.08,-0.21 2.15,-0.42 3.26,-0.63 0.93,-0.18 1.86,-0.37 2.82,-0.55 C 1077,966 1077,966 1081,966 c -0.01,-0.73 -0.02,-1.46 -0.04,-2.22 -0.09,-9.53 0.5,-18.94 1.19,-28.44 0.13,-1.76 0.25,-3.52 0.38,-5.28 0.34,-4.81 0.69,-9.62 1.04,-14.42 0.37,-5.2 0.74,-10.4 1.11,-15.59 0.9,-12.52 1.8,-25.04 2.71,-37.56 0.42,-5.9 0.85,-11.8 1.28,-17.7 1.41,-19.61 2.83,-39.23 4.25,-58.84 0.37,-5.07 0.74,-10.15 1.11,-15.23 0.09,-1.27 0.18,-2.53 0.28,-3.83 1.48,-20.49 2.96,-40.98 4.42,-61.47 1.51,-21.05 3.02,-42.09 4.56,-63.14 0.86,-11.81 1.71,-23.62 2.55,-35.44 0.71,-10.05 1.44,-20.1 2.18,-30.15 0.38,-5.12 0.75,-10.25 1.11,-15.38 0.32,-4.69 0.67,-9.39 1.02,-14.08 0.13,-1.7 0.25,-3.4 0.36,-5.1 0.16,-2.3 0.33,-4.61 0.52,-6.91 0.09,-1.28 0.18,-2.57 0.28,-3.89 1.22,-5.86 5.08,-8.84 9.63,-12.39 4.36,-3.49 8.49,-7.12 12.56,-10.94 4.76,-4.46 9.67,-8.64 14.76,-12.72 3.01,-2.5 5.88,-5.12 8.74,-7.78 3.71,-3.45 7.49,-6.76 11.44,-9.94 4.19,-3.36 8.15,-6.89 12.06,-10.56 4.76,-4.46 9.67,-8.64 14.76,-12.72 3.01,-2.5 5.88,-5.12 8.74,-7.78 3.71,-3.45 7.49,-6.76 11.44,-9.94 4.19,-3.36 8.15,-6.89 12.06,-10.56 4.76,-4.46 9.67,-8.64 14.76,-12.72 3.01,-2.5 5.88,-5.12 8.74,-7.78 3.71,-3.45 7.49,-6.76 11.44,-9.94 4.19,-3.36 8.15,-6.89 12.06,-10.56 4.78,-4.47 9.68,-8.68 14.8,-12.75 1.96,-1.63 3.79,-3.26 5.62,-5.02 0.49,-0.47 0.97,-0.93 1.47,-1.41 1.35,-1.3 2.68,-2.62 4.01,-3.95 3.12,-2.24 4.84,-2.26 8.6,-1.87 30.11,51.5 51.28,108.31 66,166 0.19,0.71 0.37,1.43 0.55,2.16 18.59,73.21 18.59,73.21 16.45,97.84 -1.52,1.98 -2.52,2.87 -4.95,3.54 -0.74,0.08 -1.49,0.15 -2.25,0.23 -0.86,0.1 -1.72,0.19 -2.6,0.29 -0.94,0.09 -1.87,0.18 -2.84,0.28 -0.99,0.1 -1.97,0.21 -2.99,0.32 -3.28,0.35 -6.55,0.68 -9.83,1.01 -2.27,0.24 -4.55,0.48 -6.82,0.72 -5.99,0.63 -11.98,1.25 -17.97,1.86 -8.45,0.87 -16.89,1.75 -25.33,2.64 -4.49,0.47 -8.99,0.94 -13.49,1.4 -2.05,0.21 -4.1,0.42 -6.16,0.64 -0.93,0.09 -1.87,0.19 -2.83,0.28 -0.86,0.09 -1.72,0.18 -2.6,0.27 -0.75,0.08 -1.49,0.16 -2.26,0.24 -2.08,0.28 -4.05,0.73 -6.08,1.28 0.09,0.86 0.09,0.86 0.19,1.74 1.9,19.2 2.01,38.36 2,57.64 0,1.3 0,2.61 0,3.95 0,3.78 -0.01,7.55 -0.02,11.32 0,1.14 0,2.28 0,3.46 -0.03,5.4 -0.21,10.57 -1.17,15.89 0.75,-0.01 1.49,-0.03 2.26,-0.05 11.58,-0.13 23.08,0.66 34.63,1.44 1.61,0.11 1.61,0.11 3.25,0.22 5.67,0.38 11.33,0.77 17,1.16 5.84,0.41 11.69,0.79 17.54,1.17 4.51,0.29 9.01,0.6 13.52,0.92 2.16,0.15 4.32,0.29 6.47,0.42 3.01,0.19 6.01,0.41 9.01,0.63 0.89,0.05 1.78,0.1 2.7,0.15 3.85,0.3 6.02,0.5 9.19,2.83 2.04,3.01 1.72,4.94 1.38,8.53 -0.12,1.32 -0.24,2.63 -0.36,3.99 -0.15,1.45 -0.3,2.89 -0.46,4.34 -0.15,1.52 -0.3,3.04 -0.45,4.56 -8.29,80.89 -30.71,159.13 -98.68,291.69 -0.64,1.06 -1.28,2.11 -1.94,3.2 -8.52,13.96 -17.47,27.55 -27.06,40.8 -0.59,0.82 -1.18,1.64 -1.79,2.48 -7.51,10.35 -15.18,20.57 -23.21,30.52 -0.39,0.57 -0.79,1.14 -1.2,1.72 -2.03,2.76 -3.29,4.15 -6.65,5.01 -4.48,-1.04 -7.06,-3.42 -10.46,-6.42 -1.42,-1.2 -2.85,-2.4 -4.27,-3.6 -0.73,-0.62 -1.46,-1.24 -2.21,-1.88 -3.46,-2.87 -7.05,-5.56 -10.64,-8.27 -6.64,-5.01 -13.08,-10.22 -19.47,-15.54 -5.16,-4.28 -10.42,-8.38 -15.76,-12.44 -4.69,-3.59 -9.23,-7.35 -13.78,-11.11 -3.73,-3.07 -7.49,-5.87 -11.56,-8.47 -6.84,7.48 -6.84,7.48 -13.56,15.06 -1.14,1.32 -2.29,2.63 -3.44,3.94 -0.85,0.99 -0.85,0.99 -1.73,2 -7.47,8.47 -15.51,16.36 -23.52,24.31 -1.46,1.46 -2.91,2.91 -4.37,4.37 -2.67,2.66 -5.34,5.32 -8.01,7.98 -2.8,2.77 -5.58,5.56 -8.37,8.34 8.24,9.69 8.24,9.69 16.69,19.19 3.01,3.31 5.88,6.7 8.69,10.19 3.68,4.55 7.55,8.86 11.54,13.14 3.78,4.09 7.28,8.36 10.77,12.7 2.53,3.04 5.18,5.95 7.88,8.84 3.44,3.74 6.85,7.49 10.12,11.38 0.64,0.76 1.29,1.52 1.95,2.31 1.69,2.79 2.03,4.05 1.36,7.25 -2.13,2.51 -2.13,2.51 -5.12,5.13 -0.54,0.47 -1.08,0.95 -1.63,1.44 -5.06,4.39 -10.32,8.53 -15.62,12.62 -3.07,2.37 -6.08,4.79 -9.08,7.24 -8.57,6.96 -17.43,13.36 -26.55,19.57 -1.62,1.11 -1.62,1.11 -3.28,2.24 -22.59,15.36 -45.63,29.84 -69.72,42.76 -1.33,0.72 -1.33,0.72 -2.69,1.46 -74.65,40.2 -157.27,65.06 -243.54,75.71 -0.69,0.08 -1.39,0.17 -2.1,0.26 -3.91,0.45 -7.74,0.84 -11.67,0.57 -2.4,-2.4 -2.35,-3.28 -2.7,-6.59 -0.1,-0.96 -0.2,-1.93 -0.31,-2.92 -0.11,-1.06 -0.21,-2.12 -0.32,-3.21 -0.12,-1.11 -0.23,-2.22 -0.35,-3.36 -0.39,-3.66 -0.76,-7.32 -1.13,-10.98 -0.26,-2.52 -0.52,-5.04 -0.79,-7.57 -1.32,-12.63 -2.59,-25.28 -3.87,-37.92 -0.11,-1.13 -0.23,-2.27 -0.34,-3.44 -0.55,-5.42 -1.09,-10.83 -1.63,-16.25 -0.19,-1.93 -0.38,-3.87 -0.58,-5.81 -0.08,-0.89 -0.17,-1.77 -0.25,-2.68 -0.34,-4.27 -0.34,-4.27 -1.73,-8.27 -0.59,0.06 -1.19,0.12 -1.8,0.19 -18.5,1.78 -36.93,2.01 -55.51,2 -1.81,0 -1.81,0 -3.65,0 -3.49,0 -6.98,-0.01 -10.46,-0.02 -1.05,0 -2.1,0 -3.18,0 -5.55,-0.04 -10.9,-0.35 -16.4,-1.17 -0.04,0.86 -0.09,1.73 -0.14,2.61 -1.18,21.08 -2.41,42.16 -3.82,63.22 -0.27,4.01 -0.53,8.02 -0.78,12.03 -0.25,3.99 -0.52,7.98 -0.79,11.97 -0.1,1.49 -0.19,2.99 -0.28,4.49 -0.13,2.06 -0.27,4.11 -0.42,6.17 -0.07,1.17 -0.15,2.33 -0.23,3.53 -0.57,3.18 -1.28,4.69 -3.54,6.98 -2.21,0.35 -2.21,0.35 -4.86,0.13 -1.01,-0.08 -2.02,-0.15 -3.07,-0.23 -1.11,-0.11 -2.23,-0.22 -3.38,-0.34 -1.18,-0.1 -2.36,-0.2 -3.58,-0.31 -74.33,-6.92 -147.3,-24.63 -304.11,-100.25 -0.98,-0.61 -1.96,-1.22 -2.98,-1.86 -12.92,-8.08 -25.58,-16.41 -37.81,-25.5 -2.34,-1.74 -4.69,-3.45 -7.04,-5.17 -4,-2.91 -7.97,-5.85 -11.93,-8.81 -1.47,-1.09 -2.94,-2.17 -4.42,-3.25 -1.99,-1.45 -3.97,-2.93 -5.94,-4.41 -0.59,-0.42 -1.17,-0.84 -1.78,-1.27 -2.56,-1.96 -4.03,-3.58 -5.37,-6.52 0.43,-5.05 3.42,-7.78 6.71,-11.46 1.31,-1.52 2.62,-3.05 3.93,-4.57 0.63,-0.73 1.27,-1.45 1.92,-2.2 1.99,-2.3 3.9,-4.65 5.78,-7.04 3.34,-4.21 6.73,-8.39 10.12,-12.56 0.56,-0.68 1.11,-1.37 1.68,-2.07 2.82,-3.47 5.65,-6.94 8.47,-10.4 6.12,-7.51 12.17,-15.06 18.14,-22.69 3.47,-4.43 6.99,-8.83 10.52,-13.22 -7.92,-7.33 -7.92,-7.33 -16,-14.5 -9.9,-8.61 -19.33,-17.67 -28.59,-26.96 -1.86,-1.87 -3.73,-3.73 -5.6,-5.59 -1.21,-1.21 -2.41,-2.42 -3.62,-3.62 -0.54,-0.55 -1.09,-1.1 -1.66,-1.66 -3.38,-3.41 -6.5,-6.94 -9.53,-10.67 -5.48,3.9 -10.44,8.18 -15.36,12.76 -3.28,3.05 -6.64,5.94 -10.14,8.74 -3.97,3.2 -7.76,6.53 -11.5,10 -4.58,4.27 -9.33,8.26 -14.22,12.19 -3.54,2.95 -6.9,6.07 -10.28,9.21 -4.25,3.94 -8.69,7.61 -13.22,11.23 -2.26,1.73 -2.26,1.73 -3.71,3.62 -1.57,1.25 -1.57,1.25 -4.42,1.78 -4.18,-0.7 -5.93,-2.78 -8.52,-5.9 -0.72,-0.83 -0.72,-0.83 -1.45,-1.67 -1.41,-1.64 -2.8,-3.29 -4.18,-4.96 -0.66,-0.79 -1.31,-1.58 -1.99,-2.39 -2.04,-2.51 -4.02,-5.05 -6.01,-7.61 -1.05,-1.33 -2.1,-2.66 -3.15,-3.99 -21.68,-27.56 -41.3,-56.64 -58.85,-87.01 -0.68,-1.18 -0.68,-1.18 -1.37,-2.38 -2.97,-5.16 -5.82,-10.37 -8.63,-15.62 -0.52,-0.96 -1.03,-1.93 -1.57,-2.92 C 64.4,997.85 52.47,970.85 42,943 41.58,941.88 41.16,940.76 40.72,939.6 23.68,894.19 12.35,846.93 5.19,799 5.09,798.31 4.98,797.61 4.87,796.89 3.77,789.51 2.82,782.12 2.18,774.69 2.07,773.48 1.96,772.26 1.85,771.01 2,768 2,768 3.24,766.36 c 2.14,-1.65 3.47,-1.87 6.15,-2.14 0.89,-0.09 1.79,-0.19 2.71,-0.29 0.98,-0.09 1.96,-0.18 2.97,-0.28 1.04,-0.11 2.07,-0.21 3.14,-0.32 3.42,-0.36 6.85,-0.69 10.27,-1.03 2.38,-0.24 4.75,-0.48 7.12,-0.72 6.25,-0.64 12.5,-1.26 18.75,-1.88 6.37,-0.64 12.75,-1.29 19.12,-1.93 12.51,-1.27 25.02,-2.53 37.53,-3.77 -0.06,-0.8 -0.12,-1.6 -0.18,-2.43 -1.25,-17.22 -2.13,-34.33 -2.02,-51.61 0.02,-3.21 0.02,-6.43 0.02,-9.64 0.02,-9.83 0.1,-19.55 1.18,-29.32 -0.78,0.02 -1.56,0.03 -2.36,0.05 -10.56,0.11 -21.01,-0.57 -31.54,-1.32 -1.88,-0.14 -3.77,-0.27 -5.66,-0.4 -3.93,-0.28 -7.87,-0.56 -11.8,-0.84 -5.02,-0.36 -10.04,-0.71 -15.07,-1.06 -3.89,-0.27 -7.78,-0.54 -11.67,-0.82 -1.85,-0.13 -3.7,-0.26 -5.55,-0.39 -2.59,-0.18 -5.18,-0.37 -7.77,-0.55 -0.75,-0.06 -1.5,-0.11 -2.28,-0.16 C 14.2,655.36 12.1,655.19 10,655 9.26,654.94 8.53,654.87 7.76,654.81 2.24,654.24 2.24,654.24 0,652 c -0.04,-2.84 0.05,-5.56 0.25,-8.39 0.05,-0.85 0.1,-1.7 0.16,-2.57 0.61,-9.29 1.6,-18.54 2.72,-27.79 0.16,-1.34 0.16,-1.34 0.32,-2.72 C 13.25,529.77 37.08,451.7 138,278 c 0.95,-1.25 1.89,-2.49 2.83,-3.74 2.35,-3.12 4.76,-6.19 7.17,-9.26 0.97,-1.27 0.97,-1.27 1.96,-2.57 0.89,-1.11 0.89,-1.11 1.79,-2.24 0.49,-0.63 0.98,-1.25 1.49,-1.89 1.76,-1.3 1.76,-1.3 4.59,-1.8 4.1,0.65 6.25,2.58 9.17,5.31 1.15,1.03 2.3,2.05 3.46,3.07 0.58,0.52 1.17,1.04 1.78,1.58 2.75,2.4 5.62,4.63 8.51,6.85 6.02,4.68 11.91,9.49 17.78,14.35 9.95,8.23 19.98,16.37 30.08,24.42 4.49,3.61 8.94,7.27 13.39,10.92 3.56,-3.51 7.01,-7.11 10.38,-10.81 0.44,-0.48 0.89,-0.97 1.34,-1.46 2.59,-2.83 5.13,-5.69 7.64,-8.59 3.74,-4.28 7.61,-8.44 11.52,-12.58 0.7,-0.74 1.4,-1.48 2.13,-2.25 7.37,-7.79 14.81,-15.35 22.99,-22.31 1.34,-1.14 2.67,-2.29 4,-3.44 0.99,-0.84 1.98,-1.69 3,-2.56 -1.42,-4.46 -3.86,-7.33 -7.06,-10.62 -3.63,-3.85 -7.12,-7.74 -10.44,-11.88 -3.63,-4.52 -7.46,-8.78 -11.41,-13.02 -2.97,-3.21 -5.79,-6.5 -8.52,-9.92 -3.37,-4.18 -6.9,-8.14 -10.57,-12.06 -4.55,-4.86 -8.86,-9.85 -13.01,-15.06 -1.79,-2.2 -3.67,-4.25 -5.61,-6.31 C 236,177 236,177 235.69,174.5 c 4.08,-7.77 12.59,-13.16 19.31,-18.5 1.02,-0.81 2.04,-1.62 3.09,-2.45 2.93,-2.33 5.87,-4.63 8.83,-6.93 1.46,-1.13 2.92,-2.27 4.37,-3.41 12.93,-10.12 26.23,-19.47 39.99,-28.43 2.42,-1.58 4.84,-3.17 7.25,-4.77 C 396.5,58.59 485.85,24.8 604.5,4.63 605.73,4.46 606.96,4.29 608.22,4.12 624.92,1.96 624.92,1.96 629,4 c 2.73,10.94 3.17,22.84 4.39,34.04 0.22,2.01 0.44,4.02 0.66,6.03 0.46,4.19 0.92,8.38 1.38,12.57 0.58,5.37 1.17,10.74 1.77,16.11 0.45,4.15 0.91,8.29 1.36,12.43 0.22,1.98 0.43,3.96 0.65,5.94 0.31,2.76 0.61,5.52 0.91,8.28 0.13,1.23 0.13,1.23 0.27,2.47 0.37,3.41 0.61,6.7 0.61,10.13 0.62,-0.06 1.23,-0.12 1.87,-0.18 18.38,-1.73 36.62,-2.1 55.06,-2.01 2.88,0.01 5.77,0.01 8.65,0.01 2.81,0 5.63,0 8.44,0.01 1.96,0 3.92,0.01 5.87,0.01 6.46,0.03 12.72,0.3 19.11,1.16 -0.01,-0.78 -0.03,-1.56 -0.04,-2.36 -0.11,-10.54 0.55,-20.96 1.29,-31.47 0.13,-1.88 0.26,-3.76 0.38,-5.65 0.28,-3.92 0.55,-7.84 0.83,-11.77 0.35,-5 0.69,-10.01 1.03,-15.01 0.27,-3.88 0.54,-7.77 0.81,-11.65 0.13,-1.84 0.26,-3.69 0.38,-5.53 C 745.97,8.63 745.97,8.63 748,1 c 2.87,-1.43 5.04,-0.91 8.23,-0.65 z"
     fill="#012133"
     id="svg_1" />
  <path
     d="m 756.22656,0.34765625 c 0.64,0.05 1.28,0.1 1.95,0.16 2.15,0.17 4.3,0.36 6.45,0.54999995 1.12,0.1 1.12,0.1 2.27,0.21 56.87,5.15 112.29,18.1899998 166.12,37.0399998 1.86,0.65 3.73,1.3 5.6,1.94 40.36,14.02 80.07004,32.83 116.58004,55.04 2.96,1.81 5.94,3.59 8.92,5.370004 5.66,3.4 11.28,6.85 16.88,10.34 0.75,0.46 1.49,0.92 2.26,1.39 1.91,1.18 3.8,2.39 5.68,3.61 1.5,0.96 1.5,0.96 3.03,1.94 2.03,2.06 2.03,2.06 2.69,5.03 -0.9,4.18 -2.57,5.13 -6.03,7.59 -0.87,0.63 -0.87,0.63 -1.75,1.28 -1.27,0.91 -2.55,1.82 -3.83,2.72 -2.1,1.48 -4.18,2.98 -6.25,4.49 -3.01,2.18 -6.03,4.36 -9.06,6.53 -7.16,5.16 -14.25,10.41 -21.35,15.66 -3.96,2.92 -7.92,5.84 -11.89,8.76 -1.58,1.17 -3.16,2.34 -4.75,3.5 -9.5,7 -19,14 -28.5,21 -0.78,0.58 -1.56004,1.16 -2.37004,1.75 -1.58,1.17 -3.17,2.33 -4.75,3.5 -3.97,2.93 -7.94,5.86 -11.91,8.79 -7.77,5.74 -15.56,11.45 -23.4,17.09 -6.32,4.54 -12.57,9.17 -18.78,13.85 -5.71,4.31 -11.51,8.49 -17.33,12.67 -4.94,3.56 -9.84,7.18 -14.71,10.85 -7.92,5.98 -15.91,11.88 -24.05,17.56 -1.94,1.38 -1.94,1.38 -3.5,2.93 -3.88,3.52 -6.99,3.77 -12.18,3.68 -0.66,0 -1.32,-0.01 -2,-0.02 -7.48,-0.12 -14.95,-0.44 -22.42,-0.79 -1.57,-0.07 -3.14,-0.14 -4.71,-0.2 -4.28,-0.19 -8.56,-0.39 -12.83,-0.58 -4.63,-0.21 -9.26,-0.41 -13.88,-0.62 -9.05,-0.4 -18.1,-0.81 -27.14,-1.22 -7.35,-0.33 -14.7,-0.66 -22.05,-0.99 -1.05,-0.04 -2.1,-0.09 -3.18,-0.14 -2.13,-0.09 -4.26,-0.19 -6.39,-0.28 -19.93,-0.9 -39.87,-1.79 -59.8,-2.69 -17.1,-0.77 -34.21,-1.54 -51.31,-2.3 -19.88,-0.89 -39.76,-1.78 -59.64,-2.67 -2.12,-0.1 -4.24,-0.19 -6.35,-0.29 -1.05,-0.04 -2.09,-0.09 -3.16,-0.14 -7.35,-0.33 -14.7,-0.66 -22.04,-0.98 -8.95,-0.4 -17.89,-0.8 -26.84,-1.21 -4.56,-0.21 -9.12,-0.41 -13.69,-0.61 -4.17,-0.19 -8.35,-0.38 -12.53,-0.57 -1.51,-0.07 -3.02,-0.13 -4.53,-0.2 -2.05,-0.09 -4.11,-0.18 -6.16,-0.28 -1.14,-0.05 -2.28,-0.1 -3.46,-0.15 -3.1,-0.23 -6.1,-0.68 -9.16,-1.24 -0.2,0.85 -0.2,0.85 -0.42,1.71 -2.57,9.94 -5.99,19.59 -9.33,29.29 -0.67,1.96 -1.34,3.92 -2.01,5.88 -4.81,14.05 -9.7,28.07 -14.6,42.09 -5.3,15.14 -10.49,30.32 -15.65,45.51 -5.06,14.92 -10.21,29.8 -15.41,44.67 -5.29,15.08 -10.45,30.2 -15.59,45.33 -4.74,13.97 -9.55,27.91 -14.42,41.83 -5.45,15.54 -10.79,31.1 -16.07,46.69 -5.57,16.46 -11.22,32.89 -16.97,49.29 -5.79,16.53 -11.45,33.11 -17.07,49.7 -0.32,0.93 -0.64,1.86 -0.96,2.82 -0.62,1.82 -1.23,3.64 -1.84,5.46 -1.45,4.27 -2.93,8.51 -4.52,12.73 -0.29,0.78 -0.58,1.56 -0.88,2.37 -0.55,1.46 -1.11,2.91 -1.68,4.35 -1.41,3.73 -1.41,3.73 -0.87,7.58 1.96,2.58 4.13,4.93 6.36,7.26 3.6,3.86 7.07,7.76 10.37,11.88 3.93,4.89 8.11,9.49 12.4,14.06 2.88,3.06 5.59,6.19 8.16,9.5 8.6,-3.84 15.67,-11.54 22.52,-17.91 4.11,-3.8 8.41,-7.33 12.77,-10.84 2.82,-2.34 5.52,-4.77 8.21,-7.25 3.56,-3.27 7.18,-6.4 10.94,-9.44 4.54,-3.65 8.82,-7.51 13.08,-11.47 4.09,-3.78 8.36,-7.28 12.7,-10.78 3.02,-2.51 5.91,-5.13 8.78,-7.81 4.61,-4.29 9.38,-8.3 14.29,-12.25 2.82,-2.34 5.52,-4.77 8.21,-7.25 3.56,-3.27 7.18,-6.4 10.94,-9.44 4.54,-3.65 8.82,-7.51 13.08,-11.47 4.09,-3.78 8.36,-7.28 12.7,-10.78 3.02,-2.51 5.91,-5.13 8.78,-7.81 4.61,-4.29 9.38,-8.3 14.29,-12.25 2.82,-2.34 5.52,-4.77 8.21,-7.25 3.56,-3.27 7.18,-6.4 10.94,-9.44 4.54,-3.65 8.82,-7.51 13.08,-11.47 4.09,-3.78 8.36,-7.28 12.7,-10.78 3.02,-2.51 5.91,-5.13 8.78,-7.81 4.6,-4.28 9.36,-8.29 14.27,-12.22 1.96,-1.64 3.83,-3.27 5.69,-5.02 0.49,-0.46 0.98,-0.92 1.48,-1.39 1.36,-1.29 2.71,-2.6 4.06,-3.9 2.71,-2.13 4.06,-3.01 7.5,-2.97 3.82,2.43 6.42,5.53 9.19,9.06 3.15,3.94 6.39,7.73 9.81,11.44 3.28,3.56 6.41,7.17 9.44,10.94 3.22,3.99 6.57,7.81 10.06,11.56 4.29,4.61 8.31,9.38 12.26,14.29 2.33,2.82 4.76,5.52 7.24,8.21 3.28,3.56 6.41,7.17 9.44,10.94 3.66,4.54 7.51,8.82 11.48,13.08 3.78,4.09 7.28,8.36 10.77,12.7 2.51,3.02 5.14,5.91 7.81,8.78 4.29,4.61 8.31,9.38 12.26,14.29 2.33,2.82 4.76,5.52 7.24,8.21 3.28,3.56 6.41,7.17 9.44,10.94 3.66,4.54 7.51,8.82 11.48,13.08 3.78,4.09 7.28,8.36 10.77,12.7 2.51,3.02 5.14,5.91 7.81,8.78 4.29,4.61 8.31,9.38 12.26,14.29 2.33,2.82 4.76,5.52 7.24,8.21 3.28,3.56 6.41,7.17 9.44,10.94 3.22,3.99 6.57,7.81 10.06,11.56 4.28,4.6 8.3,9.35 12.22,14.27 1.65,1.97 3.29,3.81 5.06,5.65 0.47,0.49 0.93,0.97 1.41,1.47 1.3,1.35 2.62,2.68 3.94,4.01 1.87,2.6 1.87,2.6 2.51,5.56 -0.88,4.22 -3.28,6.18 -6.45,8.85 -0.88,0.79 -0.88,0.79 -1.79,1.58 -4.47,3.92 -9.08,7.68 -13.72,11.4 -2.81,2.32 -5.49,4.74 -8.18,7.21 -3.55,3.28 -7.17,6.41 -10.93,9.44 -4.54,3.66 -8.82,7.51 -13.09,11.48 -4.08,3.78 -8.36,7.28 -12.7,10.77 -3.02,2.51 -5.9,5.14 -8.78,7.81 -4.61,4.29 -9.37,8.31 -14.28,12.26 -2.82,2.33 -5.52,4.76 -8.22,7.24 -3.55,3.28 -7.17,6.41 -10.93,9.44 -4.54,3.66 -8.82,7.51 -13.09,11.48 -4.08,3.78 -8.36,7.28 -12.7,10.77 -3.02,2.51 -5.9,5.14 -8.78,7.81 -4.61,4.29 -9.37,8.31 -14.28,12.26 -2.82,2.33 -5.52,4.76 -8.22,7.24 -3.55,3.28 -7.17,6.41 -10.93,9.44 -4,3.22 -7.81,6.57 -11.57,10.06 -4.61,4.29 -9.37,8.31 -14.28,12.26 -2.82,2.33 -5.52,4.76 -8.22,7.24 -3.55,3.28 -7.17,6.41 -10.93,9.44 -4.53,3.65 -8.82,7.49 -13.06,11.46 -4.27,3.95 -8.73,7.57 -13.33,11.13004 -2.11,1.92 -3.13,3.35 -4.18,5.97 4.66,5.85 9.41,11.53 14.5,17 4.22,4.53 8.2,9.19 12.04,14.04 1.22,1.47 1.22,1.47 2.46,2.96 0.59,0.84 1.19,1.67 1.79,2.53 3.99,5.41 3.99,5.41 9.92,7.93 3.18,-0.38 6.11,-1.07 9.19,-1.91 2.43,-0.56 4.85,-1.12 7.28,-1.67 1.92,-0.47 1.92,-0.47 3.87,-0.95 5.99,-1.44 12.04,-2.53 18.1,-3.66 3.67,-0.69 7.33,-1.41 11,-2.12 1.54,-0.31 3.09,-0.61 4.64,-0.91 1.18,-0.23 1.18,-0.23 2.38,-0.46 4.2,-0.82 8.4,-1.63 12.6,-2.45 7.26,-1.41 14.52,-2.82 21.78,-4.24 10.58,-2.05 21.15,-4.11 31.72,-6.16 17.25,-3.36 34.51,-6.71 51.76,-10.07 16.58,-3.22 33.15,-6.45 49.73,-9.67 1.02,-0.2 2.03,-0.4 3.08,-0.6 7.13,-1.39 14.27,-2.77 21.4,-4.16 8.04,-1.56 16.08,-3.13 24.12,-4.69004 0.98,-0.19 1.96,-0.38 2.97,-0.58 10.56,-2.05 21.11,-4.1 31.67,-6.16 0.91,-0.18 1.83,-0.35 2.77,-0.54 4.54,-0.88 9.08,-1.76 13.62,-2.64 8.68,-1.69 17.37,-3.38 26.05,-5.07 3.33,-0.65 6.66,-1.29 10,-1.94 1.21,-0.24 1.21,-0.24 2.46,-0.48 10.71004,-2.08 21.41004,-4.17 32.12004,-6.26 5.56,-1.09 11.13,-2.18 16.69,-3.26 4.43,-0.87 8.85,-1.73 13.27,-2.6 3.3,-0.65 6.6,-1.29 9.9,-1.93 1.77,-0.35 1.77,-0.35 3.58,-0.71 1.08,-0.21 2.15,-0.42 3.26,-0.63 0.93,-0.18 1.86,-0.37 2.82,-0.55 2.46,-0.39 2.46,-0.39 6.46,-0.39 -0.01,-0.73 -0.02,-1.46 -0.04,-2.22 -0.09,-9.53 0.5,-18.94 1.19,-28.44 0.13,-1.76 0.25,-3.52 0.38,-5.28 0.34,-4.81 0.69,-9.62 1.04,-14.42 0.37,-5.2 0.74,-10.4 1.11,-15.59 0.9,-12.52 1.8,-25.04 2.71,-37.56 0.42,-5.9 0.85,-11.8 1.28,-17.7 1.41,-19.61 2.83,-39.23 4.25,-58.84 0.37,-5.07 0.74,-10.15 1.11,-15.23 0.09,-1.27 0.18,-2.53 0.28,-3.83 1.48,-20.49 2.96,-40.98 4.42,-61.47 1.51,-21.05 3.02,-42.09 4.56,-63.14 0.86,-11.81 1.71,-23.62 2.55,-35.44 0.71,-10.05 1.44,-20.1 2.18,-30.15 0.38,-5.12 0.75,-10.25 1.11,-15.38 0.32,-4.69 0.67,-9.39 1.02,-14.08 0.13,-1.7 0.25,-3.4 0.36,-5.1 0.16,-2.3 0.33,-4.61 0.52,-6.91 0.09,-1.28 0.18,-2.57 0.28,-3.89 1.22,-5.86 5.08,-8.84 9.63,-12.39 4.36,-3.49 8.49,-7.12 12.56,-10.94 4.76,-4.46 9.67,-8.64 14.76,-12.72 3.01,-2.5 5.88,-5.12 8.74,-7.78 3.71,-3.45 7.49,-6.76 11.44,-9.94 4.19,-3.36 8.15,-6.89 12.06,-10.56 4.76,-4.46 9.67,-8.64 14.76,-12.72 3.01,-2.5 5.88,-5.12 8.74,-7.78 3.71,-3.45 7.49,-6.76 11.44,-9.94 4.19,-3.36 8.15,-6.89 12.06,-10.56 4.76,-4.46 9.67,-8.64 14.76,-12.72 3.01,-2.5 5.88,-5.12 8.74,-7.78 3.71,-3.45 7.49,-6.76 11.44,-9.94 4.19,-3.36 8.15,-6.89 12.06,-10.56 4.78,-4.47 9.68,-8.68 14.8,-12.75 1.96,-1.63 3.79,-3.26 5.62,-5.02 0.49,-0.47 0.97,-0.93 1.47,-1.41 1.35,-1.3 2.68,-2.62 4.01,-3.95 3.12,-2.24 4.84,-2.26 8.6,-1.87 30.11,51.5 51.28,108.31 66,166 0.19,0.71 0.37,1.43 0.55,2.16 18.59,73.21 18.59,73.21 16.45,97.84 -1.52,1.98 -2.52,2.87 -4.95,3.54 -0.74,0.08 -1.49,0.15 -2.25,0.23 -0.86,0.1 -1.72,0.19 -2.6,0.29 -0.94,0.09 -1.87,0.18 -2.84,0.28 -0.99,0.1 -1.97,0.21 -2.99,0.32 -3.28,0.35 -6.55,0.68 -9.83,1.01 -2.27,0.24 -4.55,0.48 -6.82,0.72 -5.99,0.63 -11.98,1.25 -17.97,1.86 -8.45,0.87 -16.89,1.75 -25.33,2.64 -4.49,0.47 -8.99,0.94 -13.49,1.4 -2.05,0.21 -4.1,0.42 -6.16,0.64 -0.93,0.09 -1.87,0.19 -2.83,0.28 -0.86,0.09 -1.72,0.18 -2.6,0.27 -0.75,0.08 -1.49,0.16 -2.26,0.24 -2.08,0.28 -4.05,0.73 -6.08,1.28 0.09,0.86 0.09,0.86 0.19,1.74 1.9,19.2 2.01,38.36 2,57.64 0,1.3 0,2.61 0,3.95 0,3.78 -0.01,7.55 -0.02,11.32 0,1.14 0,2.28 0,3.46 -0.03,5.4 -0.21,10.57 -1.17,15.89 0.75,-0.01 1.49,-0.03 2.26,-0.05 11.58,-0.13 23.08,0.66 34.63,1.44 1.61,0.11 1.61,0.11 3.25,0.22 5.67,0.38 11.33,0.77 17,1.16 5.84,0.41 11.69,0.79 17.54,1.17 4.51,0.29 9.01,0.6 13.52,0.92 2.16,0.15 4.32,0.29 6.47,0.42 3.01,0.19 6.01,0.41 9.01,0.63 0.89,0.05 1.78,0.1 2.7,0.15 3.85,0.3 6.02,0.5 9.19,2.83 2.04,3.01 1.72,4.94 1.38,8.53 -0.12,1.32 -0.24,2.63 -0.36,3.99 -0.15,1.45 -0.3,2.89 -0.46,4.34 -0.15,1.52 -0.3,3.04 -0.45,4.56 -8.29,80.89 -30.71,159.13 -98.68,291.69004 -0.64,1.06 -1.28,2.11 -1.94,3.2 -8.52,13.96 -17.47,27.55 -27.06,40.8 -0.59,0.82 -1.18,1.64 -1.79,2.48 -7.51,10.35 -15.18,20.57 -23.21,30.52 -0.39,0.57 -0.79,1.14 -1.2,1.72 -2.03,2.76 -3.29,4.15 -6.65,5.01 -4.48,-1.04 -7.06,-3.42 -10.46,-6.42 -1.42,-1.2 -2.85,-2.4 -4.27,-3.6 -0.73,-0.62 -1.46,-1.24 -2.21,-1.88 -3.46,-2.87 -7.05,-5.56 -10.64,-8.27 -6.64,-5.01 -13.08,-10.22 -19.47,-15.54 -5.16,-4.28 -10.42,-8.38 -15.76,-12.44 -4.69,-3.59 -9.23,-7.35 -13.78,-11.11 -3.73,-3.07 -7.49,-5.87 -11.56,-8.47 -6.84,7.48 -6.84,7.48 -13.56,15.06 -1.14,1.32 -2.29,2.63 -3.44,3.94 -0.85,0.99 -0.85,0.99 -1.73,2 -7.47,8.47 -15.51,16.36 -23.52,24.31 -1.46,1.46 -2.91,2.91 -4.37,4.37 -2.67,2.66 -5.34,5.32 -8.01,7.98 -2.8,2.77 -5.58,5.56 -8.37,8.34 8.24,9.69 8.24,9.69 16.69,19.19 3.01,3.31 5.88,6.7 8.69,10.19 3.68,4.55 7.55,8.86 11.54,13.14 3.78,4.09 7.28,8.36 10.77,12.7 2.53,3.04 5.18,5.95 7.88,8.84 3.44,3.74 6.85,7.49 10.12,11.38 0.64,0.76 1.29,1.52 1.95,2.31 1.69,2.79 2.03,4.05 1.36,7.25 -2.13,2.51 -2.13,2.51 -5.12,5.13 -0.54,0.47 -1.08,0.95 -1.63,1.44 -5.06,4.39 -10.32,8.53 -15.62,12.62 -3.07,2.37 -6.08,4.79 -9.08,7.24 -8.57,6.96 -17.43,13.36 -26.55,19.57 -1.62,1.11 -1.62,1.11 -3.28,2.24 -22.59,15.36 -45.63,29.84 -69.72,42.76 -1.33,0.72 -1.33,0.72 -2.69,1.46 -74.65004,40.2 -157.27004,65.06 -243.54004,75.71 -0.69,0.08 -1.39,0.17 -2.1,0.26 -3.91,0.45 -7.74,0.84 -11.67,0.57 -2.4,-2.4 -2.35,-3.28 -2.7,-6.59 -0.1,-0.96 -0.2,-1.93 -0.31,-2.92 -0.11,-1.06 -0.21,-2.12 -0.32,-3.21 -0.12,-1.11 -0.23,-2.22 -0.35,-3.36 -0.39,-3.66 -0.76,-7.32 -1.13,-10.98 -0.26,-2.52 -0.52,-5.04 -0.79,-7.57 -1.32,-12.63 -2.59,-25.28 -3.87,-37.92 -0.11,-1.13 -0.23,-2.27 -0.34,-3.44 -0.55,-5.42 -1.09,-10.83 -1.63,-16.25 -0.19,-1.93 -0.38,-3.87 -0.58,-5.81 -0.08,-0.89 -0.17,-1.77 -0.25,-2.68 -0.34,-4.27 -0.34,-4.27 -1.73,-8.27 -0.59,0.06 -1.19,0.12 -1.8,0.19 -18.5,1.78 -36.93,2.01 -55.51,2 -1.81,0 -1.81,0 -3.65,0 -3.49,0 -6.98,-0.01 -10.46,-0.02 -1.05,0 -2.1,0 -3.18,0 -5.55,-0.04 -10.9,-0.35 -16.4,-1.17 -0.04,0.86 -0.09,1.73 -0.14,2.61 -1.18,21.08 -2.41,42.16 -3.82,63.22 -0.27,4.01 -0.53,8.02 -0.78,12.03 -0.25,3.99 -0.52,7.98 -0.79,11.97 -0.1,1.49 -0.19,2.99 -0.28,4.49 -0.13,2.06 -0.27,4.11 -0.42,6.17 -0.07,1.17 -0.15,2.33 -0.23,3.53 -0.57,3.18 -1.28,4.69 -3.54,6.98 -2.21,0.35 -2.21,0.35 -4.86,0.13 -1.01,-0.08 -2.02,-0.15 -3.07,-0.23 -1.11,-0.11 -2.23,-0.22 -3.38,-0.34 -1.18,-0.1 -2.36,-0.2 -3.58,-0.31 -74.33,-6.92 -147.3,-24.63 -304.11,-100.25 -0.98,-0.61 -1.96,-1.22 -2.98,-1.86 -12.92,-8.08 -25.58,-16.41 -37.81,-25.5 -2.34,-1.74 -4.69,-3.45 -7.04,-5.17 -4,-2.91 -7.97,-5.85 -11.93,-8.81 -1.47,-1.09 -2.94,-2.17 -4.42,-3.25 -1.99,-1.45 -3.97,-2.93 -5.94,-4.41 -0.59,-0.42 -1.17,-0.84 -1.78,-1.27 -2.56,-1.96 -4.03,-3.58 -5.37,-6.52 0.43,-5.05 3.42,-7.78 6.71,-11.46 1.31,-1.52 2.62,-3.05 3.93,-4.57 0.63,-0.73 1.27,-1.45 1.92,-2.2 1.99,-2.3 3.9,-4.65 5.78,-7.04 3.34,-4.21 6.73,-8.39 10.12,-12.56 0.56,-0.68 1.11,-1.37 1.68,-2.07 2.82,-3.47 5.65,-6.94 8.47,-10.4 6.12,-7.51 12.17,-15.06 18.14,-22.69 3.47,-4.43 6.99,-8.83 10.52,-13.22 -7.92,-7.33 -7.92,-7.33 -16,-14.5 -9.9,-8.61 -19.33,-17.67 -28.59,-26.96 -1.86,-1.87 -3.73,-3.73 -5.6,-5.59 -1.21,-1.21 -2.41,-2.42 -3.62,-3.62 -0.54,-0.55 -1.09,-1.1 -1.66,-1.66 -3.38,-3.41 -6.5,-6.94 -9.53,-10.67 -5.48,3.9 -10.44,8.18 -15.36,12.76 -3.28,3.05 -6.64,5.94 -10.14,8.74 -3.97,3.2 -7.76,6.53 -11.5,10 -4.58,4.27 -9.33,8.26 -14.22,12.19 -3.54,2.95 -6.9,6.07 -10.28,9.21 -4.25,3.94 -8.69,7.61 -13.22,11.23 -2.26,1.73 -2.26,1.73 -3.71,3.62 -1.57,1.25 -1.57,1.25 -4.42,1.78 -4.18,-0.7 -5.93,-2.78 -8.52,-5.9 -0.72,-0.83 -0.72,-0.83 -1.45,-1.67 -1.41,-1.64 -2.8,-3.29 -4.18,-4.96 -0.66,-0.79 -1.31,-1.58 -1.99,-2.39 -2.04,-2.51 -4.02,-5.05 -6.01,-7.61 -1.05,-1.33 -2.1,-2.66 -3.15,-3.99 -21.68,-27.56 -41.3,-56.64 -58.85,-87.01 -0.68,-1.18 -0.68,-1.18 -1.37,-2.38 -2.97,-5.16 -5.82,-10.37 -8.63,-15.62 -0.52,-0.96 -1.03,-1.93 -1.57,-2.92 -14.03,-26.23004 -25.96,-53.23004 -36.43,-81.08004 -0.42,-1.12 -0.84,-2.24 -1.28,-3.4 -17.04,-45.41 -28.37,-92.67 -35.53,-140.6 -0.1,-0.69 -0.21,-1.39 -0.32,-2.11 -1.1,-7.38 -2.05,-14.77 -2.69,-22.2 -0.11,-1.21 -0.22,-2.43 -0.33,-3.68 0.15,-3.01 0.15,-3.01 1.39,-4.65 2.14,-1.65 3.47,-1.87 6.15,-2.14 0.89,-0.09 1.79,-0.19 2.71,-0.29 0.98,-0.09 1.96,-0.18 2.97,-0.28 1.04,-0.11 2.07,-0.21 3.14,-0.32 3.42,-0.36 6.85,-0.69 10.27,-1.03 2.38,-0.24 4.75,-0.48 7.12,-0.72 6.25,-0.64 12.5,-1.26 18.75,-1.88 6.37,-0.64 12.75,-1.29 19.12,-1.93 12.51,-1.27 25.02,-2.53 37.53,-3.77 -0.06,-0.8 -0.12,-1.6 -0.18,-2.43 -1.25,-17.22 -2.13,-34.33 -2.02,-51.61 0.02,-3.21 0.02,-6.43 0.02,-9.64 0.02,-9.83 0.1,-19.55 1.18,-29.32 -0.78,0.02 -1.56,0.03 -2.36,0.05 -10.56,0.11 -21.01,-0.57 -31.54,-1.32 -1.88,-0.14 -3.77,-0.27 -5.66,-0.4 -3.93,-0.28 -7.87,-0.56 -11.8,-0.84 -5.02,-0.36 -10.04,-0.71 -15.07,-1.06 -3.89,-0.27 -7.78,-0.54 -11.67,-0.82 -1.85,-0.13 -3.7,-0.26 -5.55,-0.39 -2.59,-0.18 -5.18,-0.37 -7.77,-0.55 -0.75,-0.06 -1.5,-0.11 -2.28,-0.16 -2.1,-0.15 -4.2,-0.32 -6.3,-0.51 -0.74,-0.06 -1.47,-0.13 -2.24,-0.19 -5.52,-0.57 -5.52,-0.57 -7.76,-2.81 -0.04,-2.84 0.05,-5.56 0.25,-8.39 0.05,-0.85 0.1,-1.7 0.16,-2.57 0.61,-9.29 1.6,-18.54 2.72,-27.79 0.16,-1.34 0.16,-1.34 0.32,-2.72 9.8,-80.76 33.63,-158.83 134.55,-332.53 0.95,-1.25 1.89,-2.49 2.83,-3.74 2.35,-3.12 4.76,-6.19 7.17,-9.26 0.97,-1.27 0.97,-1.27 1.96,-2.57 0.89,-1.11 0.89,-1.11 1.79,-2.24 0.49,-0.63 0.98,-1.25 1.49,-1.89 1.76,-1.3 1.76,-1.3 4.59,-1.8 4.1,0.65 6.25,2.58 9.17,5.31 1.15,1.03 2.3,2.05 3.46,3.07 0.58,0.52 1.17,1.04 1.78,1.58 2.75,2.4 5.62,4.63 8.51,6.85 6.02,4.68 11.91,9.49 17.78,14.35 9.95,8.23 19.98,16.37 30.08,24.42 4.49,3.61 8.94,7.27 13.39,10.92 3.56,-3.51 7.01,-7.11 10.38,-10.81 0.44,-0.48 0.89,-0.97 1.34,-1.46 2.59,-2.83 5.13,-5.69 7.64,-8.59 3.74,-4.28 7.61,-8.44 11.52,-12.58 0.7,-0.74 1.4,-1.48 2.13,-2.25 7.37,-7.79 14.81,-15.35 22.99,-22.31 1.34,-1.14 2.67,-2.29 4,-3.44 0.99,-0.84 1.98,-1.69 3,-2.56 -1.42,-4.46 -3.86,-7.33 -7.06,-10.62 -3.63,-3.85 -7.12,-7.74 -10.44,-11.88 -3.63,-4.52 -7.46,-8.78 -11.41,-13.02 -2.97,-3.21 -5.79,-6.5 -8.52,-9.92 -3.37,-4.18 -6.9,-8.14 -10.57,-12.06 -4.55,-4.86 -8.86,-9.85 -13.01,-15.06 -1.79,-2.2 -3.67,-4.25 -5.61,-6.31 -2.38,-3.13 -2.38,-3.13 -2.69,-5.63 4.08,-7.77 12.59,-13.16 19.31,-18.5 1.02,-0.81 2.04,-1.62 3.09,-2.45 2.93,-2.33 5.87,-4.63 8.83,-6.93 1.46,-1.13 2.92,-2.27 4.37,-3.41 12.93,-10.12 26.23,-19.47 39.99,-28.43 2.42,-1.58 4.84,-3.17 7.25,-4.77 77.97,-51.420004 167.32,-85.210004 285.97,-105.3800037 1.23,-0.17 2.46,-0.34 3.72,-0.51 16.7,-2.16 16.7,-2.16 20.78,-0.12 2.73,10.9399997 3.17,22.8399997 4.39,34.0399997 0.22,2.01 0.44,4.02 0.66,6.03 0.46,4.19 0.92,8.38 1.38,12.57 0.58,5.37 1.17,10.74 1.77,16.11 0.45,4.15 0.91,8.29 1.36,12.43 0.22,1.98 0.43,3.96 0.65,5.94 0.31,2.76 0.61,5.52 0.91,8.28 0.13,1.230004 0.13,1.230004 0.27,2.470004 0.37,3.41 0.61,6.7 0.61,10.13 0.62,-0.06 1.23,-0.12 1.87,-0.18 18.38,-1.73 36.62,-2.1 55.06,-2.01 2.88,0.01 5.77,0.01 8.65,0.01 2.81,0 5.63,0 8.44,0.01 1.96,0 3.92,0.01 5.87,0.01 6.46,0.03 12.72,0.3 19.11,1.16 -0.01,-0.78 -0.03,-1.56 -0.04,-2.36 -0.11,-10.540004 0.55,-20.960004 1.29,-31.470004 0.13,-1.88 0.26,-3.76 0.38,-5.65 0.28,-3.92 0.55,-7.84 0.83,-11.77 0.35,-5 0.69,-10.01 1.03,-15.01 0.27,-3.88 0.54,-7.77 0.81,-11.65 0.13,-1.84 0.26,-3.69 0.38,-5.53 1.29,-18.9299998 1.29,-18.9299998 3.32,-26.55999975 2.87,-1.43 5.04,-0.91 8.23,-0.65 z m -1.23,8.65000005 c -1.3,13.0099997 -2.41,26.0099997 -3.26,39.0599997 -0.18,2.79 -0.37,5.58 -0.55,8.37 -0.54,7.92 -1.07,15.84 -1.58,23.76 -0.32,4.88 -0.65,9.77 -0.98,14.66 -0.13,1.85 -0.25,3.7 -0.37,5.550004 -0.16,2.57 -0.33,5.13 -0.51,7.7 -0.05,0.76 -0.09,1.52 -0.14,2.3 -0.26,3.65 -0.53,5.49 -2.61,8.6 -2.92,0.07 -5.63,-0.05 -8.53,-0.3 -1.83,-0.12 -3.67,-0.24 -5.5,-0.36 -0.97,-0.06 -1.94,-0.12 -2.95,-0.18 -9.47,-0.49 -18.97,-0.35 -28.45,-0.35 -1.14,0 -2.28,0 -3.45,0 -15.64,0 -31.14,0.36 -46.72,1.75 -4.83,0.43 -9.55,0.6 -14.4,0.44 -1.52,-1.52 -1.34,-3.06 -1.57,-5.18 -0.1,-0.9 -0.21,-1.8 -0.31,-2.73 -0.11,-1 -0.22,-2 -0.33,-3.02 -0.12,-1.05 -0.24,-2.09 -0.36,-3.17 -0.39,-3.46 -0.77,-6.930004 -1.15,-10.400004 -0.27,-2.4 -0.53,-4.8 -0.8,-7.19 -0.71,-6.33 -1.41,-12.65 -2.11,-18.98 -0.71,-6.45 -1.43,-12.89 -2.15,-19.34 -1.41,-12.66 -2.82,-25.33 -4.22,-37.99 -1.41,-0.01 -2.82,-0.02 -4.24,-0.03 -0.78,0 -1.57,-0.01 -2.38,-0.01 -3.66,0.07 -7.23,0.56 -10.85,1.11 -1.17,0.17 -1.17,0.17 -2.37,0.34 -2.56,0.38 -5.11,0.77 -7.66,1.15 -1.32,0.21 -1.32,0.21 -2.67,0.41 -17.44,2.66 -34.66,5.99 -51.83,10.03 -0.68,0.16 -1.35,0.32 -2.05,0.48 -35.46,8.28 -70.4,19.35 -103.95,33.52 -1.05,0.45 -2.1,0.89 -3.18,1.35 -67.79,28.83 -128.4,67.490004 -184.82,114.650004 4.07,5.77 8.59,10.87 13.4,16.01 3.98,4.26 7.68,8.7 11.33,13.25 2.49,3.01 5.11,5.88 7.77,8.74 4.27,4.59 8.26,9.34 12.19,14.22 2.95,3.55 6.07,6.91 9.21,10.28 3.94,4.26 7.61,8.69 11.23,13.23 1.74,2.26 1.74,2.26 3.69,3.77 1.18,1.5 1.18,1.5 1.32,3.75 -1.77,4.27 -4.97,6.78 -8.39,9.81 -1.08,1 -1.08,1 -2.19,2.02 -2.18,1.98 -4.36,3.95 -6.56,5.92 -9.54,8.58 -18.45,17.57 -27.15,27.01 -1.66,1.79 -3.32,3.58 -4.99,5.36 -6.64,7.13 -13.26,14.41 -18.8,22.45 -2.06,2.18 -2.06,2.18 -4.44,2.8 -3.65,-0.86 -5.86,-2.95 -8.55,-5.43 -1.15,-1.02 -2.31,-2.03 -3.46,-3.04 -0.59,-0.53 -1.19,-1.05 -1.8,-1.59 -2.89,-2.5 -5.91,-4.84 -8.93,-7.18 -5.02,-3.91 -9.98,-7.89 -14.9,-11.93 -3.67,-3.01 -7.35,-6.01 -11.04,-9.01 -0.69,-0.56 -1.39,-1.13 -2.1,-1.71 -4.36,-3.54 -8.73,-7.06 -13.13,-10.54 -2.26,-1.83 -4.5,-3.67 -6.73,-5.53 -0.72,-0.59 -1.43,-1.18 -2.17,-1.79 -1.43,-1.18 -2.86,-2.37 -4.28,-3.56 -0.65,-0.55 -1.31,-1.09 -1.99,-1.65 -0.88,-0.73 -0.88,-0.73 -1.77,-1.48 -1.92,-1.28 -3.52,-1.76 -5.77,-2.18 -3.36,4.32 -6.68,8.65 -10,13 -0.49,0.65 -0.98,1.29 -1.49,1.95 -22.69,29.74 -42.63,61.65 -60.21,94.64 -1.15,2.14 -2.32,4.27 -3.51,6.4 -36.02,65.18 -57.22,140.14 -71.16,237.14 -0.09,0.73 -0.17,1.47 -0.26,2.22 -0.24,2.1 -0.47,4.19 -0.7,6.29 -0.2,1.77 -0.2,1.77 -0.39,3.59 -0.22,3.03 -0.3,5.97 -0.29,9.01 0,0.89 0,1.79 0,2.71 0.01,0.68 0.01,1.35 0.01,2.05 13.72,1.46 27.44,2.6 41.21,3.51 1.94,0.13 3.89,0.26 5.83,0.4 5.04,0.34 10.09,0.67 15.13,1.01 5.18,0.35 10.35,0.7 15.53,1.05 10.1,0.68 20.2,1.36 30.3,2.03 1.05,4.66 0.89,8.9 0.57,13.63 -1.3,23.34 -0.9,46.69 0.72,70.01 0.54,7.81 0.82,15.54 0.71,23.36 -11.35,1.75 -22.73,2.97 -34.15,4.13 -1.91,0.2 -3.83,0.39 -5.74,0.59 -5,0.51 -9.99,1.02 -14.99,1.53 -8.02,0.82 -16.04,1.64 -24.06,2.47 -2.78,0.28 -5.57,0.56 -8.36,0.85 -1.71,0.17 -3.42,0.35 -5.14,0.52 -0.76,0.08 -1.53,0.16 -2.32,0.24 -4.43,0.45 -8.83,1.01 -13.24,1.67 0.52,11.8 2.08,23.3 4,34.94 0.16,0.93 0.31,1.86 0.47,2.82 13.41,81.02 40.77,160.81 133.53,307.24004 0.7,0.91 0.7,0.91 1.41,1.84 5.52,7.15 11.18,14.14 17.07,20.99 2,2.33 3.82,4.61 5.52,7.17 4.7,-1.44 7.68,-4.21 11.13,-7.56 4.01,-3.81 8.05,-7.48 12.37,-10.94 4.17,-3.34 8.11,-6.85 12,-10.5 4.76,-4.46 9.67,-8.64 14.76,-12.72 3.53,-2.93 6.89,-6.05 10.25,-9.18 4.18,-3.87 8.55,-7.48 13.02,-11.03 2.58,-2.09 2.58,-2.09 5.11,-4.77 2.36,-2.3 2.36,-2.3 5.24,-3.11 4.14,1.08 5.54,3.05 8.14,6.34 6.97,8.69 14.88,16.53 22.76,24.38 1.79,1.78 3.58,3.58 5.36,5.37 5.79,5.79 11.6,11.45 17.86,16.72 1.29,1.12 2.57,2.24 3.85,3.35 1.26,1.1 2.52,2.19 3.78,3.28 0.63,0.54 1.26,1.09 1.9,1.65 0.94,0.81 0.94,0.81 1.89,1.64 0.59,0.52 1.19,1.05 1.81,1.59 1.74,1.51 1.74,1.51 3.6,2.79 1.7,1.23 1.7,1.23 4.17,3.7 0.28,4.55 -1.48,7.09 -4.44,10.44 -0.47,0.52 -0.94,1.03 -1.43,1.56 -1.01,1.15 -2.02,2.29 -3.03,3.44 -0.51,0.59 -1.03,1.17 -1.56,1.78 -2.45,2.84 -4.74,5.81 -7.04,8.78 -3.56,4.59 -7.21,9.09 -11,13.5 -4.18,4.9 -8.2,9.9 -12.15,14.98 -4.35,5.57 -8.83,11.01 -13.33,16.45 -4.4,5.31 -8.74,10.66 -13.02,16.07 3.67,3.8 7.51,7.21 11.63,10.5 0.64,0.52 1.28,1.03 1.94,1.56 6.78,5.35 13.91,10.16 21.07,14.99 3.36,2.25 6.63,4.59 9.86,7.01 7.85,5.78 16.21,10.82 24.5,15.94 0.65,0.4 1.29,0.8 1.96,1.21 37.12,22.84 76.03,42.24 116.82,57.58 2.07,0.78 4.14,1.56 6.2,2.36 48.08,18.5 98.93,29.82 149.9,36.66 0.77,0.11 1.54,0.22 2.34,0.32 0.75,0.11 1.5,0.21 2.28,0.31 0.65,0.09 1.3,0.18 1.97,0.27 7.2,0.89 14.35,1.51 21.6,1.85 0.86,0.05 1.73,0.09 2.62,0.13 2.1,0.11 4.21,0.21 6.31,0.31 0.13,-1.87 0.13,-1.87 0.26,-3.78 0.81,-11.77 1.62,-23.54 2.43,-35.31 0.42,-6.05 0.83,-12.1 1.25,-18.15 0.4,-5.84 0.8,-11.69 1.2,-17.53 0.16,-2.22 0.31,-4.45 0.46,-6.68 0.21,-3.12 0.43,-6.24 0.65,-9.37 0.06,-0.91 0.12,-1.83 0.18,-2.77 0.37,-5.17 0.88,-10.28 1.57,-15.41 1.06,0.01 1.06,0.01 2.14,0.02 8.96,0.05 17.91,0.09 26.86,0.11 1.07,0 1.07,0 2.16,0 19.89,0.04 39.7,-0.06 59.53,-1.94 5.1,-0.29 10.2,-0.22 15.31,-0.19 0.76,7.07 1.52,14.13 2.28,21.2 0.27,2.53 0.55,5.06 0.82,7.59 1.48,13.82 2.96,27.65 4.38,41.48 0.11,1.11 0.23,2.22 0.35,3.36 0.54,5.26 1.08,10.53 1.61,15.79 0.2,1.89 0.39,3.77 0.58,5.66 0.09,0.85 0.17,1.7 0.26,2.58 0.08,0.78 0.16,1.57 0.25,2.37 0.1,1.01 0.1,1.01 0.2,2.05 0.29,2.02 0.74,3.95 1.27,5.92 10.74,-0.55 21.21,-1.92 31.82,-3.62 0.82,-0.13 1.64,-0.26 2.49,-0.4 63.31,-10.14 124.62,-28.78 182.69,-55.98 1.03,-0.47 2.06,-0.95 3.12,-1.44 32.00004,-14.81 62.88004,-32.5 91.88004,-52.56 0.85,-0.58 1.69,-1.15 2.56,-1.75 16.82,-11.54 32.9,-23.87 48.67,-36.8 3.9,-3.18 7.84,-6.32 11.77,-9.45 -1.5,-3.45 -3.5,-5.82 -6.06,-8.56 -3.23,-3.52 -6.32,-7.09 -9.31,-10.81 -3.68,-4.56 -7.55,-8.86 -11.54,-13.15 -3.78,-4.08 -7.28,-8.36 -10.77,-12.7 -2.52,-3.02 -5.14,-5.9 -7.82,-8.78 -4.3,-4.62 -8.34,-9.39 -12.29,-14.33 -2.97,-3.59 -6.19,-6.94 -9.46,-10.28 -2.06,-2.82 -2.43,-4.95 -2.75,-8.39 0.53,-0.21 1.06,-0.42 1.6,-0.63 3.41,-1.94 6.08,-4.56 8.9,-7.24 1,-0.95 1,-0.95 2.02,-1.91 7.46,-7.1 14.75,-14.38 22.05,-21.66 0.61,-0.6 1.22,-1.21 1.85,-1.84 6.41,-6.39 12.75,-12.78 18.58,-19.72 1.06,-1.22 2.11,-2.44 3.17,-3.67 1.01,-1.17 2.01,-2.34 3.02,-3.52 0.76,-0.88 0.76,-0.88 1.54,-1.78 0.49,-0.58 0.99,-1.16 1.5,-1.76 0.48,-0.55 0.96,-1.1 1.45,-1.67 1.2,-1.45 2.29,-2.98 3.37,-4.52 1.95,-2.08 1.95,-2.08 4.36,-2.66 3.56,0.8 5.31,2.47 8.03,4.89 1.06,0.93 2.13,1.86 3.2,2.78 0.55,0.48 1.1,0.97 1.67,1.46 2.76,2.37 5.63,4.6 8.51,6.83 4.92,3.84 9.81,7.71 14.68,11.62 4.82,3.86 9.65,7.7 14.5,11.5 5.49,4.3 10.93,8.64 16.37,13 6.5,5.21 13.07,10.36 19.63,15.5 3.17,-1.36 4.91,-2.77 7,-5.5 0.55,-0.71 1.1,-1.42 1.67,-2.16 0.58,-0.77 1.17,-1.54 1.77,-2.34 0.62,-0.81 1.24,-1.62 1.88,-2.45 1.9,-2.51 3.8,-5.03 5.68,-7.55 0.54,-0.72 1.08,-1.43 1.63,-2.17 39.84,-53.42 72,-112.46004 95.37,-174.83004 0.43,-1.12 0.85,-2.24 1.28,-3.39 20.84,-55.53 39.01,-119.87 38.72,-179.61 -0.58,-0.04 -1.16,-0.08 -1.76,-0.12 -14.11,-0.98 -28.22,-1.96 -42.33,-2.96 -6.83,-0.47 -13.65,-0.95 -20.48,-1.42 -6.58,-0.46 -13.16,-0.92 -19.74,-1.39 -2.52,-0.17 -5.03,-0.35 -7.55,-0.52 -3.51,-0.24 -7.02,-0.49 -10.54,-0.74 -1.05,-0.07 -2.1,-0.14 -3.18,-0.22 -0.95,-0.06 -1.9,-0.13 -2.89,-0.2 -0.83,-0.06 -1.66,-0.12 -2.52,-0.18 -2.01,-0.25 -2.01,-0.25 -4.01,-1.25 0.01,-1.05 0.01,-1.05 0.02,-2.13 0.09,-9.04 0.14,-18.08 0.17,-27.12 0,-0.72 0.01,-1.44 0.01,-2.19 0.08,-25.64 -1.03,-51 -3.2,-76.56 1.02,-0.1 2.03,-0.21 3.07,-0.32 9.65,-1.01 19.29,-2.03 28.94,-3.04 4.95,-0.52 9.91,-1.05 14.87,-1.57 31.09,-3.25 31.09,-3.25 62.12,-7.07 -0.56,-10.66 -1.88,-21.08 -3.56,-31.62 -0.19,-1.23 -0.19,-1.23 -0.39,-2.48 -2.9,-18.15 -6.71,-36.04 -11.05,-53.9 -0.3,-1.26 -0.61,-2.53 -0.92,-3.84 -12.5,-50.84 -31.73,-99.21 -54.83,-146.1 -0.73,-1.5 -0.73,-1.5 -1.48,-3.03 -0.68,-1.36 -0.68,-1.36 -1.38,-2.74 -0.58,-1.18 -0.58,-1.18 -1.18,-2.38 -1.21,-2.21 -1.21,-2.21 -4.21,-3.91 -6.04,4.8 -11.87,9.73 -17.5,15 -4.76,4.46 -9.66,8.64 -14.75,12.73 -3.01,2.49 -5.89,5.11 -8.75,7.77 -3.71,3.45 -7.48,6.77 -11.43,9.94 -4.19,3.37 -8.15,6.89 -12.07,10.56 -4.76,4.46 -9.66,8.64 -14.75,12.73 -3.01,2.49 -5.89,5.11 -8.75,7.77 -3.71,3.45 -7.48,6.77 -11.43,9.94 -4.78,3.84 -9.26,7.93 -13.73,12.12 -4.19,3.9 -8.56,7.52 -13.02,11.1 -3.22,2.67 -6.27,5.49 -9.32,8.34 -4.76,4.46 -9.66,8.64 -14.75,12.73 -3.01,2.49 -5.89,5.11 -8.75,7.77 -5.47,5.09 -11.18,9.81 -17,14.5 -5.92,4.44 -5.92,4.44 -8.32,11.06 -0.1,1.35 -0.2,2.69 -0.29,4.04 -0.06,0.74 -0.11,1.48 -0.17,2.25 -0.18,2.51 -0.35,5.03 -0.53,7.55 -0.13,1.81 -0.26,3.62 -0.39,5.43 -0.36,5 -0.72,9.99 -1.07,14.99 -0.39,5.38 -0.77,10.76 -1.16,16.14 -0.67,9.33 -1.34,18.66 -2.01,27.99 -1.05,14.74 -2.11,29.48 -3.18,44.21 -0.36,5.04 -0.72,10.08 -1.09,15.11 -0.09,1.26 -0.18,2.52 -0.27,3.82 -1.03,14.34 -2.07,28.68 -3.1,43.01 -0.09,1.32 -0.19,2.63 -0.28,3.98 -1.53,21.26 -3.06,42.52 -4.58,63.79 -1.56,21.81 -3.13,43.61 -4.71,65.42 -0.97,13.46 -1.94,26.93 -2.89,40.39 -0.66,9.22 -1.32,18.44 -1.99,27.66 -0.39,5.33 -0.78,10.66 -1.15,15.98 -0.34,4.87 -0.69,9.74 -1.05,14.61 -0.13,1.77 -0.26,3.54 -0.38,5.31 -0.16,2.39 -0.34,4.78 -0.52,7.17 -0.07,1.04 -0.07,1.04 -0.13,2.11 -0.16,1.92 -0.16,1.92 -0.74,4.98 -3.02,2.01 -4.67,2.5 -8.16,3.18 -1.08,0.21 -2.15,0.42 -3.26,0.64 -1.78,0.34 -1.78,0.34 -3.59,0.69 -1.26,0.24 -2.52,0.49 -3.81,0.74 -3.5,0.68 -6.99,1.36 -10.49,2.03 -3.76,0.72 -7.52,1.45 -11.28,2.19 -6.52,1.26 -13.05,2.53 -19.58,3.79 -9.55,1.84 -19.11,3.69 -28.66004,5.55 -17.31,3.36 -34.62,6.71 -51.94,10.05 -1.82,0.36004 -3.65,0.71004 -5.48,1.06004 -1.35,0.26 -1.35,0.26 -2.72,0.53 -9.37,1.81 -18.75,3.63 -28.12,5.44 -0.81,0.16 -1.62,0.31 -2.45,0.48 -4.04,0.78 -8.09,1.56 -12.13,2.34 -8.02,1.56 -16.04,3.11 -24.06,4.66 -0.79,0.15 -1.58,0.31 -2.39,0.46 -11.12,2.16 -22.24,4.31 -33.37,6.46 -32.63,6.31 -65.26,12.63 -97.88,19 -5.3,1.03 -10.6,2.07 -15.89,3.1 -3.47,0.68 -6.93,1.35 -10.39,2.03 -0.85,0.16 -1.7,0.33 -2.57,0.5 -10.04,1.96 -20.08,3.92 -30.12,5.89 -6.21,1.21 -12.42,2.42 -18.62,3.63 -4.27,0.84 -8.54,1.67 -12.8,2.51 -3.19,0.63 -6.38,1.25 -9.56,1.87 -1.14,0.22 -2.28,0.44 -3.45,0.68 -1.03,0.2 -2.07,0.4 -3.13,0.6 -0.9,0.18 -1.79,0.35 -2.71,0.53 -2.39,0.37 -2.39,0.37 -6.39,0.37 -0.23,-0.55 -0.47,-1.11 -0.71,-1.68 -1.6,-2.88 -3.59,-4.98 -5.85,-7.38 -3.43,-3.69 -6.72,-7.44 -9.87,-11.38 -3.66,-4.52 -7.5,-8.8 -11.46,-13.06 -3.94,-4.26 -7.61,-8.69 -11.23,-13.22 -1.75,-2.25 -1.75,-2.25 -3.63,-3.77 -1.25,-1.51 -1.25,-1.51 -1.84,-3.82 0.92,-4.18 3.96,-6.12 7.16,-8.69004 1.38,-1.15 2.77,-2.31 4.16,-3.47 1.07,-0.88 1.07,-0.88 2.16,-1.77 3.25,-2.7 6.43,-5.48 9.61,-8.26 1.25,-1.08 2.5,-2.16 3.75,-3.25 0.62,-0.53 1.24,-1.07 1.88,-1.62 5.62,-4.88 5.62,-4.88 7.5,-6.5 1.25,-1.08 2.49,-2.16 3.74,-3.24 3.18,-2.76 6.37,-5.52 9.56,-8.28 5.48,-4.74 10.96,-9.48 16.32,-14.36 3.32,-3.01 6.71,-5.87 10.19,-8.69 4.78,-3.86 9.3,-7.93 13.82,-12.09 2.66,-2.39 5.39,-4.66 8.18,-6.91 4,-3.22 7.81,-6.56 11.56,-10.06 4.61,-4.29 9.38,-8.3 14.29,-12.25 2.82,-2.34 5.52,-4.77 8.21,-7.25 3.56,-3.27 7.18,-6.4 10.94,-9.44 4.54,-3.65 8.82,-7.51 13.08,-11.47 4.09,-3.78 8.36,-7.28 12.7,-10.78 3.02,-2.51 5.91,-5.13 8.78,-7.81 4.61,-4.29 9.38,-8.3 14.29,-12.25 2.82,-2.34 5.52,-4.77 8.21,-7.25 3.56,-3.27 7.18,-6.4 10.94,-9.44 4.54,-3.65 8.82,-7.51 13.08,-11.47 4.08,-3.77 8.34,-7.27 12.67,-10.74 3.77,-3.14 7.36,-6.45 10.93,-9.81 3.69,-3.44 3.69,-3.44 5.88,-4.54 -3.96,-8.9 -12.01,-16.17 -18.53,-23.25 -2.39,-2.67 -4.66,-5.4 -6.9,-8.19 -3.66,-4.53 -7.51,-8.81 -11.48,-13.08 -3.78,-4.08 -7.28,-8.36 -10.77,-12.7 -2.52,-3.02 -5.14,-5.9 -7.82,-8.78 -4.29,-4.61 -8.3,-9.38 -12.25,-14.28 -2.33,-2.82 -4.77,-5.52 -7.25,-8.22 -3.27,-3.55 -6.4,-7.17 -9.43,-10.94 -3.66,-4.53 -7.51,-8.81 -11.48,-13.08 -3.78,-4.08 -7.28,-8.36 -10.77,-12.7 -2.52,-3.02 -5.14,-5.9 -7.82,-8.78 -4.29,-4.61 -8.3,-9.38 -12.25,-14.28 -2.33,-2.82 -4.77,-5.52 -7.25,-8.22 -3.27,-3.55 -6.4,-7.17 -9.43,-10.94 -3.23,-3.99 -6.57,-7.8 -10.07,-11.56 -4.29,-4.61 -8.3,-9.38 -12.25,-14.28 -2.33,-2.82 -4.77,-5.52 -7.25,-8.22 -3.27,-3.55 -6.4,-7.17 -9.43,-10.94 -3.66,-4.52 -7.5,-8.8 -11.47,-13.06 -3.9,-4.22 -7.54,-8.62 -11.12,-13.12 -1.89,-2.27 -3.86,-4.33 -5.98,-6.38 -8.6,3.84 -15.67,11.54 -22.51,17.91 -4.11,3.81 -8.41,7.33 -12.77,10.85 -2.82,2.33 -5.52,4.76 -8.22,7.24 -3.55,3.28 -7.17,6.41 -10.93,9.44 -4.54,3.66 -8.82,7.51 -13.09,11.48 -4.08,3.78 -8.36,7.28 -12.7,10.77 -3.02,2.51 -5.9,5.14 -8.78,7.81 -4.61,4.29 -9.37,8.31 -14.28,12.26 -2.82,2.33 -5.52,4.76 -8.22,7.24 -3.55,3.28 -7.17,6.41 -10.93,9.44 -4.54,3.66 -8.82,7.51 -13.09,11.48 -4.08,3.78 -8.36,7.28 -12.7,10.77 -3.02,2.51 -5.9,5.14 -8.78,7.81 -4.61,4.29 -9.37,8.31 -14.28,12.26 -2.82,2.33 -5.52,4.76 -8.22,7.24 -3.55,3.28 -7.17,6.41 -10.93,9.44 -4.54,3.66 -8.82,7.51 -13.09,11.48 -4.08,3.78 -8.36,7.28 -12.7,10.77 -3.02,2.51 -5.9,5.14 -8.78,7.81 -4.6,4.28 -9.35,8.3 -14.26,12.23 -1.96,1.63 -3.82,3.26 -5.66,5.02 -1.43,1.36 -1.43,1.36 -2.89,2.75 -0.85,0.84 -1.7,1.67 -2.58,2.53 -3.01,2.27 -4.85,2.94 -8.61,2.97 -1.69,-1.16 -1.69,-1.16 -3.12,-3.06 -0.59,-0.74 -1.17,-1.47 -1.77,-2.23 -0.7,-0.9 -1.39,-1.79 -2.11,-2.71 -1.91,-2.29 -3.86,-4.55 -5.81,-6.81 -0.52,-0.61 -1.03,-1.21 -1.57,-1.83 -3.2,-3.75 -6.47,-7.42 -9.8,-11.05 -4.08,-4.44 -7.93,-9.03 -11.7,-13.74 -2.49,-3.02 -5.19,-5.8 -8,-8.52 -1.69,-3.09 -0.87,-5.75 -0.12,-9.05 1.27,-4.22 2.72,-8.38 4.18,-12.54 0.42,-1.24 0.85,-2.48 1.3,-3.77 0.93,-2.69 1.86,-5.38 2.8,-8.08 1.5,-4.3 2.99,-8.6 4.47,-12.9 1.81,-5.23 3.62,-10.45 5.43,-15.67 3.08,-8.89 6.16,-17.79 9.22,-26.7 0.32,-0.94 0.32,-0.94 0.65,-1.89 1.08,-3.13 2.15,-6.26 3.23,-9.39 1.95,-5.67 3.9,-11.35 5.86,-17.02 1.08,-3.15 2.17,-6.31 3.25,-9.46 0.33,-0.94 0.33,-0.94 0.66,-1.89 3.49,-10.16 6.99,-20.31 10.48,-30.47 1.53,-4.44 3.06,-8.89 4.59,-13.33 4.18,-12.14 8.36,-24.28 12.54,-36.41 1.99,-5.79 3.98,-11.57 5.97,-17.35 0.33,-0.96 0.33,-0.96 0.66,-1.93 6.73,-19.56 13.49,-39.12 20.25,-58.67 6.43,-18.62 12.84,-37.25 19.23,-55.89 7.6,-22.15 15.21,-44.31 22.86,-66.45 0.39,-1.14 0.79,-2.28 1.19,-3.46 2.39,-6.91 4.78,-13.82 7.18,-20.73 0.28,-0.78 0.55,-1.56 0.83,-2.37 0.71,-2.02 1.42,-4.05 2.13,-6.08 0.38,-1.07 0.76,-2.14 1.15,-3.24 0.89,-2.31 0.89,-2.31 1.89,-3.31 2.53,-0.09 5.02,-0.12 7.54,-0.1 0.77,0 1.53,0.01 2.32,0.01 7.86,0.06 15.69,0.37 23.54,0.74 1.57,0.07 3.14,0.14 4.72,0.21 4.27,0.19 8.54,0.38 12.81,0.58 4.63,0.21 9.25,0.42 13.88,0.63 8,0.35 16,0.72 24,1.08 11.57,0.53 23.14,1.05 34.71,1.57 18.79,0.85 37.58,1.69 56.36,2.55 18.23,0.82 36.45,1.65 54.68,2.47 1.12,0.05 2.25,0.1 3.41,0.15 12.27,0.56 24.54,1.11 36.81,1.66 1.08,0.05 2.16,0.1 3.27,0.15 4.31,0.2 8.61,0.39 12.92,0.58 12.61,0.57 25.23,1.14 37.84,1.71 7.9,0.36 15.8,0.72 23.7,1.08 4.56,0.2 9.12,0.41 13.68,0.62 4.17,0.19 8.35,0.38 12.52,0.56 1.51,0.07 3.02,0.14 4.53,0.21 2.05,0.09 4.1,0.19 6.15,0.28 1.14,0.05 2.28,0.1 3.46,0.15 6.97,0.56 6.97,0.56 12.97,-2.38 0.67,-0.53 1.35,-1.07 2.04,-1.62 0.71,-0.58 1.42,-1.16 2.14,-1.76 1.53,-1.21 3.05,-2.42 4.57,-3.62 1.13,-0.9 1.13,-0.9 2.28,-1.82 2.94,-2.31 5.97,-4.48 9.03,-6.63 7.97,-5.63 15.82,-11.44 23.67,-17.24 3.98,-2.95 7.97,-5.88 11.95,-8.82 1.59,-1.16 3.17,-2.33 4.75,-3.5 3.17,-2.33 6.34,-4.66 9.5,-7 0.79,-0.58 1.57,-1.15 2.38,-1.75 1.58,-1.16 3.16,-2.33 4.75,-3.5 3.97,-2.92 7.94,-5.85 11.91,-8.78 8.45,-6.24 16.92,-12.44 25.45,-18.58 7.83,-5.64 15.60004,-11.38 23.37004,-17.12 3.96,-2.93 7.93,-5.85 11.89,-8.77 1.59,-1.16 3.17,-2.33 4.75,-3.5 9.5,-7 9.5,-7 11.88,-8.75 1.58,-1.16 3.15,-2.32 4.73,-3.48 4.08,-3.01 8.16,-6.01 12.25,-9.01 1.26,-0.93 1.26,-0.93 2.54,-1.88 1.59,-1.16 3.18,-2.33 4.77,-3.5 2.2,-1.61 4.4,-3.24 6.58,-4.88 0.85,-0.62 1.69,-1.25 2.56,-1.89 0.82,-0.63 1.65,-1.25 2.5,-1.89 0.75,-0.57 1.51,-1.14 2.29,-1.72 0.82,-0.74 0.82,-0.74 1.65,-1.5 0,-0.66 0,-1.32 0,-2 -1.44,-1.21 -1.44,-1.21 -3.38,-2.36 -0.74,-0.47 -1.49,-0.94 -2.25,-1.42 -0.82,-0.5 -1.65,-1.01 -2.49,-1.53 -0.85,-0.53 -1.71,-1.06 -2.59,-1.61 -2.75,-1.7 -5.52,-3.39 -8.29,-5.08 -0.88,-0.53 -1.76,-1.07 -2.67,-1.62 C 987.49656,64.277656 907.25656,32.457656 800.12656,13.687656 c -0.82,-0.12 -1.63,-0.25 -2.47,-0.37 -9.14,-1.38 -18.28,-2.55 -27.48,-3.4899997 -0.83,-0.08 -1.66,-0.17 -2.51,-0.25 -0.79,-0.08 -1.57,-0.16 -2.38,-0.23 -0.68,-0.07 -1.37,-0.14 -2.07,-0.2100001 -2.74,-0.17 -5.47,-0.1599999 -8.22,-0.1399999 z"
     fill="#000000"
     id="svg_3" />
</svg>
