<?xml version="1.0" standalone="no"?>
<!DOCTYPE svg PUBLIC "-//W3C//DTD SVG 20010904//EN"
 "http://www.w3.org/TR/2001/REC-SVG-20010904/DTD/svg10.dtd">
<svg version="1.0" xmlns="http://www.w3.org/2000/svg"
 width="215.000000pt" height="244.000000pt" viewBox="0 0 215.000000 244.000000"
 preserveAspectRatio="xMidYMid meet">

<g transform="translate(0.000000,244.000000) scale(0.100000,-0.100000)"
fill="#000000" stroke="none">
<path d="M50 1750 l0 -430 110 0 110 0 0 30 0 30 -70 0 -70 0 0 170 0 170 50
0 c49 0 50 1 50 30 0 29 -1 30 -50 30 l-50 0 0 170 0 170 70 0 70 0 0 30 0 30
-110 0 -110 0 0 -430z"/>
<path d="M410 1750 l0 -430 40 0 40 0 1 183 1 182 32 -180 31 -180 45 -3 45
-3 30 178 30 178 3 -177 2 -178 40 0 40 0 0 430 0 430 -39 0 -39 0 -12 -72
c-61 -361 -98 -561 -103 -548 -3 8 -27 139 -52 290 -25 151 -48 287 -51 303
-5 24 -10 27 -45 27 l-39 0 0 -430z"/>
<path d="M940 1750 l0 -430 35 0 35 0 0 430 0 430 -35 0 -35 0 0 -430z"/>
<path d="M1160 1751 l0 -431 40 0 40 0 0 228 c0 127 4 220 9 212 5 -8 28 -111
52 -227 l44 -213 38 0 37 0 0 430 0 430 -35 0 -35 0 0 -232 c0 -127 -3 -229
-6 -225 -3 3 -27 106 -53 229 l-47 223 -42 3 -42 3 0 -430z"/>
<path d="M1550 1750 l0 -430 110 0 110 0 0 30 0 30 -70 0 -70 0 0 170 0 170
55 0 c54 0 55 0 55 30 0 30 -1 30 -55 30 l-55 0 0 170 0 170 70 0 70 0 0 30 0
30 -110 0 -110 0 0 -430z"/>
<path d="M1924 2170 c-11 -4 -33 -22 -47 -40 -27 -31 -27 -34 -27 -178 1 -100
5 -154 14 -170 17 -32 65 -62 99 -62 15 0 36 -9 47 -20 18 -18 20 -33 20 -153
0 -117 -2 -136 -18 -150 -42 -38 -92 -5 -92 60 0 31 -2 33 -35 33 -34 0 -35
-1 -35 -40 0 -88 55 -136 144 -127 40 3 55 11 78 36 l28 31 0 154 c0 140 -2
156 -21 180 -25 32 -69 56 -103 56 -46 0 -56 31 -56 172 0 115 2 130 20 148
42 42 90 9 90 -62 0 -37 1 -38 35 -38 35 0 35 0 35 45 0 26 -7 59 -15 74 -25
48 -105 74 -161 51z"/>
<path d="M578 1218 c-9 -14 -13 -38 -10 -60 5 -45 22 -51 22 -9 0 16 6 32 13
34 9 4 9 8 -2 15 -9 7 -10 12 -2 16 6 4 11 11 11 17 0 17 -17 9 -32 -13z"/>
<path d="M67 1223 c-13 -12 -7 -37 15 -60 l21 -23 -24 -9 c-22 -9 -22 -10 -3
-10 20 -1 44 16 44 31 0 4 -9 16 -21 27 -20 18 -18 48 2 36 5 -4 9 -1 9 4 0
12 -33 15 -43 4z"/>
<path d="M190 1175 c0 -30 5 -55 10 -55 6 0 10 14 10 30 0 17 5 30 10 30 6 0
10 -13 10 -30 0 -16 5 -30 11 -30 6 0 9 16 7 38 -2 28 -7 37 -20 36 -11 -1
-18 5 -18 17 0 11 -4 19 -10 19 -5 0 -10 -25 -10 -55z"/>
<path d="M420 1175 c0 -30 5 -55 10 -55 6 0 10 25 10 55 0 30 -4 55 -10 55 -5
0 -10 -25 -10 -55z"/>
<path d="M650 1175 c0 -30 5 -55 10 -55 6 0 10 25 10 55 0 30 -4 55 -10 55 -5
0 -10 -25 -10 -55z"/>
<path d="M810 1215 c0 -8 -6 -15 -14 -15 -25 0 -36 -56 -15 -77 6 -6 19 -8 30
-6 16 4 19 15 19 59 0 30 -4 54 -10 54 -5 0 -10 -7 -10 -15z m0 -61 c0 -14 -4
-23 -10 -19 -5 3 -10 15 -10 26 0 10 5 19 10 19 6 0 10 -12 10 -26z"/>
<path d="M1100 1220 c0 -5 5 -10 10 -10 6 0 10 5 10 10 0 6 -4 10 -10 10 -5 0
-10 -4 -10 -10z"/>
<path d="M1210 1175 c0 -30 5 -55 10 -55 6 0 10 25 10 55 0 30 -4 55 -10 55
-5 0 -10 -25 -10 -55z"/>
<path d="M1286 1208 c-9 -36 -7 -88 4 -88 6 0 10 17 11 38 1 38 3 37 13 -10 8
-37 22 -35 32 5 l8 32 3 -32 c7 -55 18 -37 15 23 -4 62 -21 68 -35 13 -10 -35
-11 -34 -21 14 -8 33 -21 35 -30 5z"/>
<path d="M998 1208 c-3 -7 -3 -30 0 -50 6 -50 27 -50 26 0 -3 58 -3 62 -13 62
-5 0 -11 -6 -13 -12z"/>
<path d="M2063 1209 c-17 -17 0 -83 22 -87 16 -3 18 -1 8 9 -17 17 -17 46 -1
51 10 4 9 9 -3 21 -11 10 -20 12 -26 6z"/>
<path d="M140 1186 c-20 -25 -8 -61 20 -64 22 -2 23 -1 8 8 -22 13 -24 50 -3
50 8 0 15 5 15 10 0 15 -26 12 -40 -4z"/>
<path d="M276 1185 c-17 -46 10 -89 40 -65 23 20 15 74 -12 78 -13 2 -24 -4
-28 -13z m34 -25 c0 -16 -4 -30 -10 -30 -11 0 -14 43 -3 53 11 12 13 8 13 -23z"/>
<path d="M351 1182 c-12 -23 -4 -59 15 -66 17 -6 44 20 44 43 0 38 -42 54 -59
23z m39 -28 c0 -24 -14 -32 -25 -14 -9 14 4 52 16 45 5 -4 9 -17 9 -31z"/>
<path d="M496 1185 c-17 -46 10 -89 40 -65 23 20 15 74 -12 78 -13 2 -24 -4
-28 -13z m34 -25 c0 -16 -4 -30 -10 -30 -11 0 -14 43 -3 53 11 12 13 8 13 -23z"/>
<path d="M690 1158 c0 -21 5 -38 10 -38 6 0 10 14 10 30 0 17 5 30 10 30 6 0
10 -13 10 -30 0 -16 5 -30 10 -30 6 0 10 18 10 39 0 38 -2 40 -30 39 -28 -1
-30 -4 -30 -40z"/>
<path d="M850 1167 c0 -41 14 -55 46 -49 20 4 24 10 24 43 0 47 -17 52 -22 7
-2 -18 -7 -33 -13 -33 -5 0 -11 15 -13 33 -4 42 -22 42 -22 -1z"/>
<path d="M936 1191 c-8 -12 3 -41 15 -41 16 0 9 -18 -8 -23 -14 -4 -13 -5 4
-6 29 -1 38 16 19 38 -12 13 -13 20 -4 29 9 9 8 12 -4 12 -9 0 -19 -4 -22 -9z"/>
<path d="M1050 1158 c0 -21 5 -38 10 -38 6 0 10 14 10 30 0 17 5 30 10 30 6 0
10 4 10 9 0 6 -9 9 -20 8 -16 -1 -20 -8 -20 -39z"/>
<path d="M1100 1160 c0 -22 5 -40 10 -40 6 0 10 18 10 40 0 22 -4 40 -10 40
-5 0 -10 -18 -10 -40z"/>
<path d="M1140 1190 c0 -5 7 -7 15 -4 22 9 18 -5 -7 -26 -18 -14 -20 -20 -10
-32 19 -23 62 -11 62 17 0 39 -11 55 -36 55 -13 0 -24 -4 -24 -10z m40 -38 c0
-13 -12 -22 -22 -16 -10 6 -1 24 13 24 5 0 9 -4 9 -8z"/>
<path d="M1400 1191 c0 -6 7 -8 15 -5 22 9 18 -5 -7 -26 -18 -15 -20 -20 -10
-33 7 -8 21 -13 33 -10 16 5 19 13 17 42 -2 29 -8 37 -25 39 -13 2 -23 -1 -23
-7z m26 -58 c-10 -10 -19 5 -10 18 6 11 8 11 12 0 2 -7 1 -15 -2 -18z"/>
<path d="M1470 1158 c0 -21 5 -38 10 -38 6 0 10 14 10 30 0 17 5 30 10 30 6 0
10 -13 10 -30 0 -16 5 -30 10 -30 6 0 10 18 10 39 0 38 -2 40 -30 39 -28 -1
-30 -4 -30 -40z"/>
<path d="M1574 1187 c18 -13 18 -14 -3 -20 -23 -6 -30 -42 -8 -50 31 -10 48 5
45 42 -2 30 -7 37 -28 39 -24 3 -24 3 -6 -11z m12 -54 c-10 -10 -19 5 -10 18
6 11 8 11 12 0 2 -7 1 -15 -2 -18z"/>
<path d="M1637 1193 c-4 -3 -7 -20 -7 -36 0 -20 6 -30 20 -34 26 -7 25 -21 -2
-33 -21 -9 -20 -9 7 -7 29 2 30 4 33 60 3 54 2 57 -21 57 -13 0 -27 -3 -30 -7z
m33 -38 c0 -14 -4 -25 -10 -25 -5 0 -10 11 -10 25 0 14 5 25 10 25 6 0 10 -11
10 -25z"/>
<path d="M1710 1180 c-15 -27 4 -60 33 -59 21 0 21 1 -3 12 l-25 11 28 4 c21
2 27 8 23 19 -3 8 -6 19 -6 24 0 17 -39 9 -50 -11z m35 0 c3 -5 -1 -10 -10
-10 -9 0 -13 5 -10 10 3 6 8 10 10 10 2 0 7 -4 10 -10z"/>
<path d="M1780 1159 c0 -22 5 -39 10 -39 6 0 10 14 10 30 0 17 5 30 10 30 6 0
10 -13 10 -30 0 -16 5 -30 10 -30 6 0 10 14 10 30 0 17 5 30 10 30 6 0 10 -13
10 -30 0 -16 5 -30 11 -30 6 0 9 16 7 37 -3 37 -3 38 -50 39 l-48 2 0 -39z"/>
<path d="M1910 1186 c-7 -9 -10 -26 -6 -41 5 -19 13 -25 34 -24 l27 0 -25 11
-25 11 23 5 c17 2 22 9 20 25 -4 27 -30 33 -48 13z m35 -6 c3 -5 -1 -10 -10
-10 -9 0 -13 5 -10 10 3 6 8 10 10 10 2 0 7 -4 10 -10z"/>
<path d="M1980 1161 c0 -23 5 -41 10 -41 6 0 10 14 10 30 0 17 5 30 10 30 6 0
10 -13 10 -30 0 -16 5 -30 11 -30 6 0 9 16 7 38 -3 32 -7 37 -30 40 -27 3 -28
1 -28 -37z"/>
<path d="M898 566 c-13 -9 -18 -27 -18 -60 0 -46 0 -46 33 -45 23 1 26 3 10 6
-27 5 -31 30 -5 36 16 4 16 5 0 6 -27 2 -22 31 5 31 20 1 21 2 5 14 -10 7 -15
16 -11 19 11 12 -1 7 -19 -7z"/>
<path d="M158 554 c-12 -12 -9 -59 5 -78 8 -11 23 -17 38 -14 21 3 24 9 27 51
2 33 0 47 -7 42 -6 -3 -11 -24 -11 -46 0 -28 -4 -39 -15 -39 -14 0 -21 18 -27
68 -2 13 -6 20 -10 16z"/>
<path d="M261 508 c1 -48 2 -49 8 -18 l7 35 17 -32 c26 -49 47 -43 47 11 0 25
-4 48 -10 51 -6 4 -10 -9 -10 -32 l-1 -38 -20 38 c-11 20 -24 37 -29 37 -6 0
-9 -24 -9 -52z"/>
<path d="M360 510 c0 -27 5 -50 10 -50 6 0 10 23 10 50 0 28 -4 50 -10 50 -5
0 -10 -22 -10 -50z"/>
<path d="M404 535 c21 -84 46 -98 64 -36 7 21 12 44 12 50 0 23 -18 1 -25 -29
-8 -36 -21 -31 -30 10 -4 17 -11 30 -17 30 -6 0 -8 -10 -4 -25z"/>
<path d="M500 510 l0 -50 33 1 c23 1 26 3 10 6 -13 2 -23 11 -23 18 0 7 10 16
23 18 l22 4 -22 2 c-28 1 -31 31 -3 31 11 0 20 5 20 10 0 6 -13 10 -30 10 -29
0 -30 -1 -30 -50z"/>
<path d="M580 510 c0 -27 5 -50 10 -50 6 0 10 10 10 23 l1 22 20 -24 c22 -27
36 -23 20 7 -7 13 -7 22 2 31 9 10 8 15 -7 27 -11 8 -28 14 -38 14 -15 0 -18
-8 -18 -50z m48 18 c-6 -18 -28 -21 -28 -4 0 9 7 16 16 16 9 0 14 -5 12 -12z"/>
<path d="M688 553 c-24 -6 -23 -40 2 -53 22 -12 17 -35 -6 -26 -8 3 -14 1 -14
-4 0 -6 11 -10 25 -10 35 0 44 28 17 51 -27 21 -27 26 -4 31 9 2 13 6 7 9 -5
3 -18 4 -27 2z"/>
<path d="M750 510 c0 -27 5 -50 10 -50 6 0 10 23 10 50 0 28 -4 50 -10 50 -5
0 -10 -22 -10 -50z"/>
<path d="M790 550 c0 -5 5 -10 10 -10 6 0 10 -18 10 -40 0 -22 5 -40 10 -40 6
0 10 18 10 40 0 29 4 40 15 40 8 0 15 5 15 10 0 6 -16 10 -35 10 -19 0 -35 -4
-35 -10z"/>
<path d="M988 510 c-1 -28 0 -50 5 -50 4 0 7 9 7 19 0 28 18 36 22 9 5 -36 25
-31 36 9 l10 38 1 -37 c2 -57 21 -46 21 12 0 59 -21 69 -40 18 l-13 -33 -10
33 c-15 49 -35 40 -39 -18z"/>
<path d="M1132 544 c-42 -29 -23 -84 29 -84 41 0 57 70 20 90 -25 13 -22 13
-49 -6z m43 -39 c0 -23 -4 -30 -20 -30 -21 0 -31 25 -21 51 11 28 41 12 41
-21z"/>
<path d="M1220 510 c0 -27 5 -50 10 -50 6 0 10 9 10 20 0 13 7 20 20 20 13 0
20 -7 20 -20 0 -11 5 -20 10 -20 6 0 10 23 10 50 0 28 -4 50 -10 50 -5 0 -10
-9 -10 -20 0 -13 -7 -20 -20 -20 -13 0 -20 7 -20 20 0 11 -4 20 -10 20 -5 0
-10 -22 -10 -50z"/>
<path d="M1342 538 c-18 -46 -22 -78 -12 -78 5 0 10 5 10 10 0 14 38 12 43 -2
2 -7 8 -10 12 -6 10 9 -18 91 -33 96 -7 2 -16 -7 -20 -20z m28 -23 c0 -8 -4
-15 -10 -15 -5 0 -10 7 -10 15 0 8 5 15 10 15 6 0 10 -7 10 -15z"/>
<path d="M1430 548 c0 -7 -3 -30 -6 -50 -4 -24 -3 -38 4 -38 6 0 12 15 15 33
l3 32 9 -33 c9 -40 25 -37 41 9 l12 34 1 -37 c1 -21 6 -38 12 -38 6 0 9 19 7
48 -4 57 -27 64 -41 12 l-9 -35 -12 34 c-11 35 -36 54 -36 29z"/>
<path d="M1557 554 c-11 -11 -8 -94 3 -94 6 0 10 15 11 33 l1 32 10 -32 c14
-42 22 -41 41 5 l15 37 1 -37 c1 -21 6 -38 12 -38 8 0 10 15 5 47 -3 25 -8 48
-10 51 -10 9 -25 -10 -32 -41 l-7 -32 -12 34 c-11 35 -25 47 -38 35z"/>
<path d="M1680 510 l0 -50 33 1 c23 1 26 3 10 6 -13 2 -23 11 -23 18 0 7 10
16 23 18 l22 4 -22 2 c-28 1 -31 31 -3 31 11 0 20 5 20 10 0 6 -13 10 -30 10
-29 0 -30 -1 -30 -50z"/>
<path d="M1767 553 c-4 -3 -7 -26 -7 -50 0 -43 0 -43 35 -43 29 0 37 5 45 25
12 32 3 54 -27 66 -29 11 -37 11 -46 2z m52 -27 c9 -11 10 -20 1 -35 -18 -34
-40 -26 -40 14 0 37 18 47 39 21z"/>
<path d="M1890 548 c0 -32 22 -88 35 -88 7 0 20 21 29 47 19 55 19 53 7 53 -5
0 -16 -19 -24 -42 l-14 -43 -7 37 c-7 36 -26 63 -26 36z"/>
<path d="M1987 553 c-11 -10 -8 -93 3 -93 6 0 10 23 10 50 0 51 -1 55 -13 43z"/>
<path d="M520 330 c0 -27 5 -50 10 -50 6 0 10 6 10 14 0 7 9 16 20 19 46 12
28 67 -22 67 -15 0 -18 -8 -18 -50z m50 15 c0 -8 -7 -15 -15 -15 -8 0 -15 7
-15 15 0 8 7 15 15 15 8 0 15 -7 15 -15z"/>
<path d="M619 361 c-20 -16 -22 -23 -14 -47 8 -23 17 -30 43 -32 27 -3 34 1
42 22 11 31 4 53 -21 66 -23 13 -23 13 -50 -9z m56 -22 c10 -30 -18 -57 -39
-39 -16 13 -21 42 -9 53 14 14 42 6 48 -14z"/>
<path d="M718 374 c-5 -4 -8 -27 -8 -51 0 -42 1 -43 33 -42 26 0 28 2 12 8
-14 6 -21 20 -25 50 -3 24 -8 39 -12 35z"/>
<path d="M770 372 c0 -5 7 -17 15 -28 8 -10 15 -29 15 -41 0 -13 5 -23 10 -23
6 0 10 9 10 20 0 12 7 34 15 50 10 20 12 30 4 30 -6 0 -13 -9 -16 -20 -3 -11
-9 -20 -13 -20 -4 0 -10 9 -13 20 -5 19 -27 29 -27 12z"/>
<path d="M860 370 c0 -5 7 -10 15 -10 11 0 15 -11 15 -40 0 -22 5 -40 10 -40
6 0 10 18 10 40 0 30 4 40 16 40 8 0 12 5 9 10 -3 6 -22 10 -41 10 -19 0 -34
-4 -34 -10z"/>
<path d="M950 330 l0 -50 33 1 c23 1 26 3 10 6 -13 2 -23 11 -23 18 0 7 10 16
23 18 l22 4 -22 2 c-28 1 -31 31 -3 31 11 0 20 5 20 10 0 6 -13 10 -30 10 -29
0 -30 -1 -30 -50z"/>
<path d="M1058 373 c-22 -5 -35 -50 -21 -72 6 -9 23 -17 39 -18 l29 -2 -28 10
c-22 9 -28 16 -25 38 2 18 10 27 26 29 12 2 20 8 17 13 -6 9 -9 10 -37 2z"/>
<path d="M1120 330 c0 -27 5 -50 10 -50 6 0 10 9 10 20 0 13 7 20 20 20 13 0
20 -7 20 -20 0 -11 5 -20 10 -20 6 0 10 23 10 50 0 28 -4 50 -10 50 -5 0 -10
-9 -10 -20 0 -13 -7 -20 -20 -20 -13 0 -20 7 -20 20 0 11 -4 20 -10 20 -5 0
-10 -22 -10 -50z"/>
<path d="M1227 373 c-11 -10 -8 -93 2 -93 6 0 11 15 13 33 l3 32 18 -32 c25
-47 37 -41 36 20 -2 50 -2 51 -8 13 l-6 -40 -20 37 c-20 37 -26 42 -38 30z"/>
<path d="M1330 330 c0 -27 5 -50 10 -50 6 0 10 23 10 50 0 28 -4 50 -10 50 -5
0 -10 -22 -10 -50z"/>
<path d="M1386 367 c-12 -9 -17 -23 -14 -46 3 -30 8 -36 42 -48 39 -13 62 -9
37 6 -9 6 -10 11 -2 15 16 10 13 52 -5 70 -19 19 -35 20 -58 3z m49 -42 c0
-23 -4 -30 -20 -30 -21 0 -31 25 -21 51 11 28 41 12 41 -21z"/>
<path d="M1482 333 c3 -45 5 -48 32 -51 35 -4 46 10 46 61 0 51 -18 47 -22 -5
-2 -30 -8 -43 -18 -43 -10 0 -16 13 -18 43 -2 23 -8 42 -13 42 -6 0 -9 -21 -7
-47z"/>
<path d="M1580 330 l0 -50 33 1 c23 1 26 3 10 6 -13 2 -23 11 -23 18 0 7 10
16 23 18 l22 4 -22 2 c-28 1 -31 31 -3 31 11 0 20 5 20 10 0 6 -13 10 -30 10
-29 0 -30 -1 -30 -50z"/>
</g>
</svg>
